{"glyphs":{"0":{"ha":881,"x_min":0,"x_max":0,"o":"m 72 672 b 440 1007 72 878 208 1007 b 807 672 672 1007 807 878 l 807 315 b 440 -21 807 108 672 -21 b 72 315 208 -21 72 108 m 633 672 b 440 844 633 782 563 844 b 247 672 318 844 247 782 l 247 315 b 440 142 247 206 318 142 b 633 315 563 142 633 206 "},"1":{"ha":611,"x_min":0,"x_max":0,"o":"m 461 986 b 508 939 496 986 508 974 l 508 47 b 461 0 508 13 496 0 l 382 0 b 335 47 347 0 335 13 l 335 775 l 140 667 b 69 685 103 646 86 653 l 35 747 b 57 811 19 779 25 793 l 328 967 b 394 986 349 979 371 986 "},"2":{"ha":831,"x_min":0,"x_max":0,"o":"m 79 778 b 444 1007 142 931 264 1007 b 690 917 546 1007 628 976 b 782 697 751 856 782 782 b 699 467 782 597 754 521 b 394 299 643 413 542 357 b 353 283 390 297 358 286 b 333 275 350 282 343 279 b 294 253 311 267 310 263 b 254 188 269 239 254 214 l 254 163 l 718 163 b 765 115 753 163 765 150 l 765 47 b 718 0 765 13 753 0 l 119 0 b 72 47 85 0 72 13 l 72 151 b 160 357 72 242 100 310 b 346 458 219 404 261 425 b 525 544 436 493 496 522 b 599 689 574 582 599 629 b 438 844 599 776 532 844 b 246 721 346 844 282 803 b 185 690 231 686 218 679 l 110 718 b 79 778 78 731 68 750 "},"3":{"ha":851,"x_min":0,"x_max":0,"o":"m 775 725 b 667 515 775 626 739 557 b 807 281 760 472 807 394 b 450 -21 807 96 685 -21 b 74 213 254 -21 128 57 b 104 274 64 242 74 263 l 179 300 b 240 271 213 311 225 304 b 450 142 274 181 322 142 b 625 283 567 142 625 189 b 481 422 625 376 576 422 l 336 422 b 289 469 301 422 289 432 l 289 532 b 336 579 289 567 301 579 l 456 579 b 601 710 544 579 601 631 b 446 844 601 800 550 844 b 249 717 325 844 282 810 b 188 688 236 683 222 676 l 113 714 b 82 775 82 725 72 746 b 449 1007 136 931 247 1007 b 775 725 656 1007 775 901 "},"4":{"ha":876,"x_min":0,"x_max":0,"o":"m 794 383 b 842 336 829 383 842 371 l 842 276 b 794 229 842 242 832 229 l 699 229 l 699 47 b 651 0 699 13 686 0 l 583 0 b 536 47 549 0 536 13 l 536 229 l 78 229 b 31 276 43 229 31 242 l 31 326 b 47 383 31 350 36 368 l 508 956 b 575 989 526 978 549 989 l 651 989 b 699 942 686 989 699 979 l 699 383 m 536 756 l 235 383 l 536 383 "},"5":{"ha":828,"x_min":0,"x_max":0,"o":"m 706 986 b 753 939 740 986 753 974 l 753 871 b 706 824 753 836 740 824 l 308 824 l 288 619 l 456 619 b 707 532 565 619 649 590 b 793 307 764 472 793 397 b 700 74 793 214 763 136 b 444 -21 638 11 551 -21 b 68 206 249 -21 122 54 b 97 267 57 235 67 256 l 174 293 b 233 264 207 306 221 299 b 443 142 264 182 333 142 b 610 307 543 142 610 203 b 446 458 610 400 544 458 l 153 458 b 103 514 113 458 99 475 l 144 918 b 221 986 150 969 169 986 "},"6":{"ha":881,"x_min":0,"x_max":0,"o":"m 246 588 b 460 614 311 606 383 614 b 819 297 700 614 819 508 b 446 -21 819 101 679 -21 b 71 342 203 -21 71 114 l 71 644 b 446 1007 71 874 203 1007 b 804 788 631 1007 750 933 b 775 726 817 754 810 742 l 701 700 b 642 729 668 688 657 694 b 446 844 610 806 544 844 b 246 646 313 844 246 778 m 246 340 b 446 142 246 208 313 142 b 646 297 575 142 646 196 b 447 451 646 401 588 451 b 246 419 356 451 289 440 "},"7":{"ha":749,"x_min":0,"x_max":0,"o":"m 679 986 b 726 939 714 986 726 974 l 726 890 b 713 824 726 869 722 847 l 361 42 b 274 0 346 7 333 0 l 197 0 b 174 47 167 0 158 15 l 526 824 l 79 824 b 32 871 44 824 32 836 l 32 939 b 79 986 32 974 44 986 "},"8":{"ha":871,"x_min":0,"x_max":0,"o":"m 90 729 b 435 1007 90 906 219 1007 b 782 743 661 1007 782 914 b 640 517 782 646 735 571 b 813 269 747 468 813 397 b 435 -21 813 90 694 -21 b 58 247 183 -21 58 68 b 228 492 58 353 115 435 b 90 729 136 544 90 624 m 613 726 b 436 856 613 811 547 856 b 265 726 322 856 265 813 b 432 582 265 643 319 611 l 488 568 b 613 726 571 603 613 656 m 631 267 b 596 356 631 310 614 332 b 539 389 585 368 554 382 b 463 413 522 396 479 407 b 375 432 446 417 392 428 b 235 265 282 400 235 344 b 436 131 235 175 301 131 b 631 267 576 131 631 178 "},"9":{"ha":881,"x_min":0,"x_max":0,"o":"m 635 399 b 421 372 569 381 497 372 b 61 689 181 372 61 478 b 435 1007 61 885 201 1007 b 808 644 675 1007 808 872 l 808 342 b 435 -21 808 113 675 -21 b 75 199 251 -21 132 53 b 106 260 64 232 71 244 l 179 286 b 239 257 213 299 224 292 b 435 142 271 181 336 142 b 635 340 568 142 635 208 m 635 646 b 435 844 635 775 564 844 b 235 689 306 844 235 790 b 433 535 235 585 293 535 b 635 567 525 535 592 546 "}," ":{"ha":304,"x_min":0,"x_max":0,"o":""},"!":{"ha":335,"x_min":0,"x_max":0,"o":"m 208 1028 b 251 985 240 1028 253 1017 l 232 325 b 189 283 231 293 221 283 l 146 283 b 103 325 114 283 104 293 l 85 985 b 128 1028 83 1017 96 1028 m 172 181 b 261 92 239 181 261 158 l 261 79 b 172 -10 261 11 239 -10 l 161 -10 b 72 79 94 -10 72 11 l 72 92 b 161 181 72 158 94 181 "},"\"":{"ha":483,"x_min":0,"x_max":0,"o":"m 204 667 b 163 631 203 635 196 631 l 118 631 b 79 667 85 631 79 635 l 79 949 b 118 986 79 981 86 986 l 183 986 b 222 949 217 986 224 981 m 397 667 b 356 631 396 635 389 631 l 311 631 b 271 667 278 631 271 635 l 271 949 b 311 986 271 981 278 986 l 375 986 b 415 949 408 986 417 981 "},"#":{"ha":988,"x_min":0,"x_max":0,"o":"m 919 697 b 951 656 953 697 961 688 l 932 589 b 875 550 924 563 904 550 l 764 550 l 714 382 l 826 382 b 858 340 857 382 868 368 l 839 274 b 782 235 831 247 811 235 l 669 235 l 613 43 b 557 0 603 11 589 0 l 489 0 b 457 43 458 0 447 14 l 515 235 l 347 235 l 289 43 b 235 0 282 14 264 0 l 165 0 b 135 43 136 0 125 14 l 192 235 l 82 235 b 50 276 50 235 40 244 l 69 343 b 126 382 79 372 93 382 l 236 382 l 286 550 l 175 550 b 143 592 144 550 133 564 l 163 658 b 219 697 169 688 186 697 l 329 697 l 386 885 b 440 926 393 913 411 926 l 510 926 b 540 885 542 926 550 917 l 483 697 l 651 697 l 708 885 b 763 926 718 917 731 926 l 832 926 b 863 885 864 926 872 917 l 807 697 m 442 550 l 390 382 l 558 382 l 610 550 "},"$":{"ha":822,"x_min":0,"x_max":0,"o":"m 467 1075 b 508 1032 499 1075 508 1064 l 508 964 b 764 771 636 946 710 882 b 736 703 781 738 774 719 l 668 672 b 603 697 636 657 621 664 b 425 804 565 769 519 804 b 253 690 307 804 253 769 b 349 597 253 639 300 607 b 449 582 372 592 406 586 b 633 546 526 575 565 569 b 715 501 668 533 694 519 b 789 307 754 465 789 396 b 508 26 789 156 688 53 l 508 -46 b 467 -89 508 -78 499 -89 l 390 -89 b 347 -46 358 -89 347 -78 l 347 25 b 69 239 208 43 115 114 b 101 303 58 269 69 290 l 169 328 b 235 297 204 340 219 332 b 422 181 265 219 328 181 b 614 303 550 181 614 221 b 554 389 614 346 594 372 b 417 415 514 404 479 410 b 231 456 340 422 297 431 b 150 501 197 468 171 483 b 75 690 108 539 75 606 b 347 964 75 840 169 940 l 347 1032 b 390 1075 347 1064 358 1075 "},"%":{"ha":1139,"x_min":0,"x_max":0,"o":"m 44 801 b 275 1008 44 931 126 1008 b 506 801 424 1008 506 931 l 506 703 b 275 499 506 575 424 499 b 44 703 126 499 44 575 m 964 986 b 986 940 996 986 1003 964 l 325 42 b 232 0 297 4 289 0 l 178 0 b 154 47 144 0 136 21 l 815 947 b 903 986 839 982 851 986 m 371 794 b 275 879 371 851 339 879 b 179 794 211 879 179 851 l 179 711 b 275 626 179 654 211 626 b 371 711 339 626 371 654 m 632 281 b 863 488 632 410 714 488 b 1093 281 1011 488 1093 410 l 1093 182 b 863 -22 1093 54 1011 -22 b 632 182 714 -22 632 54 m 958 274 b 863 358 958 331 926 358 b 767 274 799 358 767 331 l 767 192 b 863 106 767 135 799 106 b 958 192 926 106 958 135 "},"&":{"ha":940,"x_min":0,"x_max":0,"o":"m 144 753 b 217 933 144 824 168 883 b 414 1007 264 982 329 1007 b 597 938 486 1007 547 983 b 672 765 647 890 672 833 b 488 511 672 649 614 572 l 474 504 l 644 329 l 731 413 b 788 413 749 432 768 432 l 843 357 b 839 306 858 340 857 324 l 749 218 l 917 42 b 896 0 942 14 935 0 l 797 0 b 733 25 771 0 750 8 l 644 115 b 496 8 588 63 539 26 b 351 -21 453 -11 406 -21 b 136 63 264 -21 192 7 b 53 275 81 117 53 188 b 236 547 53 390 114 482 b 144 753 175 613 144 682 m 521 764 b 414 867 521 819 475 867 b 296 751 340 867 296 817 b 371 614 296 703 315 671 l 421 640 b 521 764 492 674 521 704 m 339 436 b 217 272 257 397 217 343 b 360 132 217 190 278 132 b 540 229 426 132 468 161 "},"'":{"ha":292,"x_min":0,"x_max":0,"o":"m 204 667 b 163 631 203 635 196 631 l 118 631 b 79 667 85 631 79 635 l 79 949 b 118 986 79 981 86 986 l 183 986 b 222 949 217 986 224 981 "},"(":{"ha":399,"x_min":0,"x_max":0,"o":"m 75 847 b 272 1188 75 1025 140 1126 b 331 1161 304 1200 314 1193 l 361 1101 b 338 1043 372 1069 367 1060 b 233 860 267 1008 233 958 l 233 126 b 338 -57 233 28 267 -22 b 361 -115 369 -75 374 -86 l 331 -175 b 272 -201 314 -207 304 -214 b 75 139 140 -140 75 -39 "},")":{"ha":399,"x_min":0,"x_max":0,"o":"m 71 1161 b 129 1188 86 1190 106 1200 b 326 847 261 1126 326 1025 l 326 139 b 129 -201 326 -39 261 -140 b 71 -175 106 -214 86 -204 l 42 -115 b 65 -57 31 -83 36 -74 b 169 126 136 -22 169 28 l 169 860 b 65 1043 169 958 136 1008 b 42 1101 36 1060 31 1069 "},"*":{"ha":504,"x_min":0,"x_max":0,"o":"m 285 935 b 307 908 306 935 313 926 l 292 788 l 401 840 b 436 826 418 849 429 844 l 450 782 b 431 751 456 763 449 753 l 311 729 l 394 642 b 392 606 408 628 407 615 l 354 578 b 318 586 338 567 325 569 l 261 690 l 204 586 b 168 576 197 569 185 567 l 131 606 b 128 642 114 617 113 629 l 213 729 l 93 751 b 74 782 75 754 68 764 l 88 826 b 122 840 94 844 107 849 l 231 788 l 215 908 b 238 935 211 926 219 935 "},"+":{"ha":754,"x_min":0,"x_max":0,"o":"m 658 531 b 706 483 693 531 706 518 l 706 426 b 658 379 706 392 693 379 l 453 379 l 453 174 b 404 126 453 139 439 126 l 349 126 b 301 174 314 126 301 139 l 301 379 l 97 379 b 50 426 63 379 50 392 l 50 483 b 97 531 50 518 63 531 l 301 531 l 301 735 b 349 782 301 769 314 782 l 404 782 b 453 735 439 782 453 769 l 453 531 "},",":{"ha":306,"x_min":0,"x_max":0,"o":"m 156 -126 b 103 -169 144 -160 132 -169 l 72 -169 b 43 -137 46 -169 39 -164 l 78 121 b 135 171 83 160 97 171 l 197 171 b 240 121 238 171 253 154 "},"-":{"ha":572,"x_min":0,"x_max":0,"o":"m 446 446 b 493 399 481 446 493 433 l 493 338 b 446 290 493 303 481 290 l 126 290 b 79 338 92 290 79 303 l 79 399 b 126 446 79 433 92 446 "},".":{"ha":315,"x_min":0,"x_max":0,"o":"m 163 181 b 251 92 231 181 251 158 l 251 79 b 163 -10 251 11 231 -10 l 153 -10 b 64 79 85 -10 64 11 l 64 92 b 153 181 64 158 85 181 "},"/":{"ha":611,"x_min":0,"x_max":0,"o":"m 210 -44 b 153 -83 197 -74 185 -83 l 75 -83 b 46 -44 43 -83 35 -71 l 415 949 b 472 988 428 978 440 988 l 551 988 b 579 949 583 988 590 975 "},":":{"ha":346,"x_min":0,"x_max":0,"o":"m 178 689 b 267 600 246 689 267 668 l 267 588 b 178 499 267 521 246 499 l 168 499 b 79 588 101 499 79 519 l 79 600 b 168 689 79 668 101 689 m 178 181 b 267 92 246 181 267 158 l 267 79 b 178 -10 267 11 246 -10 l 168 -10 b 79 79 101 -10 79 11 l 79 92 b 168 181 79 158 101 181 "},";":{"ha":363,"x_min":0,"x_max":0,"o":"m 200 689 b 289 600 268 689 289 668 l 289 588 b 200 499 289 521 268 499 l 190 499 b 101 588 124 499 101 519 l 101 600 b 190 689 101 668 124 689 m 179 -126 b 125 -169 168 -158 157 -169 l 96 -169 b 65 -137 68 -169 61 -164 l 101 121 b 157 171 106 160 119 171 l 219 171 b 264 121 260 171 275 154 "},"<":{"ha":671,"x_min":0,"x_max":0,"o":"m 546 789 b 596 753 579 807 596 794 l 596 693 b 553 615 596 644 588 633 l 242 458 l 242 451 l 551 297 b 596 219 589 279 596 269 l 596 153 b 546 117 596 111 579 99 l 78 372 b 40 431 49 389 40 399 l 40 475 b 78 535 40 507 50 519 "},"=":{"ha":817,"x_min":0,"x_max":0,"o":"m 689 669 b 736 621 724 669 736 656 l 736 560 b 689 513 736 525 724 513 l 128 513 b 81 560 90 513 81 525 l 81 621 b 128 669 81 658 93 669 m 689 394 b 736 347 724 394 736 382 l 736 286 b 689 239 736 251 724 239 l 128 239 b 81 286 90 239 81 249 l 81 347 b 128 394 81 385 90 394 "},">":{"ha":671,"x_min":0,"x_max":0,"o":"m 75 754 b 125 789 75 797 88 807 l 592 535 b 631 476 621 518 631 508 l 631 432 b 592 372 631 400 621 389 l 125 118 b 75 154 88 100 75 111 l 75 214 b 118 290 75 263 83 272 l 429 447 l 429 456 l 119 610 b 75 688 82 628 75 638 "},"?":{"ha":790,"x_min":0,"x_max":0,"o":"m 61 797 b 424 1026 121 950 242 1026 b 674 944 528 1026 611 999 b 765 739 735 890 765 821 b 735 594 765 682 757 633 b 665 504 713 556 701 532 b 578 446 629 476 621 469 b 538 422 557 433 543 426 b 450 301 481 388 450 356 b 406 257 450 267 439 257 l 350 257 b 306 301 317 257 306 267 b 439 533 306 419 354 476 b 496 569 438 533 493 568 b 544 608 501 574 538 599 b 581 661 551 618 575 643 b 593 732 586 678 593 704 b 419 874 593 817 531 874 b 217 743 313 874 256 831 b 157 714 201 708 190 703 l 90 738 b 61 797 58 747 49 768 m 385 181 b 474 92 451 181 474 158 l 474 79 b 385 -10 474 11 451 -10 l 374 -10 b 285 79 307 -10 285 11 l 285 92 b 374 181 285 158 307 181 "},"@":{"ha":1253,"x_min":0,"x_max":0,"o":"m 61 458 b 207 860 61 628 110 761 b 624 1007 304 958 443 1007 b 1042 860 804 1007 943 958 b 1188 458 1139 761 1188 626 l 1188 354 b 950 57 1188 169 1088 57 b 831 110 876 63 867 72 b 585 72 756 85 674 72 b 340 306 422 72 340 150 l 340 506 b 585 739 340 656 419 739 b 842 697 689 739 774 725 b 888 632 876 685 888 669 l 888 231 b 953 175 888 193 910 175 b 1061 351 1014 175 1061 228 l 1061 461 b 624 894 1061 733 908 894 b 186 461 342 894 186 733 l 186 351 b 624 -71 186 79 340 -71 b 925 -36 706 -71 806 -60 b 949 -51 940 -33 949 -39 l 949 -112 b 924 -149 949 -131 940 -143 b 624 -183 819 -172 719 -183 b 61 354 261 -183 61 15 m 740 600 b 604 615 701 610 656 615 b 475 501 514 615 475 579 l 475 308 b 604 196 475 231 514 196 b 753 217 657 196 707 203 l 753 582 b 740 600 753 590 749 596 "},"A":{"ha":914,"x_min":0,"x_max":0,"o":"m 915 46 b 883 0 926 15 915 0 l 811 0 b 725 42 754 0 736 8 l 661 221 l 278 221 l 213 42 b 126 0 201 8 183 0 l 63 0 b 31 46 31 0 19 15 l 378 949 b 436 988 390 981 403 988 l 510 988 b 568 950 543 988 557 979 m 507 657 b 475 803 490 707 479 771 l 474 826 l 464 826 b 433 658 464 774 454 718 l 326 364 l 613 364 "},"B":{"ha":903,"x_min":0,"x_max":0,"o":"m 529 986 b 814 726 708 986 814 893 b 708 517 814 628 779 558 l 708 511 b 850 271 803 478 850 397 b 538 0 850 100 725 0 l 144 0 b 96 47 110 0 96 13 l 96 939 b 144 986 96 974 110 986 m 508 579 b 636 701 593 579 636 619 b 508 824 636 783 593 824 l 271 824 l 271 579 m 665 290 b 533 421 665 378 621 421 l 271 421 l 271 163 l 533 163 b 665 290 621 163 665 206 "},"C":{"ha":889,"x_min":0,"x_max":0,"o":"m 68 646 b 465 1007 68 869 211 1007 b 843 775 663 1007 789 929 b 814 714 854 746 844 725 l 738 688 b 678 717 704 676 690 683 b 465 844 647 801 576 844 b 243 647 322 844 243 775 l 243 340 b 465 142 243 213 322 142 b 678 271 575 142 646 185 b 739 300 693 306 706 313 l 814 274 b 844 213 844 263 854 242 b 465 -21 790 57 664 -21 b 68 342 211 -21 68 115 "},"D":{"ha":925,"x_min":0,"x_max":0,"o":"m 456 986 b 858 619 711 986 858 847 l 858 367 b 456 0 858 139 711 0 l 144 0 b 96 47 110 0 96 13 l 96 939 b 144 986 96 974 110 986 m 685 621 b 457 824 685 753 603 824 l 271 824 l 271 163 l 457 163 b 685 365 603 163 685 233 "},"E":{"ha":804,"x_min":0,"x_max":0,"o":"m 696 986 b 744 939 731 986 744 974 l 744 871 b 696 824 744 836 731 824 l 271 824 l 271 581 l 631 581 b 678 533 665 581 678 568 l 678 465 b 631 418 678 431 665 418 l 271 418 l 271 163 l 711 163 b 758 115 746 163 758 150 l 758 47 b 711 0 758 13 746 0 l 144 0 b 96 47 110 0 96 13 l 96 939 b 144 986 96 974 110 986 "},"F":{"ha":783,"x_min":0,"x_max":0,"o":"m 696 986 b 744 939 731 986 744 974 l 744 871 b 696 824 744 836 731 824 l 271 824 l 271 568 l 628 568 b 676 521 663 568 676 556 l 676 453 b 628 406 676 418 665 406 l 271 406 l 271 47 b 224 0 271 13 258 0 l 144 0 b 96 47 110 0 96 13 l 96 939 b 144 986 96 974 110 986 "},"G":{"ha":919,"x_min":0,"x_max":0,"o":"m 814 540 b 861 493 851 540 861 528 l 861 307 b 757 71 861 210 826 131 b 465 -21 686 10 589 -21 b 68 342 211 -21 68 115 l 68 646 b 465 1007 68 869 211 1007 b 843 775 663 1007 789 929 b 814 714 854 746 844 725 l 738 688 b 678 717 704 675 690 682 b 465 844 647 801 576 844 b 243 647 321 844 243 775 l 243 340 b 465 142 243 211 322 142 b 690 306 604 142 690 210 l 690 378 l 481 378 b 433 426 446 378 433 392 l 433 493 b 481 540 433 528 446 540 "},"H":{"ha":953,"x_min":0,"x_max":0,"o":"m 808 986 b 857 939 843 986 857 974 l 857 47 b 808 0 857 13 843 0 l 729 0 b 682 47 694 0 682 13 l 682 418 l 271 418 l 271 47 b 224 0 271 13 258 0 l 144 0 b 96 47 110 0 96 13 l 96 939 b 144 986 96 974 110 986 l 224 986 b 271 939 258 986 271 974 l 271 581 l 682 581 l 682 939 b 729 986 682 974 694 986 "},"I":{"ha":367,"x_min":0,"x_max":0,"o":"m 96 939 b 144 986 96 974 110 986 l 224 986 b 271 939 258 986 271 974 l 271 47 b 224 0 271 13 258 0 l 144 0 b 96 47 110 0 96 13 "},"J":{"ha":801,"x_min":0,"x_max":0,"o":"m 683 986 b 729 940 717 986 729 974 l 729 325 b 375 -21 729 108 604 -21 b 39 211 201 -21 89 57 b 68 272 28 240 38 261 l 144 299 b 204 269 176 311 189 304 b 375 142 233 182 282 142 b 554 324 494 142 554 203 l 554 940 b 601 986 554 974 567 986 "},"K":{"ha":871,"x_min":0,"x_max":0,"o":"m 846 47 b 822 0 863 15 854 0 l 742 0 b 647 42 681 0 664 7 l 507 324 b 446 401 488 361 467 388 b 342 421 424 414 389 421 l 271 421 l 271 47 b 224 0 271 13 258 0 l 144 0 b 96 47 110 0 96 13 l 96 939 b 144 986 96 974 110 986 l 224 986 b 271 939 258 986 271 974 l 271 579 l 326 579 l 344 579 l 624 947 b 718 986 647 981 663 986 l 807 986 b 829 940 839 986 847 964 l 519 544 b 669 386 579 518 629 465 "},"L":{"ha":733,"x_min":0,"x_max":0,"o":"m 224 986 b 271 939 258 986 271 974 l 271 163 l 669 163 b 717 115 704 163 717 150 l 717 47 b 669 0 717 13 704 0 l 144 0 b 96 47 110 0 96 13 l 96 939 b 144 986 96 974 110 986 "},"M":{"ha":1126,"x_min":0,"x_max":0,"o":"m 982 986 b 1029 939 1017 986 1029 974 l 1029 47 b 982 0 1029 13 1017 0 l 911 0 b 864 47 876 0 864 13 l 864 471 b 897 747 864 554 875 646 l 888 747 b 774 493 861 667 822 582 l 638 253 b 583 219 624 231 606 219 l 539 219 b 485 253 510 219 500 225 l 346 494 b 239 747 303 567 268 651 l 229 747 b 258 469 249 653 258 560 l 258 47 b 211 0 258 13 246 0 l 144 0 b 96 47 110 0 96 13 l 96 939 b 144 986 96 974 110 986 l 206 986 b 272 950 244 986 257 979 l 561 433 l 850 949 b 914 986 867 981 876 986 "},"N":{"ha":967,"x_min":0,"x_max":0,"o":"m 822 986 b 869 939 857 986 869 974 l 869 47 b 822 0 869 13 857 0 l 743 0 b 697 24 722 0 707 8 l 357 526 b 243 760 299 611 240 764 l 235 760 b 265 483 235 764 265 600 l 265 47 b 218 0 265 13 253 0 l 144 0 b 96 47 110 0 96 13 l 96 939 b 144 986 96 974 110 986 l 224 986 b 269 964 244 986 260 979 l 607 464 b 724 228 671 371 725 226 l 732 228 b 701 508 732 226 701 383 l 701 939 b 749 986 701 974 714 986 "},"O":{"ha":929,"x_min":0,"x_max":0,"o":"m 68 644 b 465 1007 68 871 211 1007 b 861 644 717 1007 861 871 l 861 342 b 465 -21 861 115 717 -21 b 68 342 211 -21 68 115 m 688 646 b 465 844 688 774 608 844 b 243 646 322 844 243 775 l 243 340 b 465 142 243 211 322 142 b 688 340 608 142 688 213 "},"P":{"ha":878,"x_min":0,"x_max":0,"o":"m 513 986 b 840 664 714 986 840 864 b 513 343 840 464 714 343 l 271 343 l 271 47 b 224 0 271 13 258 0 l 144 0 b 96 47 110 0 96 13 l 96 939 b 144 986 96 974 110 986 m 496 506 b 657 664 597 506 657 564 b 496 824 657 764 597 824 l 271 824 l 271 506 "},"Q":{"ha":949,"x_min":0,"x_max":0,"o":"m 875 15 b 869 -53 897 -12 896 -29 l 817 -96 b 750 -90 793 -117 771 -114 l 660 17 b 465 -21 607 -8 542 -21 b 68 342 211 -21 68 115 l 68 644 b 465 1007 68 871 211 1007 b 861 644 717 1007 861 871 l 861 342 b 792 113 861 249 838 172 m 243 340 b 465 142 243 211 322 142 b 688 340 608 142 688 213 l 688 646 b 465 844 688 774 608 844 b 243 646 322 844 243 775 "},"R":{"ha":904,"x_min":0,"x_max":0,"o":"m 528 986 b 840 681 722 986 840 871 b 657 400 840 538 774 439 b 701 340 674 386 689 367 l 854 47 b 831 0 871 15 863 0 l 750 0 b 656 42 689 0 672 7 l 539 278 b 374 375 501 356 468 375 l 271 375 l 271 47 b 224 0 271 13 258 0 l 144 0 b 96 47 110 0 96 13 l 96 939 b 144 986 96 974 110 986 m 619 575 b 657 681 644 599 657 635 b 619 788 657 726 644 763 b 511 824 594 811 558 824 l 271 824 l 271 538 l 511 538 b 619 575 557 538 593 550 "},"S":{"ha":879,"x_min":0,"x_max":0,"o":"m 67 703 b 447 1007 67 885 204 1007 b 813 797 640 1007 744 940 b 786 733 826 768 818 747 l 710 700 b 650 724 678 688 667 692 b 447 840 611 801 553 840 b 246 713 313 840 246 797 b 393 594 238 639 319 606 b 588 565 436 586 536 575 b 763 488 643 554 719 526 b 839 290 806 449 839 379 b 443 -21 839 101 693 -21 b 61 211 233 -21 121 56 b 90 272 49 246 57 261 l 167 300 b 226 271 199 311 211 304 b 443 142 263 185 335 142 b 664 286 590 142 664 190 b 556 399 664 347 611 385 b 444 415 528 406 490 411 b 296 438 382 422 356 425 b 163 494 236 450 207 465 b 67 703 100 535 71 600 "},"T":{"ha":786,"x_min":0,"x_max":0,"o":"m 719 986 b 767 939 754 986 767 974 l 767 871 b 719 824 767 836 754 824 l 481 824 l 481 47 b 433 0 481 13 468 0 l 353 0 b 306 47 318 0 306 13 l 306 824 l 67 824 b 19 871 32 824 19 836 l 19 939 b 67 986 19 974 32 986 "},"U":{"ha":956,"x_min":0,"x_max":0,"o":"m 264 338 b 478 142 264 211 338 142 b 692 338 618 142 692 211 l 692 939 b 739 986 692 974 704 986 l 818 986 b 865 939 853 986 865 974 l 865 339 b 478 -21 865 117 728 -21 b 89 339 228 -21 89 117 l 89 939 b 136 986 89 974 101 986 l 217 986 b 264 939 251 986 264 974 "},"V":{"ha":889,"x_min":0,"x_max":0,"o":"m 858 986 b 889 940 892 986 901 971 l 557 39 b 499 0 544 7 532 0 l 425 0 b 367 38 392 0 376 8 l 33 940 b 64 986 22 971 32 986 l 135 986 b 221 944 192 986 210 978 l 424 353 b 460 206 444 288 460 210 l 468 206 b 504 351 468 206 483 292 l 706 944 b 792 986 717 978 735 986 "},"W":{"ha":1251,"x_min":0,"x_max":0,"o":"m 1197 986 b 1228 940 1229 986 1238 972 l 999 39 b 940 0 992 7 975 0 l 864 0 b 806 38 831 0 811 13 l 660 589 b 638 746 646 643 639 694 l 628 746 b 604 590 626 697 619 644 l 457 39 b 399 0 450 7 433 0 l 324 0 b 264 38 289 0 271 8 l 36 940 b 67 986 26 972 33 986 l 164 986 b 226 944 204 986 219 978 l 340 426 b 363 240 343 414 350 353 l 371 240 b 399 426 374 304 383 367 l 539 940 b 601 982 549 974 564 982 l 676 982 b 739 940 715 982 732 974 l 876 426 b 906 240 893 363 903 300 l 914 240 b 939 425 918 300 926 363 l 1050 944 b 1113 986 1057 978 1072 986 "},"X":{"ha":886,"x_min":0,"x_max":0,"o":"m 867 49 b 844 0 888 25 878 0 l 747 0 b 654 42 690 0 676 4 l 442 368 l 238 42 b 146 0 211 4 201 0 l 56 0 b 32 49 21 0 14 22 l 338 503 l 43 942 b 67 986 25 964 33 986 l 160 986 b 251 947 215 986 225 981 l 450 640 l 649 947 b 736 986 675 981 685 986 l 832 986 b 854 942 864 986 872 964 l 557 504 "},"Y":{"ha":893,"x_min":0,"x_max":0,"o":"m 854 986 b 878 939 888 986 894 965 l 539 389 l 539 47 b 492 0 539 13 526 0 l 413 0 b 365 47 378 0 365 13 l 365 392 l 25 939 b 50 986 8 965 17 986 l 147 986 b 239 944 207 986 218 983 l 454 569 l 671 944 b 764 986 692 983 704 986 "},"Z":{"ha":817,"x_min":0,"x_max":0,"o":"m 714 986 b 761 939 749 986 761 974 l 761 872 b 746 822 761 851 756 835 l 265 163 l 722 163 b 769 115 760 163 769 150 l 769 47 b 722 0 769 13 757 0 l 94 0 b 47 47 60 0 47 13 l 47 115 b 64 164 47 133 53 149 l 543 824 l 101 824 b 54 871 67 824 54 836 l 54 939 b 101 986 54 974 67 986 "},"[":{"ha":421,"x_min":0,"x_max":0,"o":"m 349 1189 b 390 1147 383 1189 390 1185 l 390 1086 b 349 1046 390 1051 383 1046 l 239 1046 l 239 -58 l 349 -58 b 390 -100 383 -58 390 -62 l 390 -161 b 349 -203 390 -199 383 -203 l 129 -203 b 86 -160 94 -203 86 -194 l 86 1146 b 129 1189 86 1181 94 1189 "},"\\":{"ha":611,"x_min":0,"x_max":0,"o":"m 44 947 b 72 986 33 974 40 986 l 151 986 b 208 947 183 986 196 976 l 578 -44 b 550 -83 589 -71 582 -83 l 471 -83 b 414 -44 439 -83 425 -74 "},"]":{"ha":421,"x_min":0,"x_max":0,"o":"m 292 1189 b 333 1146 326 1189 333 1181 l 333 -160 b 292 -203 333 -194 326 -203 l 72 -203 b 31 -161 35 -203 31 -199 l 31 -100 b 72 -58 31 -62 35 -58 l 181 -58 l 181 1046 l 72 1046 b 31 1086 38 1046 31 1051 l 31 1147 b 72 1189 31 1185 35 1189 "},"^":{"ha":817,"x_min":0,"x_max":0,"o":"m 472 1125 b 531 1088 506 1125 507 1111 l 790 772 b 765 722 817 739 808 722 l 696 722 b 611 760 646 722 639 726 l 450 964 l 443 964 l 283 760 b 197 722 256 726 247 722 l 133 722 b 110 772 90 722 82 739 l 367 1088 b 426 1125 388 1113 407 1125 "},"_":{"ha":689,"x_min":0,"x_max":0,"o":"m 611 0 b 658 -47 646 0 658 -12 l 658 -108 b 611 -156 658 -143 646 -156 l 78 -156 b 31 -108 43 -156 31 -143 l 31 -47 b 78 0 31 -12 43 0 "},"`":{"ha":357,"x_min":0,"x_max":0,"o":"m 67 1011 b 144 1014 83 1032 110 1033 l 349 892 b 351 846 371 879 369 869 l 332 821 b 278 818 322 808 304 808 l 36 919 b 31 968 8 931 10 944 "},"a":{"ha":721,"x_min":0,"x_max":0,"o":"m 68 596 b 356 740 118 692 214 740 b 653 454 554 740 653 644 l 653 94 b 603 15 653 46 642 32 b 353 -21 547 -8 464 -21 b 110 35 235 -21 154 -3 b 43 204 65 71 43 128 b 358 428 43 369 132 428 b 492 421 368 428 413 425 l 492 460 b 353 597 492 550 453 597 b 207 531 285 597 236 575 b 147 510 186 501 179 499 l 92 533 b 68 596 61 547 53 568 m 492 289 b 340 296 394 293 344 296 b 207 206 240 296 207 267 b 338 113 207 143 236 113 b 476 124 397 113 443 117 b 492 143 486 128 492 133 "},"b":{"ha":753,"x_min":0,"x_max":0,"o":"m 197 1028 b 239 985 229 1028 239 1017 l 239 717 b 406 740 307 732 363 740 b 694 461 599 740 694 647 l 694 274 b 381 -21 694 78 590 -21 b 129 24 282 -21 199 -6 b 78 100 85 44 78 56 l 78 985 b 121 1028 78 1017 89 1028 m 533 457 b 382 593 533 544 481 593 b 239 568 336 593 289 585 l 239 158 b 250 143 239 151 243 146 b 369 126 282 132 321 126 b 533 278 479 126 533 176 "},"c":{"ha":718,"x_min":0,"x_max":0,"o":"m 57 456 b 376 740 57 638 164 740 b 674 558 533 740 636 668 b 643 496 685 524 676 508 l 582 476 b 521 506 549 464 533 472 b 369 599 497 568 446 599 b 218 463 268 599 218 553 l 218 257 b 369 121 218 169 271 121 b 521 217 446 121 497 153 b 582 244 533 250 549 256 l 644 226 b 674 164 676 214 686 193 b 364 -21 625 40 522 -21 b 57 264 158 -21 57 82 "},"d":{"ha":753,"x_min":0,"x_max":0,"o":"m 58 450 b 349 740 58 639 156 740 b 514 722 392 740 446 735 l 514 985 b 556 1028 514 1017 524 1028 l 632 1028 b 675 985 664 1028 675 1017 l 675 100 b 619 24 675 56 664 42 b 360 -21 540 -6 454 -21 b 58 260 158 -21 58 72 m 514 575 b 379 593 458 588 414 593 b 219 446 272 593 219 544 l 219 265 b 375 126 219 172 271 126 b 503 142 424 126 467 132 b 514 157 510 144 514 150 "},"e":{"ha":746,"x_min":0,"x_max":0,"o":"m 56 440 b 378 740 56 635 168 740 b 699 453 589 740 699 621 l 699 368 b 636 308 699 328 678 308 l 217 308 l 217 257 b 375 118 217 167 274 118 b 539 192 453 118 507 143 b 610 208 561 224 576 226 l 658 182 b 675 113 690 167 696 144 b 375 -21 621 24 521 -21 b 56 276 158 -21 56 94 m 538 463 b 378 604 538 553 483 604 b 217 463 274 604 217 553 l 217 432 l 538 432 "},"f":{"ha":514,"x_min":0,"x_max":0,"o":"m 460 1028 b 504 983 493 1028 504 1017 l 504 922 b 460 878 504 889 493 878 b 303 733 343 878 303 839 l 303 719 l 463 719 b 504 678 494 719 504 710 l 504 614 b 463 571 504 582 494 571 l 303 571 l 303 43 b 260 0 303 11 293 0 l 186 0 b 142 43 153 0 142 11 l 142 571 l 58 571 b 17 614 26 571 17 582 l 17 678 b 58 719 17 710 26 719 l 142 719 l 142 733 b 447 1028 142 926 243 1024 "},"g":{"ha":751,"x_min":0,"x_max":0,"o":"m 64 449 b 378 740 64 643 168 740 b 629 697 482 740 567 726 b 681 621 674 676 681 665 l 681 -24 b 375 -326 681 -214 585 -326 b 88 -193 236 -326 140 -282 b 104 -124 67 -164 72 -140 l 157 -94 b 228 -111 190 -78 206 -82 b 372 -182 257 -158 306 -182 b 519 -32 471 -182 519 -132 l 519 38 b 353 13 457 21 401 13 b 64 292 158 13 64 113 m 507 578 b 389 593 469 588 431 593 b 225 443 279 593 225 543 l 225 296 b 376 160 225 208 278 160 b 519 179 418 160 465 167 l 519 561 b 507 578 519 568 515 574 "},"h":{"ha":771,"x_min":0,"x_max":0,"o":"m 200 1028 b 242 985 232 1028 242 1017 l 242 721 b 408 740 257 728 335 740 b 697 461 601 740 697 647 l 697 43 b 654 0 697 11 686 0 l 579 0 b 536 43 547 0 536 11 l 536 457 b 385 593 536 547 486 593 b 242 572 317 593 269 586 l 242 43 b 200 0 242 11 232 0 l 124 0 b 81 43 92 0 81 11 l 81 985 b 124 1028 81 1017 92 1028 "},"i":{"ha":321,"x_min":0,"x_max":0,"o":"m 165 989 b 250 906 231 989 250 968 l 250 893 b 165 808 250 828 231 808 l 156 808 b 71 893 93 808 71 828 l 71 906 b 156 989 71 968 90 989 m 199 719 b 242 678 231 719 242 710 l 242 43 b 199 0 242 11 231 0 l 122 0 b 81 43 90 0 81 11 l 81 678 b 122 719 81 710 90 719 "},"j":{"ha":324,"x_min":0,"x_max":0,"o":"m 167 989 b 251 906 232 989 251 968 l 251 893 b 167 808 251 828 229 808 l 157 808 b 72 893 92 808 72 828 l 72 906 b 157 989 72 968 92 989 m 199 719 b 242 678 232 719 242 710 l 242 -10 b -75 -319 242 -217 136 -319 b -119 -275 -108 -319 -119 -308 l -119 -214 b -75 -169 -119 -181 -108 -169 b 81 -6 36 -169 81 -112 l 81 678 b 125 719 81 710 92 719 "},"k":{"ha":726,"x_min":0,"x_max":0,"o":"m 693 51 b 667 0 714 14 707 0 l 596 0 b 522 39 547 0 538 6 l 436 224 b 325 292 415 269 379 292 l 242 292 l 242 44 b 197 0 242 11 232 0 l 126 0 b 81 44 92 0 81 11 l 81 983 b 126 1028 81 1017 92 1028 l 197 1028 b 242 983 232 1028 242 1017 l 242 442 l 304 442 l 314 442 l 503 688 b 586 719 524 717 535 719 l 654 719 b 682 669 699 719 708 703 l 472 410 b 572 294 511 390 544 351 "},"l":{"ha":331,"x_min":0,"x_max":0,"o":"m 246 43 b 203 0 246 11 235 0 l 128 0 b 85 43 94 0 85 11 l 85 985 b 128 1028 85 1017 94 1028 l 203 1028 b 246 985 235 1028 246 1017 "},"m":{"ha":1149,"x_min":0,"x_max":0,"o":"m 557 694 b 801 740 633 725 714 740 b 1074 464 983 740 1074 649 l 1074 43 b 1032 0 1074 11 1064 0 l 956 0 b 913 43 924 0 913 11 l 913 458 b 778 593 913 549 868 593 b 643 568 736 593 692 585 b 658 464 653 542 658 507 l 658 43 b 615 0 658 11 647 0 l 540 0 b 497 43 508 0 497 11 l 497 458 b 361 593 497 549 451 593 b 250 576 321 593 285 588 b 239 560 243 574 239 568 l 239 43 b 197 0 239 11 229 0 l 121 0 b 78 43 89 0 78 11 l 78 614 b 132 693 78 658 89 675 b 385 740 208 725 293 740 b 557 694 458 740 515 725 "},"n":{"ha":768,"x_min":0,"x_max":0,"o":"m 132 693 b 406 740 211 725 301 740 b 694 461 600 740 694 640 l 694 43 b 651 0 694 11 683 0 l 575 0 b 533 43 543 0 533 11 l 533 457 b 382 593 533 547 483 593 b 249 575 338 593 293 588 b 239 561 242 572 239 568 l 239 43 b 197 0 239 11 229 0 l 121 0 b 78 43 89 0 78 11 l 78 614 b 132 693 78 658 88 675 "},"o":{"ha":754,"x_min":0,"x_max":0,"o":"m 57 463 b 376 740 57 636 172 740 b 697 463 582 740 697 636 l 697 257 b 376 -21 697 83 582 -21 b 57 257 172 -21 57 83 m 536 463 b 376 594 536 547 478 594 b 218 463 275 594 218 547 l 218 257 b 376 125 218 174 275 125 b 536 257 478 125 536 174 "},"p":{"ha":753,"x_min":0,"x_max":0,"o":"m 132 700 b 401 740 206 726 294 740 b 694 460 597 740 694 642 l 694 269 b 385 -21 694 76 592 -21 b 239 4 351 -21 303 -12 l 239 -262 b 197 -306 239 -294 229 -306 l 121 -306 b 78 -262 89 -306 78 -294 l 78 621 b 132 700 78 665 88 682 m 533 456 b 378 593 533 547 482 593 b 253 578 331 593 289 588 b 239 560 243 574 239 568 l 239 147 b 374 126 293 133 338 126 b 533 275 481 126 533 176 "},"q":{"ha":753,"x_min":0,"x_max":0,"o":"m 372 740 b 624 697 476 740 561 726 b 675 621 668 676 675 665 l 675 -262 b 632 -306 675 -294 664 -306 l 556 -306 b 514 -262 524 -306 514 -294 l 514 6 b 347 -21 449 -12 393 -21 b 58 258 153 -21 58 79 l 58 449 b 372 740 58 643 163 740 m 219 263 b 371 126 219 175 272 126 b 514 147 408 126 457 133 l 514 560 b 499 578 514 568 508 574 b 383 593 464 588 425 593 b 219 443 274 593 219 543 "},"r":{"ha":489,"x_min":0,"x_max":0,"o":"m 390 740 l 435 740 b 478 697 467 740 478 731 l 478 636 b 435 593 478 604 467 593 l 385 593 b 253 576 333 593 289 588 b 239 560 243 575 239 569 l 239 43 b 197 0 239 11 229 0 l 121 0 b 78 43 89 0 78 11 l 78 619 b 132 699 78 664 88 681 b 390 740 200 724 286 738 "},"s":{"ha":700,"x_min":0,"x_max":0,"o":"m 69 517 b 356 740 69 654 168 740 b 653 592 504 740 604 690 b 631 529 668 564 660 543 l 568 504 b 510 524 536 492 528 494 b 360 596 483 572 433 596 b 229 521 272 596 229 571 b 392 435 229 460 271 446 b 675 211 581 417 675 367 b 375 -21 675 71 568 -21 b 65 147 213 -21 108 35 b 93 206 54 176 64 196 l 156 225 b 213 199 183 236 200 231 b 369 122 233 147 286 122 b 517 204 468 122 517 150 b 350 293 517 265 474 281 b 193 326 285 300 247 306 b 128 364 167 336 144 349 b 69 517 94 393 69 446 "},"t":{"ha":540,"x_min":0,"x_max":0,"o":"m 268 886 b 311 844 300 886 311 876 l 311 719 l 469 719 b 513 678 501 719 513 710 l 513 614 b 469 571 513 582 501 571 l 311 571 l 311 292 b 344 163 311 226 322 183 b 468 132 365 142 407 132 b 513 89 501 132 513 122 l 513 25 b 468 -19 513 -8 501 -18 b 222 42 351 -24 269 -3 b 150 286 174 86 150 168 l 150 571 l 54 571 b 13 614 22 571 13 582 l 13 678 b 54 719 13 710 22 719 l 150 719 l 150 844 b 193 886 150 876 161 886 "},"u":{"ha":768,"x_min":0,"x_max":0,"o":"m 647 719 b 690 678 679 719 690 710 l 690 106 b 636 28 690 61 681 46 b 364 -21 554 -4 464 -21 b 74 258 169 -21 74 79 l 74 678 b 117 719 74 710 85 719 l 193 719 b 235 678 225 719 235 710 l 235 264 b 386 126 235 172 285 126 b 514 143 435 126 476 132 b 529 167 524 147 529 154 l 529 678 b 572 719 529 710 540 719 "},"v":{"ha":715,"x_min":0,"x_max":0,"o":"m 667 719 b 703 671 710 719 718 710 l 446 38 b 388 -1 436 11 417 -1 l 342 -1 b 283 38 313 -1 293 11 l 28 669 b 63 719 13 710 19 719 l 117 719 b 193 676 168 719 182 711 l 322 343 b 360 206 342 292 353 231 l 361 194 l 368 194 b 406 342 368 194 386 282 l 533 676 b 611 719 549 711 560 719 "},"w":{"ha":1021,"x_min":0,"x_max":0,"o":"m 961 719 b 997 669 1001 719 1008 710 l 811 38 b 753 -1 804 11 785 -1 l 706 -1 b 646 38 674 -1 654 11 l 544 393 b 522 514 533 432 526 482 l 519 536 l 513 536 l 510 514 b 486 393 506 482 497 432 l 385 38 b 326 -1 378 11 358 -1 l 281 -1 b 222 38 249 -1 229 11 l 38 669 b 72 719 25 710 32 719 l 126 719 b 203 676 181 719 196 711 l 282 365 b 306 196 293 313 306 196 l 313 196 b 342 367 313 204 325 301 l 433 671 b 504 715 444 710 454 715 l 536 715 b 607 672 586 715 596 710 l 700 367 b 729 196 719 296 729 204 l 738 196 l 740 222 b 761 367 742 260 750 321 l 838 676 b 915 719 844 711 861 719 "},"x":{"ha":706,"x_min":0,"x_max":0,"o":"m 646 719 b 675 669 688 719 697 703 l 467 371 l 689 50 b 658 0 713 17 703 0 l 592 0 b 514 36 546 0 535 4 l 364 254 l 221 36 b 143 0 200 4 189 0 l 78 0 b 46 50 28 0 19 17 l 268 369 l 56 669 b 89 719 32 703 43 719 l 151 719 b 231 683 200 719 213 713 l 368 488 l 503 683 b 578 719 524 715 532 719 "},"y":{"ha":771,"x_min":0,"x_max":0,"o":"m 654 719 b 697 678 686 719 697 710 l 697 -24 b 392 -326 697 -214 601 -326 b 103 -193 254 -326 157 -282 b 121 -124 83 -162 89 -139 l 174 -94 b 243 -111 207 -78 222 -82 b 389 -182 272 -158 321 -182 b 536 -32 488 -182 536 -132 l 536 33 b 371 14 479 21 424 14 b 81 293 176 14 81 114 l 81 678 b 124 719 81 710 92 719 l 200 719 b 242 678 232 719 242 710 l 242 299 b 393 161 242 207 292 161 b 536 181 439 161 486 168 l 536 678 b 579 719 536 710 547 719 "},"z":{"ha":654,"x_min":0,"x_max":0,"o":"m 571 146 b 613 103 603 146 613 135 l 613 43 b 571 0 613 11 603 0 l 85 0 b 42 43 53 0 42 11 l 42 103 b 57 146 42 121 47 135 l 397 574 l 92 574 b 49 617 60 574 49 585 l 49 678 b 92 719 49 710 60 719 l 564 719 b 606 678 596 719 606 710 l 606 617 b 590 571 606 599 600 583 l 247 146 "},"{":{"ha":483,"x_min":0,"x_max":0,"o":"m 414 1189 b 457 1146 446 1189 457 1178 l 457 1086 b 414 1043 457 1054 446 1043 l 349 1043 b 303 994 318 1043 303 1026 l 303 665 b 204 489 303 586 269 528 b 303 314 269 463 303 404 l 303 -10 b 349 -58 303 -42 318 -58 l 414 -58 b 457 -101 446 -58 457 -69 l 457 -161 b 414 -204 457 -193 446 -204 l 344 -204 b 150 -19 201 -204 150 -151 l 150 290 b 58 407 150 368 119 407 l 49 407 b 14 450 22 407 14 418 l 14 529 b 47 571 14 557 25 571 l 58 571 b 150 688 119 571 150 610 l 150 1003 b 343 1189 150 1132 203 1189 "},"|":{"ha":326,"x_min":0,"x_max":0,"o":"m 197 1189 b 240 1146 229 1189 240 1178 l 240 -161 b 197 -204 240 -193 229 -204 l 129 -204 b 86 -161 97 -204 86 -193 l 86 1146 b 129 1189 86 1178 97 1189 "},"}":{"ha":483,"x_min":0,"x_max":0,"o":"m 142 1189 b 333 1003 281 1189 333 1132 l 333 688 b 425 571 333 610 364 571 l 436 571 b 471 529 460 571 471 557 l 471 450 b 435 407 471 421 458 407 l 425 407 b 333 290 364 407 333 368 l 333 -19 b 139 -204 333 -151 282 -204 l 69 -204 b 28 -161 38 -204 28 -193 l 28 -101 b 69 -58 28 -69 38 -58 l 135 -58 b 182 -10 167 -58 182 -42 l 182 314 b 279 489 182 406 214 464 b 182 665 214 526 182 586 l 182 994 b 135 1043 182 1026 167 1043 l 69 1043 b 28 1086 38 1043 28 1054 l 28 1146 b 69 1189 28 1178 38 1189 "},"~":{"ha":772,"x_min":0,"x_max":0,"o":"m 131 482 b 301 549 179 526 236 549 b 426 525 340 549 382 540 b 526 501 471 510 504 501 b 611 533 557 501 585 513 b 674 531 639 556 650 554 l 717 490 b 717 424 740 467 740 444 b 546 356 667 378 610 356 b 421 381 507 356 465 364 b 321 404 376 396 343 404 b 236 372 290 404 263 393 b 175 374 208 349 199 350 l 131 415 b 131 482 106 439 106 461 "},"¡":{"ha":322,"x_min":0,"x_max":0,"o":"m 156 539 b 67 628 89 539 67 561 l 67 640 b 156 729 67 708 89 729 l 165 729 b 254 640 233 729 254 708 l 254 628 b 165 539 254 561 233 539 m 121 -308 b 79 -267 89 -308 78 -299 l 97 393 b 139 436 97 425 107 436 l 183 436 b 226 393 215 436 225 425 l 244 -267 b 203 -308 246 -299 235 -308 "},"¢":{"ha":744,"x_min":0,"x_max":0,"o":"m 654 226 b 685 164 686 214 697 193 b 463 -12 646 67 572 8 l 463 -74 b 421 -117 463 -106 453 -117 l 344 -117 b 301 -74 313 -117 301 -106 l 301 -15 b 67 264 144 7 67 100 l 67 456 b 301 733 67 610 146 710 l 301 804 b 344 847 301 836 313 847 l 421 847 b 463 804 453 847 463 836 l 463 733 b 683 558 578 715 651 657 b 654 496 694 524 686 508 l 592 476 b 531 506 558 464 543 472 b 381 599 507 568 457 599 b 228 463 279 599 228 553 l 228 257 b 381 121 228 169 281 121 b 531 217 457 121 507 153 b 593 244 543 250 558 256 "},"£":{"ha":897,"x_min":0,"x_max":0,"o":"m 171 715 b 257 922 171 797 200 865 b 493 1007 314 979 393 1007 b 836 796 667 1007 781 936 b 807 735 849 763 840 747 l 731 708 b 671 738 697 697 688 703 b 500 844 633 814 585 844 b 353 708 410 844 353 786 l 353 544 l 657 544 b 704 497 692 544 704 532 l 704 442 b 657 393 704 407 692 393 l 353 393 l 353 297 b 283 153 353 232 329 183 l 283 144 b 499 163 353 157 425 163 l 782 163 b 829 115 817 163 829 150 l 829 47 b 782 0 829 13 817 0 l 103 0 b 57 47 68 0 57 13 l 57 117 b 83 156 57 143 65 156 l 93 156 b 171 296 144 171 171 217 l 171 393 l 108 393 b 61 442 74 393 61 407 l 61 497 b 108 544 61 532 74 544 l 171 544 "},"¤":{"ha":851,"x_min":0,"x_max":0,"o":"m 779 243 b 779 182 800 222 800 203 l 725 129 b 665 129 703 107 688 107 l 597 197 b 440 153 551 168 499 153 b 282 196 383 153 331 167 l 214 128 b 154 128 193 107 174 107 l 100 182 b 100 242 79 201 79 221 l 169 311 b 125 468 140 360 125 413 b 169 624 125 525 140 576 l 100 693 b 100 754 78 715 78 731 l 153 807 b 214 807 176 829 192 829 l 282 739 b 440 783 332 768 385 783 b 596 739 499 783 550 768 l 664 807 b 725 807 688 829 703 829 l 778 754 b 778 693 799 735 799 714 l 711 626 b 756 468 740 581 756 528 b 713 310 756 410 742 357 m 440 638 b 269 468 346 638 271 564 b 321 347 271 421 288 381 b 440 297 353 314 393 297 b 563 347 489 297 529 314 b 611 468 594 381 611 421 b 440 638 611 564 536 638 "},"¥":{"ha":911,"x_min":0,"x_max":0,"o":"m 850 986 b 874 939 882 986 890 965 l 610 515 l 718 515 b 760 474 750 515 760 506 l 760 432 b 718 390 760 400 750 390 l 547 390 l 547 310 l 718 310 b 760 268 750 310 760 300 l 760 226 b 718 185 760 194 750 185 l 549 185 l 549 47 b 500 0 549 13 535 0 l 421 0 b 374 47 386 0 374 13 l 374 185 l 203 185 b 161 226 171 185 161 194 l 161 268 b 203 310 161 300 174 310 l 374 310 l 374 390 l 203 390 b 161 432 174 390 161 400 l 161 474 b 203 515 161 506 174 515 l 313 515 l 49 939 b 72 986 32 965 40 986 l 158 986 b 250 944 218 986 229 983 l 465 574 l 679 944 b 771 986 700 983 711 986 "},"¦":{"ha":338,"x_min":0,"x_max":0,"o":"m 203 1189 b 246 1146 235 1189 246 1178 l 246 642 b 203 599 246 610 235 599 l 135 599 b 92 642 103 599 92 610 l 92 1146 b 135 1189 92 1178 103 1189 m 203 388 b 246 344 235 388 246 376 l 246 -160 b 203 -203 246 -192 235 -203 l 135 -203 b 92 -160 103 -203 92 -192 l 92 344 b 135 388 92 376 103 388 "},"§":{"ha":843,"x_min":0,"x_max":0,"o":"m 96 728 b 440 1008 96 896 217 1008 b 774 807 603 1008 714 942 b 746 739 790 774 783 756 l 678 708 b 613 733 646 693 631 700 b 440 843 581 807 522 843 b 274 728 329 843 274 804 b 361 638 274 678 318 647 b 454 621 382 632 414 626 b 660 571 553 606 622 589 b 785 363 743 531 785 461 b 693 181 785 289 754 229 b 793 -25 760 140 793 72 b 435 -304 793 -193 664 -304 b 81 -89 257 -304 131 -228 b 113 -25 71 -57 81 -35 l 182 0 b 247 -31 217 13 232 4 b 435 -142 274 -104 336 -142 b 619 -26 558 -142 619 -103 b 532 63 619 24 575 53 b 439 76 511 67 479 72 b 219 117 333 88 260 101 b 81 329 126 154 81 225 b 196 525 81 411 119 476 b 96 728 129 567 96 635 m 417 457 b 339 469 367 464 340 468 b 258 353 285 442 258 403 b 321 264 258 308 276 279 b 461 238 365 247 393 243 b 496 235 464 238 475 236 b 540 229 515 233 531 231 b 611 346 588 258 611 297 b 551 428 611 385 593 411 b 417 457 510 443 482 447 "},"¨":{"ha":610,"x_min":0,"x_max":0,"o":"m 167 985 b 240 913 222 985 240 967 l 240 900 b 167 828 240 846 222 828 l 157 828 b 85 900 101 828 85 846 l 85 913 b 157 985 85 967 101 985 m 444 985 b 518 913 500 985 518 967 l 518 900 b 444 828 518 846 500 828 l 436 828 b 363 900 381 828 363 846 l 363 913 b 436 985 363 967 381 985 "},"©":{"ha":1110,"x_min":0,"x_max":0,"o":"m 57 488 b 203 842 57 628 106 746 b 557 986 299 938 417 986 b 910 842 696 986 814 938 b 1053 488 1006 746 1053 628 b 910 133 1053 347 1006 229 b 557 -11 814 38 696 -11 b 203 135 417 -11 299 38 b 57 488 106 231 57 349 m 831 211 b 942 488 904 286 942 378 b 831 764 942 597 904 689 b 557 875 757 838 665 875 b 281 764 447 875 354 838 b 168 488 206 690 168 597 b 281 211 168 378 206 286 b 557 99 354 136 447 99 b 831 211 665 99 757 136 m 344 558 b 554 751 344 679 421 751 b 754 626 658 751 725 710 b 733 582 764 600 760 592 l 696 568 b 653 590 672 558 660 564 b 554 647 638 633 611 647 b 453 560 486 647 453 618 l 453 411 b 554 321 453 351 486 321 b 653 381 606 321 639 340 b 697 403 663 404 676 411 l 733 389 b 756 344 757 379 764 365 b 554 218 724 260 656 218 b 344 411 421 218 344 290 "},"ª":{"ha":500,"x_min":0,"x_max":0,"o":"m 81 856 b 250 931 117 906 174 931 b 428 758 368 931 428 874 l 428 581 b 385 514 428 542 418 529 b 246 493 353 500 306 493 b 65 622 113 493 65 539 b 249 753 65 710 114 753 b 304 750 269 753 288 751 l 304 769 b 247 828 304 810 290 828 b 176 793 225 828 201 817 b 135 786 164 783 150 782 l 101 804 b 81 856 69 819 64 832 m 304 663 b 242 665 282 664 261 665 b 185 626 204 665 185 653 b 240 588 185 597 200 588 b 296 592 269 588 288 589 b 304 606 301 596 304 600 "},"«":{"ha":819,"x_min":0,"x_max":0,"o":"m 414 185 b 414 131 432 167 432 149 l 364 79 b 310 79 346 63 328 63 l 51 338 b 51 392 31 358 31 371 l 315 657 b 369 657 335 675 353 675 l 417 608 b 417 556 438 588 438 576 l 231 368 m 743 185 b 743 131 761 167 761 149 l 692 79 b 639 79 672 63 654 63 l 381 338 b 381 392 363 356 363 374 l 644 657 b 699 657 663 675 681 675 l 746 608 b 746 556 764 588 764 576 l 558 368 "},"¬":{"ha":817,"x_min":0,"x_max":0,"o":"m 689 571 b 732 528 722 571 732 560 l 732 236 b 689 193 732 204 722 193 l 615 193 b 572 236 583 193 572 204 l 572 419 l 115 419 b 72 463 82 419 72 431 l 72 528 b 115 571 72 560 82 571 "},"®":{"ha":650,"x_min":0,"x_max":0,"o":"m 136 526 b 56 717 82 579 56 643 b 136 907 56 790 82 854 b 326 986 189 960 253 986 b 515 907 400 986 463 960 b 594 717 568 854 594 790 b 517 526 594 643 568 579 b 326 447 464 474 400 447 b 136 526 253 447 189 474 m 185 858 b 126 717 146 819 126 772 b 185 575 126 661 146 614 b 328 515 224 535 271 515 b 468 575 382 515 429 535 b 526 717 507 614 526 661 b 468 858 526 772 507 819 b 328 917 429 897 382 917 b 185 858 271 917 224 897 m 353 851 b 449 760 410 851 449 817 b 393 678 449 717 431 690 l 438 606 b 425 582 449 590 444 582 l 394 582 b 367 596 382 582 372 586 l 324 671 l 283 671 l 283 597 b 267 582 283 585 279 582 l 238 582 b 221 597 226 582 221 588 l 221 835 b 239 851 221 850 224 851 m 283 728 l 349 728 b 382 760 371 728 382 739 b 349 792 382 781 371 792 l 283 792 "},"¯":{"ha":489,"x_min":0,"x_max":0,"o":"m 407 968 b 447 928 439 968 447 960 l 447 892 b 407 851 447 860 439 851 l 85 851 b 44 892 53 851 44 860 l 44 928 b 85 968 44 960 56 968 "},"°":{"ha":551,"x_min":0,"x_max":0,"o":"m 503 771 b 436 611 503 710 481 657 b 276 543 390 565 338 543 b 115 610 214 543 160 565 b 49 771 71 654 49 708 b 115 932 49 835 71 889 b 276 997 158 975 213 997 b 438 932 339 997 393 975 b 503 771 481 889 503 835 m 176 769 b 276 671 176 715 221 671 b 376 769 331 671 376 715 b 276 871 376 825 332 871 b 176 769 221 871 176 825 "},"±":{"ha":826,"x_min":0,"x_max":0,"o":"m 694 618 b 742 571 729 618 742 606 l 742 528 b 694 481 742 493 729 481 l 486 481 l 486 372 b 439 325 486 338 474 325 l 388 325 b 340 372 353 325 340 338 l 340 481 l 133 481 b 86 528 96 481 86 490 l 86 571 b 133 618 86 606 99 618 l 340 618 l 340 732 b 388 779 340 767 353 779 l 439 779 b 486 732 474 779 486 767 l 486 618 m 694 279 b 742 232 729 279 742 267 l 742 189 b 694 142 742 154 729 142 l 133 142 b 86 189 96 142 86 151 l 86 232 b 133 279 86 267 99 279 "},"²":{"ha":506,"x_min":0,"x_max":0,"o":"m 65 1001 b 272 1138 101 1092 171 1138 b 469 958 396 1138 469 1063 b 317 772 469 857 429 810 l 242 750 b 192 713 208 740 192 728 l 192 701 l 421 701 b 461 660 447 701 461 688 l 461 618 b 421 578 461 589 450 578 l 104 578 b 61 618 72 578 61 589 l 61 661 b 178 844 61 761 89 810 l 254 874 b 331 953 310 896 324 900 b 269 1008 331 986 308 1008 b 194 957 238 1008 213 992 b 133 926 178 922 171 915 l 96 942 b 65 1001 64 953 54 972 "},"³":{"ha":511,"x_min":0,"x_max":0,"o":"m 63 1000 b 276 1138 94 1092 165 1138 b 467 979 397 1138 467 1078 b 407 865 467 922 451 892 b 483 724 458 839 483 792 b 276 567 483 624 414 567 b 61 700 164 567 93 611 b 83 760 50 731 57 750 l 122 772 b 183 743 154 783 168 778 b 276 688 196 706 228 688 b 350 740 325 688 350 706 b 294 793 350 775 332 793 l 242 793 b 200 835 207 793 200 800 l 200 869 b 246 915 200 910 206 915 l 286 915 b 340 964 322 915 340 932 b 279 1017 340 999 319 1017 b 188 961 232 1017 201 999 b 117 929 172 922 160 914 l 92 939 b 63 1000 60 951 51 967 "},"´":{"ha":357,"x_min":0,"x_max":0,"o":"m 235 1014 b 314 1011 269 1033 296 1032 l 349 968 b 343 919 369 944 371 931 l 101 818 b 47 821 75 808 57 808 l 28 846 b 31 892 10 869 8 879 "},"µ":{"ha":776,"x_min":0,"x_max":0,"o":"m 656 719 b 697 678 688 719 697 710 l 697 106 b 644 28 697 61 688 46 b 408 -21 565 -4 486 -21 b 243 29 335 -21 279 -4 l 243 -262 b 200 -306 243 -294 232 -306 l 124 -306 b 82 -262 92 -306 82 -294 l 82 678 b 125 719 82 710 92 719 l 200 719 b 243 678 232 719 243 710 l 243 263 b 394 126 243 172 293 126 b 522 144 440 126 483 132 b 536 165 532 146 536 153 l 536 678 b 579 719 536 710 547 719 "},"¶":{"ha":796,"x_min":0,"x_max":0,"o":"m 660 986 b 703 943 692 986 703 975 l 703 -81 b 660 -124 703 -112 692 -124 l 596 -124 b 553 -81 564 -124 553 -112 l 553 825 l 474 825 l 474 -81 b 431 -124 474 -112 463 -124 l 367 -124 b 324 -81 335 -124 324 -112 l 324 408 b 122 490 240 410 174 438 b 44 696 71 543 44 611 b 125 907 44 783 71 853 b 333 986 178 960 247 986 "},"·":{"ha":350,"x_min":0,"x_max":0,"o":"m 179 490 b 269 401 247 490 269 468 l 269 389 b 179 300 269 321 247 300 l 169 300 b 81 389 103 300 81 321 l 81 401 b 169 490 81 468 103 490 "},"¸":{"ha":349,"x_min":0,"x_max":0,"o":"m 201 -81 b 219 -79 206 -79 213 -79 b 336 -204 293 -79 343 -133 b 150 -340 328 -294 265 -340 b 49 -322 106 -340 72 -335 b 25 -283 33 -315 25 -301 l 24 -242 b 46 -225 24 -224 31 -218 b 129 -247 74 -240 101 -247 b 197 -197 175 -247 197 -231 b 138 -157 197 -171 178 -158 b 104 -158 122 -157 111 -157 b 85 -125 81 -160 75 -149 l 138 0 l 232 0 "},"¹":{"ha":396,"x_min":0,"x_max":0,"o":"m 282 1126 b 331 1079 317 1126 331 1114 l 331 625 b 282 578 331 590 319 578 l 242 578 b 194 625 207 578 194 588 l 194 956 l 117 913 b 49 929 88 897 65 903 l 31 961 b 51 1026 14 996 19 1008 l 201 1113 b 257 1126 217 1122 235 1126 "},"º":{"ha":506,"x_min":0,"x_max":0,"o":"m 64 761 b 253 931 64 867 131 931 b 442 761 375 931 442 867 l 442 663 b 253 494 442 557 375 494 b 64 663 131 494 64 557 m 314 767 b 253 818 314 801 293 818 b 192 767 213 818 192 801 l 192 658 b 253 607 192 624 213 607 b 314 658 293 607 314 624 "},"»":{"ha":819,"x_min":0,"x_max":0,"o":"m 411 556 b 411 608 390 576 390 588 l 458 657 b 511 657 476 678 493 678 l 776 392 b 776 338 792 374 792 356 l 518 79 b 464 79 500 63 482 63 l 413 131 b 413 185 394 149 394 167 l 596 368 m 82 556 b 82 608 61 576 61 588 l 129 657 b 183 657 147 675 165 675 l 447 392 b 447 338 465 371 465 358 l 189 79 b 135 79 171 61 153 61 l 85 131 b 85 185 67 149 67 167 l 268 368 "},"¼":{"ha":1115,"x_min":0,"x_max":0,"o":"m 978 986 b 1000 940 1010 986 1018 964 l 340 42 b 247 0 313 4 303 0 l 192 0 b 168 47 158 0 150 21 l 831 947 b 917 986 857 981 867 986 m 321 985 b 368 938 356 985 368 972 l 368 483 b 321 436 368 446 356 436 l 281 436 b 232 483 243 436 232 449 l 232 815 l 154 771 b 88 788 126 756 104 761 l 68 821 b 89 885 53 847 60 869 l 239 971 b 294 985 254 981 272 985 m 985 549 b 1025 507 1019 549 1025 544 l 1025 228 l 1051 228 b 1092 192 1085 228 1092 221 l 1092 153 b 1051 115 1092 121 1086 115 l 1025 115 l 1025 39 b 988 0 1025 7 1017 0 l 935 0 b 897 39 906 0 897 7 l 897 115 l 663 115 b 622 157 631 115 622 124 l 622 190 b 635 233 622 208 626 224 l 871 525 b 926 549 888 546 897 549 m 774 228 l 897 228 l 897 381 "},"½":{"ha":1161,"x_min":0,"x_max":0,"o":"m 321 994 b 368 947 356 994 368 982 l 368 492 b 321 444 368 457 356 444 l 279 444 b 232 492 244 444 232 457 l 232 824 l 154 781 b 88 797 126 765 104 771 l 68 829 b 89 894 53 856 60 876 l 239 981 b 294 994 254 990 272 994 m 965 986 b 989 940 997 986 1006 964 l 328 42 b 235 0 300 4 290 0 l 181 0 b 157 47 147 0 139 21 l 818 947 b 904 986 844 981 854 986 m 725 425 b 932 560 761 515 831 560 b 1129 381 1056 560 1129 485 b 978 196 1129 279 1089 231 l 901 174 b 851 136 868 164 851 151 l 851 124 l 1081 124 b 1121 82 1110 124 1121 111 l 1121 40 b 1081 0 1121 14 1107 0 l 764 0 b 721 42 732 0 721 10 l 721 83 b 838 267 721 183 749 232 l 914 297 b 990 375 971 318 990 331 b 929 432 990 408 968 432 b 854 379 896 432 871 414 b 794 350 838 344 829 339 l 756 364 b 725 425 724 375 714 396 "},"¾":{"ha":1158,"x_min":0,"x_max":0,"o":"m 64 868 b 278 1006 96 960 167 1006 b 468 849 399 1006 468 944 b 408 733 468 792 453 760 b 483 593 458 708 483 661 b 278 435 483 493 415 435 b 63 568 165 435 94 479 b 85 628 51 606 57 618 l 124 642 b 183 613 156 653 171 646 b 278 557 199 574 221 557 b 350 608 326 557 350 574 b 296 663 350 644 332 663 l 243 663 b 201 704 208 663 201 669 l 201 739 b 246 783 201 779 206 783 l 288 783 b 342 833 324 783 342 800 b 281 886 342 868 321 886 b 189 831 233 886 203 868 b 118 799 174 792 161 783 l 92 808 b 64 868 63 819 53 839 m 1014 986 b 1036 940 1046 986 1053 964 l 375 42 b 282 0 349 4 338 0 l 228 0 b 204 47 194 0 186 21 l 865 947 b 953 986 892 981 901 986 m 1021 549 b 1061 507 1056 549 1061 542 l 1061 228 l 1088 228 b 1128 192 1121 228 1128 221 l 1128 153 b 1088 115 1128 121 1122 115 l 1061 115 l 1061 39 b 1024 0 1061 7 1053 0 l 971 0 b 933 39 942 0 933 7 l 933 115 l 699 115 b 658 157 667 115 658 124 l 658 190 b 671 233 658 208 663 224 l 907 525 b 963 549 924 546 933 549 m 933 228 l 933 381 l 810 228 "},"¿":{"ha":783,"x_min":0,"x_max":0,"o":"m 421 538 b 332 626 354 538 332 560 l 332 639 b 421 728 332 707 354 728 l 431 728 b 519 639 499 728 519 707 l 519 626 b 431 538 519 560 499 538 m 744 -79 b 382 -308 683 -232 563 -308 b 133 -226 278 -308 194 -281 b 40 -21 71 -172 40 -103 b 63 110 40 29 50 76 b 119 194 74 142 101 176 b 194 253 136 213 176 242 b 268 296 211 263 256 289 b 354 417 324 333 354 363 b 400 461 354 450 367 461 l 454 461 b 500 417 488 461 500 450 b 365 185 500 299 453 242 b 315 154 360 181 322 158 b 293 139 311 151 304 146 b 253 100 271 122 268 117 b 213 -14 226 74 213 35 b 386 -156 213 -99 275 -156 b 588 -25 493 -156 550 -112 b 649 4 603 10 615 17 l 715 -19 b 744 -79 749 -31 757 -46 "},"À":{"ha":914,"x_min":0,"x_max":0,"o":"m 353 1250 b 431 1253 371 1272 396 1274 l 636 1132 b 639 1086 658 1119 657 1110 l 619 1061 b 565 1058 610 1049 592 1049 l 324 1158 b 317 1207 300 1168 297 1183 m 915 46 b 883 0 926 15 915 0 l 811 0 b 725 42 754 0 736 8 l 661 221 l 278 221 l 213 42 b 126 0 201 8 183 0 l 63 0 b 31 46 31 0 19 15 l 378 949 b 436 988 390 981 403 988 l 510 988 b 568 950 543 988 557 979 m 507 657 b 475 803 490 707 479 771 l 474 826 l 464 826 b 433 658 464 774 454 718 l 326 364 l 613 364 "},"Á":{"ha":914,"x_min":0,"x_max":0,"o":"m 519 1256 b 599 1253 554 1275 581 1274 l 635 1208 b 628 1161 656 1185 656 1172 l 386 1060 b 333 1061 360 1050 342 1050 l 313 1088 b 315 1132 296 1108 297 1122 m 915 46 b 883 0 926 15 915 0 l 811 0 b 725 42 754 0 736 8 l 661 221 l 278 221 l 213 42 b 126 0 201 8 183 0 l 63 0 b 31 46 31 0 19 15 l 378 949 b 436 988 390 981 403 988 l 510 988 b 568 950 543 988 557 979 m 507 657 b 475 803 490 707 479 771 l 474 826 l 464 826 b 433 658 464 774 454 718 l 326 364 l 613 364 "},"Â":{"ha":914,"x_min":0,"x_max":0,"o":"m 486 1263 b 563 1225 519 1263 529 1260 l 704 1089 b 683 1054 722 1071 717 1054 l 621 1054 b 553 1079 590 1054 568 1063 l 474 1158 l 389 1079 b 324 1054 368 1057 361 1054 l 265 1054 b 246 1089 232 1054 228 1071 l 386 1225 b 469 1263 419 1258 429 1263 m 915 46 b 883 0 926 15 915 0 l 811 0 b 725 42 754 0 736 8 l 661 221 l 278 221 l 213 42 b 126 0 201 8 183 0 l 63 0 b 31 46 31 0 19 15 l 378 949 b 436 988 390 981 403 988 l 510 988 b 568 950 543 988 557 979 m 507 657 b 475 803 490 707 479 771 l 474 826 l 464 826 b 433 658 464 774 454 718 l 326 364 l 613 364 "},"Ã":{"ha":914,"x_min":0,"x_max":0,"o":"m 653 1243 b 681 1217 671 1243 681 1235 b 563 1063 681 1106 644 1063 b 463 1103 531 1063 497 1076 b 383 1142 428 1129 401 1142 b 350 1089 361 1142 350 1124 b 325 1063 350 1071 342 1063 l 279 1063 b 253 1089 261 1063 253 1071 b 368 1243 253 1200 290 1243 b 474 1204 403 1243 439 1231 b 551 1164 508 1178 535 1164 b 583 1217 572 1164 583 1182 b 610 1243 583 1235 592 1243 m 915 46 b 883 0 926 15 915 0 l 811 0 b 725 42 754 0 736 8 l 661 221 l 278 221 l 213 42 b 126 0 201 8 183 0 l 63 0 b 31 46 31 0 19 15 l 378 949 b 436 988 390 981 403 988 l 510 988 b 568 950 543 988 557 979 m 507 657 b 475 803 490 707 479 771 l 474 826 l 464 826 b 433 658 464 774 454 718 l 326 364 l 613 364 "},"Ä":{"ha":914,"x_min":0,"x_max":0,"o":"m 339 1233 b 413 1161 394 1233 413 1215 l 413 1147 b 339 1075 413 1093 394 1075 l 329 1075 b 257 1147 274 1075 257 1093 l 257 1161 b 329 1233 257 1215 274 1233 m 617 1233 b 689 1161 672 1233 689 1215 l 689 1147 b 617 1075 689 1093 672 1075 l 607 1075 b 533 1147 551 1075 533 1093 l 533 1161 b 607 1233 533 1215 551 1233 m 915 46 b 883 0 926 15 915 0 l 811 0 b 725 42 754 0 736 8 l 661 221 l 278 221 l 213 42 b 126 0 201 8 183 0 l 63 0 b 31 46 31 0 19 15 l 378 949 b 436 988 390 981 403 988 l 510 988 b 568 950 543 988 557 979 m 507 657 b 475 803 490 707 479 771 l 474 826 l 464 826 b 433 658 464 774 454 718 l 326 364 l 613 364 "},"Å":{"ha":914,"x_min":0,"x_max":0,"o":"m 303 1063 b 476 1232 303 1163 375 1232 b 644 1063 575 1232 644 1163 b 576 929 644 1001 622 957 l 915 46 b 883 0 926 15 915 0 l 811 0 b 725 42 754 0 736 8 l 661 221 l 278 221 l 213 42 b 126 0 201 8 183 0 l 63 0 b 31 46 31 0 19 15 l 371 932 b 303 1063 325 961 303 1004 m 549 1063 b 476 1136 549 1107 519 1136 b 399 1063 431 1136 399 1107 b 476 990 399 1019 431 990 b 549 1063 519 990 549 1019 m 507 657 b 475 803 490 707 479 771 l 474 826 l 464 826 b 433 658 464 774 454 718 l 326 364 l 613 364 "},"Æ":{"ha":1192,"x_min":0,"x_max":0,"o":"m 1117 163 b 1164 115 1151 163 1164 150 l 1164 47 b 1117 0 1164 13 1151 0 l 647 0 b 600 47 613 0 600 13 l 600 207 l 308 207 l 208 42 b 121 0 190 10 176 0 l 47 0 b 15 46 15 0 4 15 l 582 947 b 640 986 603 979 611 986 l 1101 986 b 1149 939 1136 986 1149 974 l 1149 871 b 1101 824 1149 836 1136 824 l 768 824 l 768 581 l 1035 581 b 1082 533 1069 581 1082 568 l 1082 465 b 1035 418 1082 431 1069 418 l 768 418 l 768 163 m 600 693 l 393 350 l 600 350 "},"Ç":{"ha":889,"x_min":0,"x_max":0,"o":"m 814 274 b 844 213 844 263 854 242 b 506 -19 793 68 679 -10 l 482 -81 b 500 -79 486 -79 492 -79 b 617 -204 572 -79 624 -133 b 431 -340 607 -294 546 -340 b 329 -322 386 -340 353 -335 b 306 -283 314 -315 306 -303 l 304 -242 b 326 -225 304 -224 311 -218 b 410 -247 354 -240 382 -247 b 478 -197 456 -247 478 -231 b 418 -157 478 -171 458 -158 b 383 -158 403 -157 390 -157 b 365 -125 360 -160 354 -149 l 410 -18 b 68 342 192 0 68 132 l 68 646 b 465 1007 68 869 211 1007 b 843 775 663 1007 789 929 b 814 714 854 746 844 725 l 738 688 b 678 717 704 676 690 683 b 465 844 647 801 576 844 b 243 647 322 844 243 775 l 243 340 b 465 142 243 213 322 142 b 678 271 575 142 646 185 b 739 300 693 306 706 313 "},"È":{"ha":804,"x_min":0,"x_max":0,"o":"m 300 1250 b 379 1253 318 1271 344 1272 l 585 1132 b 586 1086 606 1119 604 1110 l 567 1061 b 514 1058 558 1049 540 1049 l 271 1158 b 265 1207 243 1169 244 1183 m 696 986 b 744 939 731 986 744 974 l 744 871 b 696 824 744 836 731 824 l 271 824 l 271 581 l 631 581 b 678 533 665 581 678 568 l 678 465 b 631 418 678 431 665 418 l 271 418 l 271 163 l 711 163 b 758 115 746 163 758 150 l 758 47 b 711 0 758 13 746 0 l 144 0 b 96 47 110 0 96 13 l 96 939 b 144 986 96 974 110 986 "},"É":{"ha":804,"x_min":0,"x_max":0,"o":"m 468 1256 b 547 1253 503 1274 529 1274 l 582 1208 b 576 1161 603 1185 603 1172 l 335 1060 b 281 1061 308 1050 290 1050 l 261 1088 b 264 1132 244 1108 246 1122 m 696 986 b 744 939 731 986 744 974 l 744 871 b 696 824 744 836 731 824 l 271 824 l 271 581 l 631 581 b 678 533 665 581 678 568 l 678 465 b 631 418 678 431 665 418 l 271 418 l 271 163 l 711 163 b 758 115 746 163 758 150 l 758 47 b 711 0 758 13 746 0 l 144 0 b 96 47 110 0 96 13 l 96 939 b 144 986 96 974 110 986 "},"Ê":{"ha":804,"x_min":0,"x_max":0,"o":"m 433 1263 b 511 1225 468 1263 476 1260 l 651 1089 b 632 1054 669 1071 665 1054 l 569 1054 b 501 1079 538 1054 515 1063 l 421 1158 l 338 1079 b 271 1054 315 1057 308 1054 l 214 1054 b 193 1089 181 1054 175 1071 l 335 1225 b 417 1263 368 1258 376 1263 m 696 986 b 744 939 731 986 744 974 l 744 871 b 696 824 744 836 731 824 l 271 824 l 271 581 l 631 581 b 678 533 665 581 678 568 l 678 465 b 631 418 678 431 665 418 l 271 418 l 271 163 l 711 163 b 758 115 746 163 758 150 l 758 47 b 711 0 758 13 746 0 l 144 0 b 96 47 110 0 96 13 l 96 939 b 144 986 96 974 110 986 "},"Ë":{"ha":804,"x_min":0,"x_max":0,"o":"m 286 1233 b 360 1161 342 1233 360 1215 l 360 1147 b 286 1075 360 1093 342 1075 l 276 1075 b 204 1147 222 1075 204 1093 l 204 1161 b 276 1233 204 1215 222 1233 m 565 1233 b 638 1161 619 1233 638 1215 l 638 1147 b 565 1075 638 1093 619 1075 l 556 1075 b 482 1147 500 1075 482 1093 l 482 1161 b 556 1233 482 1215 500 1233 m 696 986 b 744 939 731 986 744 974 l 744 871 b 696 824 744 836 731 824 l 271 824 l 271 581 l 631 581 b 678 533 665 581 678 568 l 678 465 b 631 418 678 431 665 418 l 271 418 l 271 163 l 711 163 b 758 115 746 163 758 150 l 758 47 b 711 0 758 13 746 0 l 144 0 b 96 47 110 0 96 13 l 96 939 b 144 986 96 974 110 986 "},"Ì":{"ha":367,"x_min":0,"x_max":0,"o":"m 64 1250 b 143 1253 82 1271 108 1272 l 347 1132 b 350 1086 369 1119 368 1110 l 331 1061 b 276 1058 321 1049 303 1049 l 35 1158 b 28 1207 7 1169 7 1183 m 97 939 b 144 986 97 974 110 986 l 224 986 b 271 939 258 986 271 974 l 271 47 b 224 0 271 13 258 0 l 144 0 b 97 47 110 0 97 13 "},"Í":{"ha":367,"x_min":0,"x_max":0,"o":"m 256 1256 b 335 1253 290 1275 317 1274 l 371 1208 b 364 1161 392 1185 392 1172 l 122 1060 b 68 1061 96 1050 78 1050 l 49 1088 b 51 1132 32 1108 33 1122 m 121 939 b 169 986 121 974 135 986 l 249 986 b 296 939 283 986 296 974 l 296 47 b 249 0 296 13 283 0 l 169 0 b 121 47 135 0 121 13 "},"Î":{"ha":367,"x_min":0,"x_max":0,"o":"m 201 1263 b 278 1225 235 1263 244 1260 l 419 1089 b 399 1054 438 1071 432 1054 l 336 1054 b 268 1079 306 1054 283 1063 l 188 1158 l 104 1079 b 39 1054 83 1057 76 1054 l -19 1054 b -39 1089 -53 1054 -57 1071 l 101 1225 b 185 1263 135 1258 144 1263 m 100 939 b 149 986 100 974 114 986 l 228 986 b 275 939 263 986 275 974 l 275 47 b 228 0 275 13 263 0 l 149 0 b 100 47 114 0 100 13 "},"Ï":{"ha":367,"x_min":0,"x_max":0,"o":"m 50 1233 b 122 1161 106 1233 122 1215 l 122 1147 b 50 1075 122 1093 106 1075 l 40 1075 b -32 1147 -15 1075 -32 1093 l -32 1161 b 40 1233 -32 1215 -15 1233 m 328 1233 b 400 1161 383 1233 400 1215 l 400 1147 b 328 1075 400 1093 383 1075 l 318 1075 b 244 1147 263 1075 244 1093 l 244 1161 b 318 1233 244 1215 263 1233 m 96 939 b 144 986 96 974 110 986 l 224 986 b 271 939 258 986 271 974 l 271 47 b 224 0 271 13 258 0 l 144 0 b 96 47 110 0 96 13 "},"Ð":{"ha":947,"x_min":0,"x_max":0,"o":"m 478 986 b 881 619 733 986 881 847 l 881 367 b 478 0 881 139 733 0 l 165 0 b 118 47 131 0 118 13 l 118 453 l 36 453 b 8 483 14 453 8 460 l 8 535 b 36 565 8 556 18 565 l 118 565 l 118 939 b 165 986 118 974 131 986 m 706 621 b 478 824 706 753 626 824 l 292 824 l 292 565 l 476 565 b 504 535 499 565 504 558 l 504 483 b 476 453 504 460 499 453 l 292 453 l 292 163 l 478 163 b 706 365 624 163 706 233 "},"Ñ":{"ha":967,"x_min":0,"x_max":0,"o":"m 665 1243 b 692 1217 683 1243 692 1235 b 574 1063 692 1106 657 1063 b 474 1103 542 1063 508 1076 b 394 1142 439 1129 413 1142 b 363 1089 374 1142 363 1124 b 336 1063 363 1071 354 1063 l 292 1063 b 265 1089 274 1063 265 1071 b 379 1243 265 1200 303 1243 b 486 1204 414 1243 450 1231 b 563 1164 521 1178 547 1164 b 596 1217 585 1164 596 1182 b 621 1243 596 1235 604 1243 m 822 986 b 869 939 857 986 869 974 l 869 47 b 822 0 869 13 857 0 l 743 0 b 697 24 722 0 707 8 l 357 526 b 243 760 299 611 240 764 l 235 760 b 265 483 235 764 265 600 l 265 47 b 218 0 265 13 253 0 l 144 0 b 96 47 110 0 96 13 l 96 939 b 144 986 96 974 110 986 l 224 986 b 269 964 244 986 260 979 l 607 464 b 724 228 671 371 725 226 l 732 228 b 701 508 732 226 701 383 l 701 939 b 749 986 701 974 714 986 "},"Ò":{"ha":929,"x_min":0,"x_max":0,"o":"m 344 1264 b 424 1267 363 1285 389 1286 l 628 1146 b 631 1100 650 1133 649 1124 l 611 1075 b 557 1072 603 1064 585 1063 l 315 1172 b 308 1221 288 1183 288 1197 m 68 644 b 465 1007 68 871 211 1007 b 861 644 717 1007 861 871 l 861 342 b 465 -21 861 115 717 -21 b 68 342 211 -21 68 115 m 688 646 b 465 844 688 774 608 844 b 243 646 322 844 243 775 l 243 340 b 465 142 243 211 322 142 b 688 340 608 142 688 213 "},"Ó":{"ha":929,"x_min":0,"x_max":0,"o":"m 513 1269 b 590 1267 547 1288 572 1288 l 626 1222 b 621 1175 647 1199 647 1186 l 379 1074 b 325 1075 353 1064 335 1064 l 306 1101 b 308 1146 289 1122 290 1136 m 68 644 b 465 1007 68 871 211 1007 b 861 644 717 1007 861 871 l 861 342 b 465 -21 861 115 717 -21 b 68 342 211 -21 68 115 m 688 646 b 465 844 688 774 608 844 b 243 646 322 844 243 775 l 243 340 b 465 142 243 211 322 142 b 688 340 608 142 688 213 "},"Ô":{"ha":929,"x_min":0,"x_max":0,"o":"m 478 1276 b 556 1239 513 1276 521 1274 l 696 1103 b 675 1068 714 1085 708 1068 l 614 1068 b 544 1093 576 1068 563 1071 l 465 1172 l 382 1093 b 315 1068 360 1071 353 1068 l 258 1068 b 238 1103 225 1068 219 1085 l 379 1239 b 461 1276 413 1272 421 1276 m 68 644 b 465 1007 68 871 211 1007 b 861 644 717 1007 861 871 l 861 342 b 465 -21 861 115 717 -21 b 68 342 211 -21 68 115 m 688 646 b 465 844 688 774 608 844 b 243 646 322 844 243 775 l 243 340 b 465 142 243 211 322 142 b 688 340 608 142 688 213 "},"Õ":{"ha":929,"x_min":0,"x_max":0,"o":"m 646 1257 b 672 1231 664 1257 672 1249 b 554 1076 672 1119 638 1076 b 454 1117 522 1076 489 1090 b 375 1156 419 1143 393 1156 b 343 1103 354 1156 343 1138 b 317 1076 343 1085 335 1076 l 272 1076 b 246 1103 254 1076 246 1085 b 360 1257 246 1214 283 1257 b 467 1218 394 1257 431 1244 b 543 1178 501 1192 528 1178 b 576 1231 565 1178 576 1196 b 601 1257 576 1249 585 1257 m 68 644 b 465 1007 68 871 211 1007 b 861 644 717 1007 861 871 l 861 342 b 465 -21 861 115 717 -21 b 68 342 211 -21 68 115 m 688 646 b 465 844 688 774 608 844 b 243 646 322 844 243 775 l 243 340 b 465 142 243 211 322 142 b 688 340 608 142 688 213 "},"Ö":{"ha":929,"x_min":0,"x_max":0,"o":"m 331 1247 b 404 1175 386 1247 404 1229 l 404 1161 b 331 1089 404 1107 386 1089 l 321 1089 b 249 1161 265 1089 249 1107 l 249 1175 b 321 1247 249 1229 265 1247 m 608 1247 b 682 1175 664 1247 682 1229 l 682 1161 b 608 1089 682 1107 664 1089 l 600 1089 b 526 1161 544 1089 526 1107 l 526 1175 b 600 1247 526 1229 544 1247 m 68 644 b 465 1007 68 871 211 1007 b 861 644 717 1007 861 871 l 861 342 b 465 -21 861 115 717 -21 b 68 342 211 -21 68 115 m 688 646 b 465 844 688 774 608 844 b 243 646 322 844 243 775 l 243 340 b 465 142 243 211 322 142 b 688 340 608 142 688 213 "},"×":{"ha":713,"x_min":0,"x_max":0,"o":"m 657 283 b 657 219 683 260 683 243 l 619 181 b 556 181 596 157 579 157 l 388 349 l 221 182 b 157 182 200 161 178 161 l 118 221 b 118 285 97 242 97 263 l 285 451 l 118 618 b 118 682 97 640 97 661 l 157 721 b 221 721 178 742 200 742 l 388 553 l 556 721 b 619 721 579 744 596 744 l 657 683 b 657 619 683 660 683 643 l 489 451 "},"Ø":{"ha":929,"x_min":0,"x_max":0,"o":"m 879 1046 b 888 1031 889 1046 892 1040 l 793 885 b 871 644 844 822 871 743 l 871 342 b 475 -21 871 118 729 -17 b 247 28 386 -22 310 -6 l 204 -40 b 172 -54 197 -50 186 -54 l 82 -54 b 74 -39 69 -54 67 -49 l 160 96 b 78 342 106 158 78 240 l 78 644 b 475 1007 78 871 221 1007 b 707 953 565 1007 643 989 l 757 1032 b 786 1046 764 1042 774 1046 m 615 810 b 475 844 578 833 531 844 b 253 646 332 844 253 775 l 253 340 b 269 267 253 311 258 288 m 339 172 b 475 142 374 151 419 142 b 697 340 618 142 697 213 l 697 646 b 683 711 697 669 693 690 "},"Ù":{"ha":956,"x_min":0,"x_max":0,"o":"m 357 1250 b 436 1253 375 1271 401 1272 l 640 1132 b 643 1086 663 1119 661 1110 l 624 1061 b 569 1058 615 1050 597 1049 l 328 1158 b 321 1207 300 1169 300 1183 m 264 338 b 478 142 264 211 338 142 b 692 338 618 142 692 211 l 692 939 b 739 986 692 974 704 986 l 818 986 b 865 939 853 986 865 974 l 865 339 b 478 -21 865 117 728 -21 b 89 339 228 -21 89 117 l 89 939 b 136 986 89 974 101 986 l 217 986 b 264 939 251 986 264 974 "},"Ú":{"ha":956,"x_min":0,"x_max":0,"o":"m 525 1256 b 603 1253 560 1274 585 1274 l 639 1208 b 633 1161 660 1185 660 1172 l 392 1060 b 338 1061 365 1050 347 1050 l 318 1088 b 321 1132 301 1108 303 1122 m 264 338 b 478 142 264 211 338 142 b 692 338 618 142 692 211 l 692 939 b 739 986 692 974 704 986 l 818 986 b 865 939 853 986 865 974 l 865 339 b 478 -21 865 117 728 -21 b 89 339 228 -21 89 117 l 89 939 b 136 986 89 974 101 986 l 217 986 b 264 939 251 986 264 974 "},"Û":{"ha":956,"x_min":0,"x_max":0,"o":"m 490 1263 b 568 1225 525 1263 533 1260 l 708 1089 b 688 1054 726 1071 721 1054 l 626 1054 b 557 1079 588 1054 575 1057 l 478 1158 l 394 1079 b 328 1054 372 1057 365 1054 l 271 1054 b 250 1089 238 1054 232 1071 l 392 1225 b 474 1263 425 1258 433 1263 m 264 338 b 478 142 264 211 338 142 b 692 338 618 142 692 211 l 692 939 b 739 986 692 974 704 986 l 818 986 b 865 939 853 986 865 974 l 865 339 b 478 -21 865 117 728 -21 b 89 339 228 -21 89 117 l 89 939 b 136 986 89 974 101 986 l 217 986 b 264 939 251 986 264 974 "},"Ü":{"ha":956,"x_min":0,"x_max":0,"o":"m 343 1233 b 417 1161 399 1233 417 1215 l 417 1147 b 343 1075 417 1093 399 1075 l 333 1075 b 261 1147 278 1075 261 1093 l 261 1161 b 333 1233 261 1215 278 1233 m 621 1233 b 694 1161 676 1233 694 1215 l 694 1147 b 621 1075 694 1093 676 1075 l 613 1075 b 539 1147 557 1075 539 1093 l 539 1161 b 613 1233 539 1215 557 1233 m 264 338 b 478 142 264 211 338 142 b 692 338 618 142 692 211 l 692 939 b 739 986 692 974 704 986 l 818 986 b 865 939 853 986 865 974 l 865 339 b 478 -21 865 117 728 -21 b 89 339 228 -21 89 117 l 89 939 b 136 986 89 974 101 986 l 217 986 b 264 939 251 986 264 974 "},"Ý":{"ha":893,"x_min":0,"x_max":0,"o":"m 503 1256 b 582 1253 538 1274 564 1274 l 617 1208 b 611 1161 638 1185 638 1172 l 369 1060 b 315 1061 343 1050 325 1050 l 296 1088 b 299 1132 279 1108 281 1122 m 854 986 b 878 939 888 986 894 965 l 539 389 l 539 47 b 492 0 539 13 526 0 l 413 0 b 365 47 378 0 365 13 l 365 392 l 25 939 b 50 986 8 965 17 986 l 147 986 b 239 944 207 986 218 983 l 454 569 l 671 944 b 764 986 692 983 704 986 "},"Þ":{"ha":875,"x_min":0,"x_max":0,"o":"m 499 835 b 747 744 603 835 685 804 b 840 499 810 685 840 603 b 747 254 840 394 810 314 b 499 164 685 194 603 164 l 271 164 l 271 47 b 224 0 271 13 258 0 l 144 0 b 96 47 110 0 96 13 l 96 939 b 144 986 96 974 110 986 l 224 986 b 271 939 258 986 271 974 l 271 835 m 482 326 b 657 499 589 326 657 397 b 482 672 657 603 589 672 l 271 672 l 271 326 "},"ß":{"ha":768,"x_min":0,"x_max":0,"o":"m 81 733 b 378 1042 81 917 190 1042 b 682 757 576 1042 682 935 b 579 544 682 657 647 586 l 579 540 b 719 286 672 503 719 418 b 421 0 719 103 610 0 l 349 0 b 301 47 314 0 301 13 l 301 115 b 349 163 301 150 314 163 l 404 163 b 542 307 493 163 542 213 b 407 450 542 396 492 450 l 350 450 b 303 497 315 450 303 463 l 303 560 b 350 607 303 594 315 607 l 392 607 b 513 740 468 607 513 661 b 376 879 513 831 464 879 b 242 735 293 879 242 824 l 242 47 b 194 0 242 13 229 0 l 129 0 b 81 47 94 0 81 13 "},"à":{"ha":721,"x_min":0,"x_max":0,"o":"m 235 1010 b 314 1011 253 1031 279 1032 l 518 889 b 521 844 536 879 538 865 l 501 818 b 447 817 492 806 474 806 l 206 918 b 200 965 178 926 179 942 m 68 596 b 356 740 118 692 214 740 b 653 454 554 740 653 644 l 653 94 b 603 15 653 46 642 32 b 353 -21 547 -8 464 -21 b 110 35 235 -21 154 -3 b 43 204 65 71 43 128 b 358 428 43 369 132 428 b 492 421 368 428 413 425 l 492 460 b 353 597 492 550 453 597 b 207 531 285 597 236 575 b 147 510 186 501 179 499 l 92 533 b 68 596 61 547 53 568 m 492 289 b 340 296 394 293 344 296 b 207 206 240 296 207 267 b 338 113 207 143 236 113 b 476 124 397 113 443 117 b 492 143 486 128 492 133 "},"á":{"ha":721,"x_min":0,"x_max":0,"o":"m 403 1011 b 481 1010 436 1032 463 1032 l 517 965 b 510 918 538 942 538 928 l 268 817 b 215 818 242 806 224 806 l 196 844 b 197 889 179 865 179 879 m 68 596 b 356 740 118 692 214 740 b 653 454 554 740 653 644 l 653 94 b 603 15 653 46 642 32 b 353 -21 547 -8 464 -21 b 110 35 235 -21 154 -3 b 43 204 65 71 43 128 b 358 428 43 369 132 428 b 492 421 368 428 413 425 l 492 460 b 353 597 492 550 453 597 b 207 531 285 597 236 575 b 147 510 186 501 179 499 l 92 533 b 68 596 61 547 53 568 m 492 289 b 340 296 394 293 344 296 b 207 206 240 296 207 267 b 338 113 207 143 236 113 b 476 124 397 113 443 117 b 492 143 486 128 492 133 "},"â":{"ha":721,"x_min":0,"x_max":0,"o":"m 368 1017 b 444 981 403 1017 411 1014 l 586 844 b 565 810 604 826 599 810 l 503 810 b 435 833 472 810 450 818 l 356 913 l 271 833 b 206 810 250 811 243 810 l 149 810 b 128 844 115 810 110 826 l 269 981 b 351 1017 301 1014 308 1017 m 68 596 b 356 740 118 692 214 740 b 653 454 554 740 653 644 l 653 94 b 603 15 653 46 642 32 b 353 -21 547 -8 464 -21 b 110 35 235 -21 154 -3 b 43 204 65 71 43 128 b 358 428 43 369 132 428 b 492 421 368 428 413 425 l 492 460 b 353 597 492 550 453 597 b 207 531 285 597 236 575 b 147 510 186 501 179 499 l 92 533 b 68 596 61 547 53 568 m 492 289 b 340 296 394 293 344 296 b 207 206 240 296 207 267 b 338 113 207 143 236 113 b 476 124 397 113 443 117 b 492 143 486 128 492 133 "},"ã":{"ha":721,"x_min":0,"x_max":0,"o":"m 536 1006 b 563 979 554 1006 563 997 b 444 824 563 868 526 824 b 344 864 413 824 379 838 b 265 903 310 890 283 903 b 232 850 243 903 232 885 b 207 824 232 832 224 824 l 161 824 b 135 850 143 824 135 832 b 250 1006 135 961 174 1006 b 356 967 285 1006 321 993 b 433 926 390 940 417 926 b 465 979 454 926 465 944 b 492 1006 465 997 474 1006 m 68 596 b 356 740 118 692 214 740 b 653 454 554 740 653 644 l 653 94 b 603 15 653 46 642 32 b 353 -21 547 -8 464 -21 b 110 35 235 -21 154 -3 b 43 204 65 71 43 128 b 358 428 43 369 132 428 b 492 421 368 428 413 425 l 492 460 b 353 597 492 550 453 597 b 207 531 285 597 236 575 b 147 510 186 501 179 499 l 92 533 b 68 596 61 547 53 568 m 492 289 b 340 296 394 293 344 296 b 207 206 240 296 207 267 b 338 113 207 143 236 113 b 476 124 397 113 443 117 b 492 143 486 128 492 133 "},"ä":{"ha":721,"x_min":0,"x_max":0,"o":"m 221 985 b 294 913 276 985 294 967 l 294 900 b 221 828 294 846 276 828 l 211 828 b 139 900 156 828 139 846 l 139 913 b 211 985 139 967 156 985 m 499 985 b 571 913 554 985 571 967 l 571 900 b 499 828 571 846 554 828 l 490 828 b 417 900 433 828 417 844 l 417 913 b 490 985 417 967 433 985 m 68 596 b 356 740 118 692 214 740 b 653 454 554 740 653 644 l 653 94 b 603 15 653 46 642 32 b 353 -21 547 -8 464 -21 b 110 35 235 -21 154 -3 b 43 204 65 71 43 128 b 358 428 43 369 132 428 b 492 421 368 428 413 425 l 492 460 b 353 597 492 550 453 597 b 207 531 285 597 236 575 b 147 510 186 501 179 499 l 92 533 b 68 596 61 547 53 568 m 492 289 b 340 296 394 293 344 296 b 207 206 240 296 207 267 b 338 113 207 143 236 113 b 476 124 397 113 443 117 b 492 143 486 128 492 133 "},"å":{"ha":721,"x_min":0,"x_max":0,"o":"m 208 943 b 361 1092 208 1031 272 1092 b 510 943 449 1092 510 1031 b 361 797 510 858 449 797 b 208 943 272 797 208 858 m 429 943 b 361 1013 429 983 401 1013 b 289 943 318 1013 289 983 b 361 876 289 904 318 876 b 429 943 401 876 429 904 m 68 596 b 356 740 118 692 214 740 b 653 454 554 740 653 644 l 653 94 b 603 15 653 46 642 32 b 353 -21 547 -8 464 -21 b 110 35 235 -21 154 -3 b 43 204 65 71 43 128 b 358 428 43 369 132 428 b 492 421 368 428 413 425 l 492 460 b 353 597 492 550 453 597 b 207 531 285 597 236 575 b 147 510 186 501 179 499 l 92 533 b 68 596 61 547 53 568 m 492 289 b 340 296 394 293 344 296 b 207 206 240 296 207 267 b 338 113 207 143 236 113 b 476 124 397 113 443 117 b 492 143 486 128 492 133 "},"æ":{"ha":1110,"x_min":0,"x_max":0,"o":"m 68 596 b 339 740 119 692 210 740 b 544 664 432 740 500 715 b 760 740 593 715 665 740 b 1063 454 964 740 1063 625 l 1063 368 b 1001 308 1063 328 1042 308 l 619 308 l 619 257 b 760 118 619 164 667 118 b 903 192 824 118 871 143 b 974 208 925 221 940 225 l 1022 182 b 1039 113 1053 167 1058 143 b 758 -21 985 24 890 -21 b 569 32 682 -21 618 -3 b 336 -21 507 -3 429 -21 b 107 33 225 -21 149 -3 b 44 203 65 69 44 126 b 342 428 44 369 125 428 b 457 421 376 428 443 421 l 457 478 b 335 597 457 556 425 597 b 207 531 279 597 236 575 b 149 511 186 501 181 499 l 93 535 b 68 596 61 547 53 567 m 901 463 b 760 604 901 557 854 604 b 619 463 667 604 619 557 l 619 432 l 901 432 m 457 289 b 324 296 440 289 358 296 b 207 204 233 296 207 267 b 321 113 207 142 231 113 b 460 143 422 113 457 139 b 457 211 458 158 457 181 "},"ç":{"ha":718,"x_min":0,"x_max":0,"o":"m 644 226 b 674 164 676 214 686 193 b 424 -17 633 57 550 -4 l 400 -81 b 418 -79 404 -79 410 -79 b 535 -204 490 -79 542 -133 b 349 -340 525 -294 464 -340 b 247 -322 304 -340 271 -335 b 224 -283 232 -315 224 -303 l 222 -242 b 244 -225 222 -224 229 -218 b 328 -247 272 -240 300 -247 b 396 -197 374 -247 396 -231 b 336 -157 396 -171 376 -158 b 301 -158 321 -157 308 -157 b 282 -125 278 -160 272 -149 l 328 -19 b 57 264 146 -7 57 93 l 57 456 b 376 740 57 638 164 740 b 674 558 533 740 636 668 b 643 496 685 524 676 508 l 582 476 b 521 506 549 464 533 472 b 369 599 497 568 446 599 b 218 463 268 599 218 553 l 218 257 b 369 121 218 169 271 121 b 521 217 446 121 497 153 b 582 244 533 250 549 256 "},"è":{"ha":746,"x_min":0,"x_max":0,"o":"m 257 1010 b 336 1013 275 1031 301 1031 l 540 889 b 543 844 558 879 560 865 l 524 819 b 469 817 514 807 496 807 l 228 918 b 222 965 201 929 201 942 m 56 440 b 378 740 56 635 168 740 b 699 453 589 740 699 621 l 699 368 b 636 308 699 328 678 308 l 217 308 l 217 257 b 375 118 217 167 274 118 b 539 192 453 118 507 143 b 610 208 561 224 576 226 l 658 182 b 675 113 690 167 696 144 b 375 -21 621 24 521 -21 b 56 276 158 -21 56 94 m 538 463 b 378 604 538 553 483 604 b 217 463 274 604 217 553 l 217 432 l 538 432 "},"é":{"ha":746,"x_min":0,"x_max":0,"o":"m 425 1013 b 503 1010 460 1032 485 1031 l 539 965 b 532 918 560 942 560 929 l 290 817 b 238 819 264 807 246 807 l 218 844 b 219 889 201 865 201 879 m 56 440 b 378 740 56 635 168 740 b 699 453 589 740 699 621 l 699 368 b 636 308 699 328 678 308 l 217 308 l 217 257 b 375 118 217 167 274 118 b 539 192 453 118 507 143 b 610 208 561 224 576 226 l 658 182 b 675 113 690 167 696 144 b 375 -21 621 24 521 -21 b 56 276 158 -21 56 94 m 538 463 b 378 604 538 553 483 604 b 217 463 274 604 217 553 l 217 432 l 538 432 "},"ê":{"ha":746,"x_min":0,"x_max":0,"o":"m 390 1011 b 465 975 424 1011 432 1008 l 603 842 b 583 808 624 819 617 808 l 522 808 b 456 831 485 808 472 810 l 376 908 l 296 831 b 231 808 274 810 265 808 l 175 808 b 154 842 140 808 133 819 l 293 975 b 374 1011 325 1008 333 1011 m 56 440 b 378 740 56 635 168 740 b 699 453 589 740 699 621 l 699 368 b 636 308 699 328 678 308 l 217 308 l 217 257 b 375 118 217 167 274 118 b 539 192 453 118 507 143 b 610 208 561 224 576 226 l 658 182 b 675 113 690 167 696 144 b 375 -21 621 24 521 -21 b 56 276 158 -21 56 94 m 538 463 b 378 604 538 553 483 604 b 217 463 274 604 217 553 l 217 432 l 538 432 "},"ë":{"ha":746,"x_min":0,"x_max":0,"o":"m 243 985 b 317 913 299 985 317 967 l 317 900 b 243 828 317 846 299 828 l 233 828 b 161 900 178 828 161 846 l 161 913 b 233 985 161 967 178 985 m 521 985 b 593 913 576 985 593 967 l 593 900 b 521 828 593 846 576 828 l 513 828 b 439 900 456 828 439 844 l 439 913 b 513 985 439 967 456 985 m 56 440 b 378 740 56 635 168 740 b 699 453 589 740 699 621 l 699 368 b 636 308 699 328 678 308 l 217 308 l 217 257 b 375 118 217 167 274 118 b 539 192 453 118 507 143 b 610 208 561 224 576 226 l 658 182 b 675 113 690 167 696 144 b 375 -21 621 24 521 -21 b 56 276 158 -21 56 94 m 538 463 b 378 604 538 553 483 604 b 217 463 274 604 217 553 l 217 432 l 538 432 "},"ì":{"ha":321,"x_min":0,"x_max":0,"o":"m 60 1008 b 139 1011 81 1031 107 1032 l 311 889 b 314 843 332 876 332 867 l 294 818 b 240 817 285 806 267 806 l 31 917 b 25 964 4 928 4 940 m 201 719 b 244 678 233 719 244 710 l 244 43 b 201 0 244 11 233 0 l 125 0 b 83 43 93 0 83 11 l 83 678 b 125 719 83 710 93 719 "},"í":{"ha":321,"x_min":0,"x_max":0,"o":"m 190 1011 b 268 1008 222 1032 249 1031 l 304 964 b 297 917 325 940 325 928 l 89 817 b 35 818 63 806 44 806 l 15 843 b 18 889 -3 867 -3 876 m 199 719 b 240 678 231 719 240 710 l 240 43 b 199 0 240 11 231 0 l 122 0 b 79 43 90 0 79 11 l 79 678 b 122 719 79 710 90 719 "},"î":{"ha":321,"x_min":0,"x_max":0,"o":"m 388 844 b 367 810 407 821 400 810 l 311 810 b 244 833 271 810 257 811 l 189 910 l 129 833 b 65 810 114 811 104 810 l 11 810 b -8 844 -21 810 -28 821 l 103 975 b 185 1011 131 1008 142 1011 l 200 1011 b 275 975 238 1011 247 1008 m 228 719 b 269 678 260 719 269 710 l 269 43 b 228 0 269 11 260 0 l 151 0 b 108 43 119 0 108 11 l 108 678 b 151 719 108 710 119 719 "},"ï":{"ha":321,"x_min":0,"x_max":0,"o":"m 46 989 b 119 917 101 989 119 971 l 119 904 b 46 832 119 850 101 832 l 36 832 b -36 904 -19 832 -36 850 l -36 917 b 36 989 -36 971 -19 989 m 285 989 b 357 917 340 989 357 971 l 357 904 b 285 832 357 850 340 832 l 275 832 b 201 904 219 832 201 850 l 201 917 b 275 989 201 971 219 989 m 199 719 b 240 678 231 719 240 710 l 240 43 b 199 0 240 11 231 0 l 122 0 b 79 43 90 0 79 11 l 79 678 b 122 719 79 710 90 719 "},"ð":{"ha":769,"x_min":0,"x_max":0,"o":"m 544 1039 b 576 1040 557 1051 561 1051 l 621 1007 b 622 976 633 997 633 988 l 578 926 b 696 551 657 851 696 726 l 696 261 b 376 -21 696 83 583 -21 b 56 261 169 -21 56 83 l 56 419 b 342 701 56 592 168 701 b 543 625 440 701 508 676 b 474 807 539 707 515 767 l 415 743 b 383 740 403 731 399 731 l 343 769 b 342 801 331 779 331 789 l 390 856 b 208 885 343 875 282 885 b 163 926 174 885 164 894 l 161 989 b 204 1032 161 1021 171 1032 b 494 981 326 1032 424 1015 m 535 419 b 376 556 535 510 482 556 b 218 419 271 556 218 510 l 218 261 b 376 125 218 174 272 125 b 535 261 481 125 535 174 "},"ñ":{"ha":768,"x_min":0,"x_max":0,"o":"m 567 1006 b 593 979 585 1006 593 997 b 476 824 593 867 558 824 b 375 864 444 824 410 838 b 297 904 340 890 314 904 b 264 851 275 904 264 886 b 239 824 264 833 256 824 l 193 824 b 167 851 175 824 167 833 b 282 1006 167 963 204 1006 b 388 967 317 1006 353 993 b 464 926 422 940 449 926 b 497 979 486 926 497 944 b 522 1006 497 997 506 1006 m 132 693 b 406 740 211 725 301 740 b 694 461 600 740 694 640 l 694 43 b 651 0 694 11 683 0 l 575 0 b 533 43 543 0 533 11 l 533 457 b 382 593 533 547 483 593 b 249 575 338 593 293 588 b 239 561 242 572 239 568 l 239 43 b 197 0 239 11 229 0 l 121 0 b 78 43 89 0 78 11 l 78 614 b 132 693 78 658 88 675 "},"ò":{"ha":754,"x_min":0,"x_max":0,"o":"m 257 1010 b 335 1011 275 1031 300 1032 l 539 889 b 542 844 557 879 558 865 l 522 818 b 468 817 514 806 496 806 l 226 918 b 221 965 203 926 201 942 m 57 463 b 376 740 57 636 172 740 b 697 463 582 740 697 636 l 697 257 b 376 -21 697 83 582 -21 b 57 257 172 -21 57 83 m 536 463 b 376 594 536 547 478 594 b 218 463 275 594 218 547 l 218 257 b 376 125 218 174 275 125 b 536 257 478 125 536 174 "},"ó":{"ha":754,"x_min":0,"x_max":0,"o":"m 424 1011 b 503 1010 458 1032 485 1031 l 538 965 b 532 918 558 942 560 926 l 290 817 b 236 818 264 806 246 806 l 217 844 b 219 889 200 865 201 879 m 57 463 b 376 740 57 636 172 740 b 697 463 582 740 697 636 l 697 257 b 376 -21 697 83 582 -21 b 57 257 172 -21 57 83 m 536 463 b 376 594 536 547 478 594 b 218 463 275 594 218 547 l 218 257 b 376 125 218 174 275 125 b 536 257 478 125 536 174 "},"ô":{"ha":754,"x_min":0,"x_max":0,"o":"m 389 1011 b 464 974 422 1011 432 1008 l 601 842 b 582 807 619 824 615 807 l 521 807 b 454 831 492 807 469 815 l 376 908 l 294 831 b 231 807 274 810 265 807 l 174 807 b 154 842 140 807 136 824 l 292 974 b 372 1011 325 1007 333 1011 m 57 463 b 376 740 57 636 172 740 b 697 463 582 740 697 636 l 697 257 b 376 -21 697 83 582 -21 b 57 257 172 -21 57 83 m 536 463 b 376 594 536 547 478 594 b 218 463 275 594 218 547 l 218 257 b 376 125 218 174 275 125 b 536 257 478 125 536 174 "},"õ":{"ha":754,"x_min":0,"x_max":0,"o":"m 557 1006 b 583 979 575 1006 583 997 b 467 824 583 867 549 824 b 365 864 435 824 400 838 b 288 903 331 890 304 903 b 254 850 265 903 254 885 b 229 824 254 832 246 824 l 183 824 b 157 850 165 824 157 832 b 272 1006 157 961 194 1006 b 378 967 307 1006 343 993 b 454 926 413 940 439 926 b 488 979 476 926 488 944 b 513 1006 488 997 496 1006 m 57 463 b 376 740 57 636 172 740 b 697 463 582 740 697 636 l 697 257 b 376 -21 697 83 582 -21 b 57 257 172 -21 57 83 m 536 463 b 376 594 536 547 478 594 b 218 463 275 594 218 547 l 218 257 b 376 125 218 174 275 125 b 536 257 478 125 536 174 "},"ö":{"ha":754,"x_min":0,"x_max":0,"o":"m 242 985 b 315 913 297 985 315 967 l 315 900 b 242 828 315 846 297 828 l 232 828 b 161 900 178 828 161 846 l 161 913 b 232 985 161 967 178 985 m 521 985 b 593 913 575 985 593 967 l 593 900 b 521 828 593 846 575 828 l 511 828 b 438 900 456 828 438 846 l 438 913 b 511 985 438 967 456 985 m 57 463 b 376 740 57 636 172 740 b 697 463 582 740 697 636 l 697 257 b 376 -21 697 83 582 -21 b 57 257 172 -21 57 83 m 536 463 b 376 594 536 547 478 594 b 218 463 275 594 218 547 l 218 257 b 376 125 218 174 275 125 b 536 257 478 125 536 174 "},"÷":{"ha":767,"x_min":0,"x_max":0,"o":"m 389 804 b 478 715 456 804 478 782 l 478 703 b 389 614 478 635 456 614 l 379 614 b 290 703 311 614 290 635 l 290 715 b 379 804 290 782 311 804 m 664 529 b 711 482 701 529 711 517 l 711 421 b 664 374 711 386 699 374 l 104 374 b 56 421 69 374 56 386 l 56 482 b 104 529 56 517 67 529 m 389 290 b 478 201 456 290 478 269 l 478 189 b 389 100 478 122 456 100 l 379 100 b 290 189 311 100 290 122 l 290 201 b 379 290 290 269 311 290 "},"ø":{"ha":754,"x_min":0,"x_max":0,"o":"m 668 767 b 675 751 678 767 681 761 l 619 663 b 697 463 671 615 697 549 l 697 257 b 376 -21 697 83 582 -21 b 207 13 311 -21 254 -10 l 178 -35 b 147 -49 171 -44 160 -49 l 85 -49 b 78 -33 74 -49 71 -43 l 136 58 b 57 257 83 107 57 172 l 57 463 b 376 740 57 636 172 740 b 547 708 443 740 500 729 l 576 753 b 604 767 583 763 592 767 m 465 578 b 376 594 440 589 411 594 b 218 463 275 594 218 547 l 218 257 b 233 211 218 239 224 224 m 289 143 b 376 125 315 131 344 125 b 536 257 478 125 536 174 l 536 463 b 522 510 536 481 532 496 "},"ù":{"ha":768,"x_min":0,"x_max":0,"o":"m 263 1010 b 340 1011 281 1031 306 1032 l 544 889 b 547 844 563 879 564 865 l 528 818 b 474 817 519 806 501 806 l 232 918 b 226 965 208 926 207 942 m 647 719 b 690 678 679 719 690 710 l 690 106 b 636 28 690 61 681 46 b 364 -21 554 -4 464 -21 b 74 258 169 -21 74 79 l 74 678 b 117 719 74 710 85 719 l 193 719 b 235 678 225 719 235 710 l 235 264 b 386 126 235 172 285 126 b 514 143 435 126 476 132 b 529 167 524 147 529 154 l 529 678 b 572 719 529 710 540 719 "},"ú":{"ha":768,"x_min":0,"x_max":0,"o":"m 429 1011 b 508 1010 464 1032 490 1031 l 543 965 b 538 918 564 942 565 926 l 296 817 b 242 818 269 806 251 806 l 222 844 b 225 889 206 865 207 879 m 647 719 b 690 678 679 719 690 710 l 690 106 b 636 28 690 61 681 46 b 364 -21 554 -4 464 -21 b 74 258 169 -21 74 79 l 74 678 b 117 719 74 710 85 719 l 193 719 b 235 678 225 719 235 710 l 235 264 b 386 126 235 172 285 126 b 514 143 435 126 476 132 b 529 167 524 147 529 154 l 529 678 b 572 719 529 710 540 719 "},"û":{"ha":768,"x_min":0,"x_max":0,"o":"m 396 1017 b 472 981 431 1017 439 1014 l 613 844 b 593 810 631 826 626 810 l 531 810 b 463 833 500 810 478 818 l 382 913 l 299 833 b 233 810 276 811 271 810 l 175 810 b 154 844 142 810 136 826 l 296 981 b 378 1017 328 1014 335 1017 m 647 719 b 690 678 679 719 690 710 l 690 106 b 636 28 690 61 681 46 b 364 -21 554 -4 464 -21 b 74 258 169 -21 74 79 l 74 678 b 117 719 74 710 85 719 l 193 719 b 235 678 225 719 235 710 l 235 264 b 386 126 235 172 285 126 b 514 143 435 126 476 132 b 529 167 524 147 529 154 l 529 678 b 572 719 529 710 540 719 "},"ü":{"ha":768,"x_min":0,"x_max":0,"o":"m 247 985 b 321 913 303 985 321 967 l 321 900 b 247 828 321 846 303 828 l 238 828 b 167 900 183 828 167 846 l 167 913 b 238 985 167 967 183 985 m 526 985 b 599 913 581 985 599 967 l 599 900 b 526 828 599 846 581 828 l 517 828 b 443 900 461 828 443 846 l 443 913 b 517 985 443 967 461 985 m 647 719 b 690 678 679 719 690 710 l 690 106 b 636 28 690 61 681 46 b 364 -21 554 -4 464 -21 b 74 258 169 -21 74 79 l 74 678 b 117 719 74 710 85 719 l 193 719 b 235 678 225 719 235 710 l 235 264 b 386 126 235 172 285 126 b 514 143 435 126 476 132 b 529 167 524 147 529 154 l 529 678 b 572 719 529 710 540 719 "},"ý":{"ha":771,"x_min":0,"x_max":0,"o":"m 436 1011 b 515 1010 471 1032 497 1031 l 550 965 b 544 918 571 942 572 926 l 303 817 b 249 818 276 806 258 806 l 229 844 b 232 889 213 865 214 879 m 654 719 b 697 678 686 719 697 710 l 697 -24 b 392 -326 697 -214 601 -326 b 103 -193 254 -326 157 -282 b 121 -124 83 -162 89 -139 l 174 -94 b 243 -111 207 -78 222 -82 b 389 -182 272 -158 321 -182 b 536 -32 488 -182 536 -132 l 536 33 b 371 14 479 21 424 14 b 81 293 176 14 81 114 l 81 678 b 124 719 81 710 92 719 l 200 719 b 242 678 232 719 242 710 l 242 299 b 393 161 242 207 292 161 b 536 181 439 161 486 168 l 536 678 b 579 719 536 710 547 719 "},"þ":{"ha":756,"x_min":0,"x_max":0,"o":"m 81 983 b 124 1026 81 1015 92 1026 l 200 1026 b 242 983 232 1026 242 1015 l 242 721 b 404 739 299 733 353 739 b 697 458 600 739 697 640 l 697 269 b 388 -21 697 76 594 -21 b 242 4 354 -21 306 -12 l 242 -262 b 200 -306 242 -294 232 -306 l 124 -306 b 81 -262 92 -306 81 -294 m 536 453 b 382 592 536 543 482 592 b 242 571 346 592 299 585 l 242 147 b 376 126 297 133 342 126 b 536 274 483 126 536 175 "},"ÿ":{"ha":771,"x_min":0,"x_max":0,"o":"m 254 985 b 328 913 310 985 328 967 l 328 900 b 254 828 328 846 310 828 l 244 828 b 174 900 190 828 174 846 l 174 913 b 244 985 174 967 190 985 m 533 985 b 606 913 588 985 606 967 l 606 900 b 533 828 606 846 588 828 l 524 828 b 450 900 468 828 450 846 l 450 913 b 524 985 450 967 468 985 m 654 719 b 697 678 686 719 697 710 l 697 -24 b 392 -326 697 -214 601 -326 b 103 -193 254 -326 157 -282 b 121 -124 83 -162 89 -139 l 174 -94 b 243 -111 207 -78 222 -82 b 389 -182 272 -158 321 -182 b 536 -32 488 -182 536 -132 l 536 33 b 371 14 479 21 424 14 b 81 293 176 14 81 114 l 81 678 b 124 719 81 710 92 719 l 200 719 b 242 678 232 719 242 710 l 242 299 b 393 161 242 207 292 161 b 536 181 439 161 486 168 l 536 678 b 579 719 536 710 547 719 "},"Ā":{"ha":914,"x_min":0,"x_max":0,"o":"m 633 1208 b 674 1168 665 1208 674 1200 l 674 1133 b 633 1093 674 1101 665 1093 l 313 1093 b 272 1133 281 1093 272 1101 l 272 1168 b 313 1208 272 1200 283 1208 m 915 46 b 883 0 926 15 915 0 l 811 0 b 725 42 754 0 736 8 l 661 221 l 278 221 l 213 42 b 126 0 201 8 183 0 l 63 0 b 31 46 31 0 19 15 l 378 949 b 436 988 390 981 403 988 l 510 988 b 568 950 543 988 557 979 m 507 657 b 475 803 490 707 479 771 l 474 826 l 464 826 b 433 658 464 774 454 718 l 326 364 l 613 364 "},"ā":{"ha":721,"x_min":0,"x_max":0,"o":"m 517 965 b 557 925 549 965 557 957 l 557 890 b 517 850 557 858 549 850 l 194 850 b 154 890 163 850 154 858 l 154 925 b 194 965 154 957 165 965 m 68 596 b 356 740 118 692 214 740 b 653 454 554 740 653 644 l 653 94 b 603 15 653 46 642 32 b 353 -21 547 -8 464 -21 b 110 35 235 -21 154 -3 b 43 204 65 71 43 128 b 358 428 43 369 132 428 b 492 421 368 428 413 425 l 492 460 b 353 597 492 550 453 597 b 207 531 285 597 236 575 b 147 510 186 501 179 499 l 92 533 b 68 596 61 547 53 568 m 492 289 b 340 296 394 293 344 296 b 207 206 240 296 207 267 b 338 113 207 143 236 113 b 476 124 397 113 443 117 b 492 143 486 128 492 133 "},"Ă":{"ha":914,"x_min":0,"x_max":0,"o":"m 689 1199 b 474 1056 657 1108 579 1056 b 260 1199 368 1056 292 1108 b 278 1238 253 1217 260 1231 l 333 1258 b 376 1244 354 1265 369 1261 b 474 1172 392 1196 425 1172 b 571 1244 522 1172 556 1196 b 607 1260 578 1261 590 1267 l 669 1238 b 689 1199 692 1228 696 1219 m 915 46 b 883 0 926 15 915 0 l 811 0 b 725 42 754 0 736 8 l 661 221 l 278 221 l 213 42 b 126 0 201 8 183 0 l 63 0 b 31 46 31 0 19 15 l 378 949 b 436 988 390 981 403 988 l 510 988 b 568 950 543 988 557 979 m 507 657 b 475 803 490 707 479 771 l 474 826 l 464 826 b 433 658 464 774 454 718 l 326 364 l 613 364 "},"ă":{"ha":721,"x_min":0,"x_max":0,"o":"m 571 953 b 356 811 542 863 461 811 b 142 953 250 811 171 863 b 161 993 135 972 142 986 l 215 1014 b 258 1000 236 1021 251 1015 b 356 926 274 951 307 926 b 453 1000 404 926 438 951 b 489 1015 460 1015 472 1019 l 553 993 b 571 953 574 983 578 975 m 68 596 b 356 740 118 692 214 740 b 653 454 554 740 653 644 l 653 94 b 603 15 653 46 642 32 b 353 -21 547 -8 464 -21 b 110 35 235 -21 154 -3 b 43 204 65 71 43 128 b 358 428 43 369 132 428 b 492 421 368 428 413 425 l 492 460 b 353 597 492 550 453 597 b 207 531 285 597 236 575 b 147 510 186 501 179 499 l 92 533 b 68 596 61 547 53 568 m 492 289 b 340 296 394 293 344 296 b 207 206 240 296 207 267 b 338 113 207 143 236 113 b 476 124 397 113 443 117 b 492 143 486 128 492 133 "},"Ą":{"ha":914,"x_min":0,"x_max":0,"o":"m 511 988 b 569 950 544 988 558 979 l 917 43 b 913 3 924 25 922 13 b 813 -193 840 -69 801 -158 b 849 -222 818 -212 831 -222 b 886 -208 864 -222 876 -218 b 913 -217 899 -201 907 -204 l 932 -262 b 929 -292 938 -275 936 -285 b 797 -340 894 -324 851 -340 b 674 -257 726 -340 685 -312 b 790 1 658 -183 700 -86 b 726 43 746 3 736 14 l 661 224 l 281 224 l 214 42 b 128 0 201 8 185 0 l 64 0 b 32 46 32 0 21 15 l 379 949 b 438 988 390 981 404 988 m 525 615 b 475 826 493 704 478 822 l 465 826 b 418 617 463 821 450 706 l 329 365 l 613 365 "},"ą":{"ha":725,"x_min":0,"x_max":0,"o":"m 68 596 b 356 740 118 692 214 740 b 653 454 554 740 653 644 l 653 94 b 638 38 653 68 647 49 b 535 -193 554 -69 524 -156 b 571 -222 540 -212 553 -222 b 608 -208 583 -222 596 -218 b 635 -217 621 -201 629 -204 l 653 -261 b 651 -290 660 -274 658 -283 b 519 -340 617 -324 574 -340 b 396 -257 449 -340 407 -312 b 500 -10 383 -186 421 -93 b 353 -21 457 -17 408 -21 b 110 35 235 -21 154 -3 b 43 204 65 71 43 128 b 358 428 43 369 132 428 b 492 421 368 428 413 425 l 492 460 b 353 597 492 550 453 597 b 207 531 285 597 236 575 b 147 510 186 501 179 499 l 92 533 b 68 596 61 547 53 568 m 492 289 b 340 296 394 293 344 296 b 207 206 240 296 207 267 b 338 113 207 143 236 113 b 476 124 397 113 443 117 b 492 143 486 128 492 133 "},"Ć":{"ha":889,"x_min":0,"x_max":0,"o":"m 519 1256 b 597 1253 554 1275 579 1274 l 633 1208 b 626 1161 654 1185 654 1172 l 385 1060 b 332 1061 358 1050 340 1050 l 313 1088 b 314 1132 296 1108 296 1122 m 68 646 b 465 1007 68 869 211 1007 b 843 775 663 1007 789 929 b 814 714 854 746 844 725 l 738 688 b 678 717 704 676 690 683 b 465 844 647 801 576 844 b 243 647 322 844 243 775 l 243 340 b 465 142 243 213 322 142 b 678 271 575 142 646 185 b 739 300 693 306 706 313 l 814 274 b 844 213 844 263 854 242 b 465 -21 790 57 664 -21 b 68 342 211 -21 68 115 "},"ć":{"ha":718,"x_min":0,"x_max":0,"o":"m 424 1011 b 501 1010 457 1032 483 1032 l 538 965 b 531 918 558 942 558 928 l 289 817 b 236 818 263 806 244 806 l 217 844 b 218 889 200 865 200 879 m 57 456 b 376 740 57 638 164 740 b 674 558 533 740 636 668 b 643 496 685 524 676 508 l 582 476 b 521 506 549 464 533 472 b 369 599 497 568 446 599 b 218 463 268 599 218 553 l 218 257 b 369 121 218 169 271 121 b 521 217 446 121 497 153 b 582 244 533 250 549 256 l 644 226 b 674 164 676 214 686 193 b 364 -21 625 40 522 -21 b 57 264 158 -21 57 82 "},"Ĉ":{"ha":889,"x_min":0,"x_max":0,"o":"m 485 1263 b 561 1225 518 1263 528 1260 l 703 1089 b 682 1054 721 1071 715 1054 l 619 1054 b 551 1079 589 1054 567 1063 l 472 1158 l 388 1079 b 322 1054 367 1057 360 1054 l 265 1054 b 244 1089 232 1054 226 1071 l 386 1225 b 468 1263 419 1258 428 1263 m 68 646 b 465 1007 68 869 211 1007 b 843 775 663 1007 789 929 b 814 714 854 746 844 725 l 738 688 b 678 717 704 676 690 683 b 465 844 647 801 576 844 b 243 647 322 844 243 775 l 243 340 b 465 142 243 213 322 142 b 678 271 575 142 646 185 b 739 300 693 306 706 313 l 814 274 b 844 213 844 263 854 242 b 465 -21 790 57 664 -21 b 68 342 211 -21 68 115 "},"ĉ":{"ha":718,"x_min":0,"x_max":0,"o":"m 389 1011 b 464 974 422 1011 431 1008 l 601 842 b 582 807 619 824 615 807 l 521 807 b 454 831 490 807 468 815 l 375 908 l 294 831 b 229 807 272 808 267 807 l 174 807 b 153 842 140 807 135 824 l 292 974 b 372 1011 324 1007 332 1011 m 57 456 b 376 740 57 638 164 740 b 674 558 533 740 636 668 b 643 496 685 524 676 508 l 582 476 b 521 506 549 464 533 472 b 369 599 497 568 446 599 b 218 463 268 599 218 553 l 218 257 b 369 121 218 169 271 121 b 521 217 446 121 497 153 b 582 244 533 250 549 256 l 644 226 b 674 164 676 214 686 193 b 364 -21 625 40 522 -21 b 57 264 158 -21 57 82 "},"Ċ":{"ha":889,"x_min":0,"x_max":0,"o":"m 476 1233 b 550 1158 533 1233 550 1215 l 550 1147 b 476 1074 550 1090 533 1074 l 468 1074 b 393 1147 411 1074 393 1090 l 393 1158 b 468 1233 393 1215 411 1233 m 68 646 b 465 1007 68 869 211 1007 b 843 775 663 1007 789 929 b 814 714 854 746 844 725 l 738 688 b 678 717 704 676 690 683 b 465 844 647 801 576 844 b 243 647 322 844 243 775 l 243 340 b 465 142 243 213 322 142 b 678 271 575 142 646 185 b 739 300 693 306 706 313 l 814 274 b 844 213 844 263 854 242 b 465 -21 790 57 664 -21 b 68 342 211 -21 68 115 "},"ċ":{"ha":718,"x_min":0,"x_max":0,"o":"m 381 988 b 454 913 438 988 454 969 l 454 903 b 381 828 454 846 438 828 l 372 828 b 297 903 313 828 297 843 l 297 913 b 372 988 297 969 313 988 m 57 456 b 376 740 57 638 164 740 b 674 558 533 740 636 668 b 643 496 685 524 676 508 l 582 476 b 521 506 549 464 533 472 b 369 599 497 568 446 599 b 218 463 268 599 218 553 l 218 257 b 369 121 218 169 271 121 b 521 217 446 121 497 153 b 582 244 533 250 549 256 l 644 226 b 674 164 676 214 686 193 b 364 -21 625 40 522 -21 b 57 264 158 -21 57 82 "},"Č":{"ha":889,"x_min":0,"x_max":0,"o":"m 678 1260 b 697 1225 711 1260 715 1243 l 557 1090 b 481 1053 524 1056 514 1053 l 464 1053 b 381 1090 421 1053 414 1056 l 240 1225 b 260 1260 222 1243 226 1260 l 318 1260 b 383 1236 356 1260 363 1258 l 467 1157 l 547 1236 b 615 1260 565 1257 578 1260 m 68 646 b 465 1007 68 869 211 1007 b 843 775 663 1007 789 929 b 814 714 854 746 844 725 l 738 688 b 678 717 704 676 690 683 b 465 844 647 801 576 844 b 243 647 322 844 243 775 l 243 340 b 465 142 243 213 322 142 b 678 271 575 142 646 185 b 739 300 693 306 706 313 l 814 274 b 844 213 844 263 854 242 b 465 -21 790 57 664 -21 b 68 342 211 -21 68 115 "},"č":{"ha":718,"x_min":0,"x_max":0,"o":"m 564 993 b 583 961 596 993 600 978 l 454 835 b 383 800 422 803 415 800 l 368 800 b 293 835 331 800 322 803 l 164 961 b 182 993 144 982 150 993 l 235 993 b 296 971 268 993 275 992 l 372 897 l 444 971 b 507 993 458 986 479 993 m 57 456 b 376 740 57 638 164 740 b 674 558 533 740 636 668 b 643 496 685 524 676 508 l 582 476 b 521 506 549 464 533 472 b 369 599 497 568 446 599 b 218 463 268 599 218 553 l 218 257 b 369 121 218 169 271 121 b 521 217 446 121 497 153 b 582 244 533 250 549 256 l 644 226 b 674 164 676 214 686 193 b 364 -21 625 40 522 -21 b 57 264 158 -21 57 82 "},"Ď":{"ha":925,"x_min":0,"x_max":0,"o":"m 643 1260 b 663 1225 676 1260 681 1243 l 522 1090 b 444 1053 488 1056 479 1053 l 428 1053 b 346 1090 385 1053 378 1056 l 204 1225 b 225 1260 186 1243 192 1260 l 282 1260 b 349 1236 319 1260 326 1258 l 432 1157 l 513 1236 b 581 1260 529 1257 542 1260 m 456 986 b 858 619 711 986 858 847 l 858 367 b 456 0 858 139 711 0 l 144 0 b 96 47 110 0 96 13 l 96 939 b 144 986 96 974 110 986 m 685 621 b 457 824 685 753 603 824 l 271 824 l 271 163 l 457 163 b 685 365 603 163 685 233 "},"ď":{"ha":842,"x_min":0,"x_max":0,"o":"m 58 450 b 349 740 58 639 156 740 b 514 722 392 740 446 735 l 514 985 b 556 1028 514 1017 524 1028 l 632 1028 b 675 985 664 1028 675 1017 l 675 100 b 619 24 675 56 664 42 b 360 -21 540 -6 454 -21 b 58 260 158 -21 58 72 m 865 746 b 822 707 856 717 849 707 l 779 707 b 753 736 756 707 749 713 l 786 983 b 836 1028 792 1018 801 1028 l 899 1028 b 936 983 933 1028 946 1013 m 514 575 b 379 593 458 588 414 593 b 219 446 272 593 219 544 l 219 265 b 375 126 219 172 271 126 b 503 142 424 126 467 132 b 514 157 510 144 514 150 "},"Đ":{"ha":947,"x_min":0,"x_max":0,"o":"m 478 986 b 881 619 733 986 881 847 l 881 367 b 478 0 881 139 733 0 l 165 0 b 118 47 131 0 118 13 l 118 453 l 36 453 b 8 483 14 453 8 460 l 8 535 b 36 565 8 556 18 565 l 118 565 l 118 939 b 165 986 118 974 131 986 m 706 621 b 478 824 706 753 626 824 l 292 824 l 292 565 l 476 565 b 504 535 499 565 504 558 l 504 483 b 476 453 504 460 499 453 l 292 453 l 292 163 l 478 163 b 706 365 624 163 706 233 "},"đ":{"ha":753,"x_min":0,"x_max":0,"o":"m 749 926 b 778 897 771 926 778 919 l 778 857 b 749 826 778 833 771 826 l 675 826 l 675 100 b 621 24 675 54 665 42 b 360 -21 542 -6 456 -21 b 58 260 158 -21 58 78 l 58 450 b 349 740 58 639 158 740 b 514 722 394 740 449 735 l 514 826 l 346 826 b 318 857 324 826 318 833 l 318 897 b 346 926 318 917 328 926 l 514 926 l 514 985 b 557 1028 514 1017 525 1028 l 632 1028 b 675 985 664 1028 675 1017 l 675 926 m 514 575 b 381 593 458 588 414 593 b 219 446 274 593 219 544 l 219 265 b 375 126 219 175 275 126 b 503 142 424 126 467 132 b 514 157 510 144 514 150 "},"Ē":{"ha":804,"x_min":0,"x_max":0,"o":"m 582 1208 b 622 1168 614 1208 622 1200 l 622 1133 b 582 1093 622 1101 614 1093 l 260 1093 b 219 1133 228 1093 219 1101 l 219 1168 b 260 1208 219 1200 231 1208 m 696 986 b 744 939 731 986 744 974 l 744 871 b 696 824 744 836 731 824 l 271 824 l 271 581 l 631 581 b 678 533 665 581 678 568 l 678 465 b 631 418 678 431 665 418 l 271 418 l 271 163 l 711 163 b 758 115 746 163 758 150 l 758 47 b 711 0 758 13 746 0 l 144 0 b 96 47 110 0 96 13 l 96 939 b 144 986 96 974 110 986 "},"ē":{"ha":746,"x_min":0,"x_max":0,"o":"m 525 956 b 563 917 554 956 563 946 l 563 883 b 525 844 563 854 554 844 l 231 844 b 193 883 201 844 193 851 l 193 917 b 231 956 193 946 203 956 m 56 440 b 378 740 56 635 168 740 b 699 453 589 740 699 621 l 699 368 b 636 308 699 328 678 308 l 217 308 l 217 257 b 375 118 217 167 274 118 b 539 192 453 118 507 143 b 610 208 561 224 576 226 l 658 182 b 675 113 690 167 696 144 b 375 -21 621 24 521 -21 b 56 276 158 -21 56 94 m 538 463 b 378 604 538 553 483 604 b 217 463 274 604 217 553 l 217 432 l 538 432 "},"Ĕ":{"ha":804,"x_min":0,"x_max":0,"o":"m 638 1199 b 421 1056 606 1108 526 1056 b 207 1199 317 1056 236 1108 b 226 1238 200 1217 207 1231 l 281 1258 b 324 1244 301 1265 317 1261 b 421 1172 339 1196 372 1172 b 518 1244 469 1172 503 1196 b 554 1260 525 1261 538 1267 l 618 1238 b 638 1199 636 1229 643 1217 m 696 986 b 744 939 731 986 744 974 l 744 871 b 696 824 744 836 731 824 l 271 824 l 271 581 l 631 581 b 678 533 665 581 678 568 l 678 465 b 631 418 678 431 665 418 l 271 418 l 271 163 l 711 163 b 758 115 746 163 758 150 l 758 47 b 711 0 758 13 746 0 l 144 0 b 96 47 110 0 96 13 l 96 939 b 144 986 96 974 110 986 "},"ĕ":{"ha":746,"x_min":0,"x_max":0,"o":"m 593 953 b 378 811 561 864 483 811 b 164 953 272 811 196 864 b 183 993 157 972 164 986 l 238 1014 b 281 1000 260 1021 274 1015 b 378 926 296 951 329 926 b 475 1000 426 926 460 951 b 511 1015 482 1018 493 1021 l 575 993 b 593 953 596 983 600 975 m 56 440 b 378 740 56 635 168 740 b 699 453 589 740 699 621 l 699 368 b 636 308 699 328 678 308 l 217 308 l 217 257 b 375 118 217 167 274 118 b 539 192 453 118 507 143 b 610 208 561 224 576 226 l 658 182 b 675 113 690 167 696 144 b 375 -21 621 24 521 -21 b 56 276 158 -21 56 94 m 538 463 b 378 604 538 553 483 604 b 217 463 274 604 217 553 l 217 432 l 538 432 "},"Ė":{"ha":804,"x_min":0,"x_max":0,"o":"m 425 1233 b 500 1158 482 1233 500 1215 l 500 1147 b 425 1074 500 1090 482 1074 l 417 1074 b 342 1147 360 1074 342 1090 l 342 1158 b 417 1233 342 1215 360 1233 m 696 986 b 744 939 731 986 744 974 l 744 871 b 696 824 744 836 731 824 l 271 824 l 271 581 l 631 581 b 678 533 665 581 678 568 l 678 465 b 631 418 678 431 665 418 l 271 418 l 271 163 l 711 163 b 758 115 746 163 758 150 l 758 47 b 711 0 758 13 746 0 l 144 0 b 96 47 110 0 96 13 l 96 939 b 144 986 96 974 110 986 "},"ė":{"ha":746,"x_min":0,"x_max":0,"o":"m 382 988 b 456 913 439 988 456 969 l 456 903 b 382 828 456 846 439 828 l 374 828 b 299 903 317 828 299 843 l 299 913 b 374 988 299 969 317 988 m 56 440 b 378 740 56 635 168 740 b 699 453 589 740 699 621 l 699 368 b 636 308 699 328 678 308 l 217 308 l 217 257 b 375 118 217 167 274 118 b 539 192 453 118 507 143 b 610 208 561 224 576 226 l 658 182 b 675 113 690 167 696 144 b 375 -21 621 24 521 -21 b 56 276 158 -21 56 94 m 538 463 b 378 604 538 553 483 604 b 217 463 274 604 217 553 l 217 432 l 538 432 "},"Ę":{"ha":804,"x_min":0,"x_max":0,"o":"m 696 986 b 744 939 731 986 744 974 l 744 871 b 696 824 744 836 731 824 l 271 824 l 271 581 l 631 581 b 678 533 665 581 678 568 l 678 465 b 631 418 678 431 665 418 l 271 418 l 271 163 l 711 163 b 758 115 746 163 758 150 l 758 47 b 743 6 758 32 753 18 b 676 -218 610 -117 622 -225 b 708 -206 689 -218 699 -214 b 736 -212 721 -196 729 -199 l 754 -258 b 753 -287 761 -271 760 -281 b 622 -337 718 -321 675 -337 b 500 -254 557 -337 511 -304 b 624 0 482 -182 531 -78 l 144 0 b 96 47 110 0 96 13 l 96 939 b 144 986 96 974 110 986 "},"ę":{"ha":746,"x_min":0,"x_max":0,"o":"m 56 440 b 378 740 56 635 168 740 b 699 453 589 740 699 621 l 699 368 b 636 308 699 328 678 308 l 217 308 l 217 257 b 375 118 217 167 274 118 b 539 192 453 118 507 143 b 610 208 561 224 576 226 l 658 182 b 675 113 690 167 696 144 b 639 65 665 94 653 79 b 543 -89 596 14 564 -37 b 519 -193 522 -139 514 -174 b 556 -222 525 -212 538 -222 b 593 -208 571 -222 583 -218 b 619 -217 606 -200 615 -203 l 639 -261 b 638 -290 644 -274 644 -283 b 506 -340 603 -324 560 -340 b 382 -257 432 -340 392 -312 b 489 -8 367 -185 401 -101 b 375 -21 457 -17 419 -21 b 56 276 158 -21 56 94 m 538 463 b 378 604 538 553 483 604 b 217 463 274 604 217 553 l 217 432 l 538 432 "},"Ě":{"ha":804,"x_min":0,"x_max":0,"o":"m 626 1260 b 647 1225 660 1260 665 1243 l 506 1090 b 429 1053 472 1056 463 1053 l 413 1053 b 329 1090 369 1053 363 1056 l 189 1225 b 210 1260 171 1243 176 1260 l 267 1260 b 332 1236 304 1260 311 1258 l 417 1157 l 496 1236 b 564 1260 514 1257 526 1260 m 696 986 b 744 939 731 986 744 974 l 744 871 b 696 824 744 836 731 824 l 271 824 l 271 581 l 631 581 b 678 533 665 581 678 568 l 678 465 b 631 418 678 431 665 418 l 271 418 l 271 163 l 711 163 b 758 115 746 163 758 150 l 758 47 b 711 0 758 13 746 0 l 144 0 b 96 47 110 0 96 13 l 96 939 b 144 986 96 974 110 986 "},"ě":{"ha":746,"x_min":0,"x_max":0,"o":"m 565 993 b 585 961 597 993 601 978 l 456 835 b 385 801 426 803 418 801 l 369 801 b 294 835 331 801 324 803 l 165 961 b 183 993 146 982 151 993 l 236 993 b 297 971 269 993 276 992 l 374 897 l 446 971 b 508 993 460 986 481 993 m 56 440 b 378 740 56 635 168 740 b 699 453 589 740 699 621 l 699 368 b 636 308 699 328 678 308 l 217 308 l 217 257 b 375 118 217 167 274 118 b 539 192 453 118 507 143 b 610 208 561 224 576 226 l 658 182 b 675 113 690 167 696 144 b 375 -21 621 24 521 -21 b 56 276 158 -21 56 94 m 538 463 b 378 604 538 553 483 604 b 217 463 274 604 217 553 l 217 432 l 538 432 "},"Ĝ":{"ha":919,"x_min":0,"x_max":0,"o":"m 478 1276 b 554 1239 511 1276 521 1274 l 696 1103 b 675 1068 714 1085 708 1068 l 613 1068 b 544 1093 582 1068 560 1076 l 465 1172 l 381 1093 b 315 1068 360 1071 353 1068 l 258 1068 b 238 1103 225 1068 219 1085 l 379 1239 b 461 1276 413 1272 421 1276 m 814 540 b 861 493 851 540 861 528 l 861 307 b 757 71 861 210 826 131 b 465 -21 686 10 589 -21 b 68 342 211 -21 68 115 l 68 646 b 465 1007 68 869 211 1007 b 843 775 663 1007 789 929 b 814 714 854 746 844 725 l 738 688 b 678 717 704 675 690 682 b 465 844 647 801 576 844 b 243 647 321 844 243 775 l 243 340 b 465 142 243 211 322 142 b 690 306 604 142 690 210 l 690 378 l 481 378 b 433 426 446 378 433 392 l 433 493 b 481 540 433 528 446 540 "},"ĝ":{"ha":751,"x_min":0,"x_max":0,"o":"m 404 1011 b 479 974 438 1011 446 1008 l 617 842 b 597 807 635 824 631 807 l 536 807 b 469 831 507 807 485 815 l 392 908 l 310 831 b 246 807 289 810 281 807 l 189 807 b 169 842 156 807 151 824 l 307 974 b 388 1011 340 1007 349 1011 m 64 449 b 378 740 64 643 168 740 b 629 697 482 740 567 726 b 681 621 674 676 681 665 l 681 -24 b 375 -326 681 -214 585 -326 b 88 -193 236 -326 140 -282 b 104 -124 67 -164 72 -140 l 157 -94 b 228 -111 190 -78 206 -82 b 372 -182 257 -158 306 -182 b 519 -32 471 -182 519 -132 l 519 38 b 353 13 457 21 401 13 b 64 292 158 13 64 113 m 507 578 b 389 593 469 588 431 593 b 225 443 279 593 225 543 l 225 296 b 376 160 225 208 278 160 b 519 179 418 160 465 167 l 519 561 b 507 578 519 568 515 574 "},"Ğ":{"ha":919,"x_min":0,"x_max":0,"o":"m 681 1213 b 465 1069 649 1122 571 1069 b 251 1213 360 1069 283 1122 b 271 1251 244 1231 251 1244 l 325 1272 b 368 1258 346 1279 361 1275 b 465 1186 383 1210 417 1186 b 563 1258 514 1186 547 1210 b 599 1274 569 1275 582 1281 l 663 1251 b 681 1213 683 1242 688 1233 m 814 540 b 861 493 851 540 861 528 l 861 307 b 757 71 861 210 826 131 b 465 -21 686 10 589 -21 b 68 342 211 -21 68 115 l 68 646 b 465 1007 68 869 211 1007 b 843 775 663 1007 789 929 b 814 714 854 746 844 725 l 738 688 b 678 717 704 675 690 682 b 465 844 647 801 576 844 b 243 647 321 844 243 775 l 243 340 b 465 142 243 211 322 142 b 690 306 604 142 690 210 l 690 378 l 481 378 b 433 426 446 378 433 392 l 433 493 b 481 540 433 528 446 540 "},"ğ":{"ha":751,"x_min":0,"x_max":0,"o":"m 608 953 b 392 811 576 863 497 811 b 178 953 288 811 207 863 b 197 993 171 972 178 986 l 251 1014 b 294 1000 275 1021 288 1018 b 392 926 310 951 343 926 b 489 1000 440 926 474 951 b 525 1015 496 1015 508 1019 l 589 993 b 608 953 607 985 614 971 m 64 449 b 378 740 64 643 168 740 b 629 697 482 740 567 726 b 681 621 674 676 681 665 l 681 -24 b 375 -326 681 -214 585 -326 b 88 -193 236 -326 140 -282 b 104 -124 67 -164 72 -140 l 157 -94 b 228 -111 190 -78 206 -82 b 372 -182 257 -158 306 -182 b 519 -32 471 -182 519 -132 l 519 38 b 353 13 457 21 401 13 b 64 292 158 13 64 113 m 507 578 b 389 593 469 588 431 593 b 225 443 279 593 225 543 l 225 296 b 376 160 225 208 278 160 b 519 179 418 160 465 167 l 519 561 b 507 578 519 568 515 574 "},"Ġ":{"ha":919,"x_min":0,"x_max":0,"o":"m 469 1247 b 543 1172 526 1247 543 1229 l 543 1161 b 469 1088 543 1104 526 1088 l 461 1088 b 386 1161 404 1088 386 1104 l 386 1172 b 461 1247 386 1229 404 1247 m 814 540 b 861 493 851 540 861 528 l 861 307 b 757 71 861 210 826 131 b 465 -21 686 10 589 -21 b 68 342 211 -21 68 115 l 68 646 b 465 1007 68 869 211 1007 b 843 775 663 1007 789 929 b 814 714 854 746 844 725 l 738 688 b 678 717 704 675 690 682 b 465 844 647 801 576 844 b 243 647 321 844 243 775 l 243 340 b 465 142 243 211 322 142 b 690 306 604 142 690 210 l 690 378 l 481 378 b 433 426 446 378 433 392 l 433 493 b 481 540 433 528 446 540 "},"ġ":{"ha":751,"x_min":0,"x_max":0,"o":"m 396 988 b 471 913 453 988 471 969 l 471 903 b 396 828 471 846 453 828 l 388 828 b 313 903 331 828 313 846 l 313 913 b 388 988 313 969 331 988 m 64 449 b 378 740 64 643 168 740 b 629 697 482 740 567 726 b 681 621 674 676 681 665 l 681 -24 b 375 -326 681 -214 585 -326 b 88 -193 236 -326 140 -282 b 104 -124 67 -164 72 -140 l 157 -94 b 228 -111 190 -78 206 -82 b 372 -182 257 -158 306 -182 b 519 -32 471 -182 519 -132 l 519 38 b 353 13 457 21 401 13 b 64 292 158 13 64 113 m 507 578 b 389 593 469 588 431 593 b 225 443 279 593 225 543 l 225 296 b 376 160 225 208 278 160 b 519 179 418 160 465 167 l 519 561 b 507 578 519 568 515 574 "},"Ģ":{"ha":919,"x_min":0,"x_max":0,"o":"m 814 540 b 861 493 851 540 861 528 l 861 307 b 757 71 861 210 826 131 b 465 -21 686 10 589 -21 b 68 342 211 -21 68 115 l 68 646 b 465 1007 68 869 211 1007 b 843 775 663 1007 789 929 b 814 714 854 746 844 725 l 738 688 b 678 717 704 675 690 682 b 465 844 647 801 576 844 b 243 647 321 844 243 775 l 243 340 b 465 142 243 211 322 142 b 690 306 604 142 690 210 l 690 378 l 481 378 b 433 426 446 378 433 392 l 433 493 b 481 540 433 528 446 540 m 506 -317 b 456 -357 496 -346 483 -357 l 404 -357 b 376 -326 381 -357 372 -350 l 404 -129 b 456 -85 408 -94 421 -85 l 529 -85 b 569 -129 567 -85 581 -100 "},"ģ":{"ha":753,"x_min":0,"x_max":0,"o":"m 361 989 b 415 1028 372 1021 383 1028 l 457 1028 b 486 996 485 1028 490 1022 l 460 844 b 404 794 454 806 442 794 l 343 794 b 307 844 306 794 294 811 m 64 449 b 378 740 64 643 168 740 b 629 697 482 740 567 726 b 681 621 674 676 681 665 l 681 -24 b 375 -326 681 -214 585 -326 b 88 -193 236 -326 140 -282 b 104 -124 67 -164 72 -140 l 157 -94 b 228 -111 190 -78 206 -82 b 372 -182 257 -158 306 -182 b 519 -32 471 -182 519 -132 l 519 38 b 353 13 457 21 401 13 b 64 292 158 13 64 113 m 507 578 b 389 593 469 588 431 593 b 225 443 279 593 225 543 l 225 296 b 376 160 225 208 278 160 b 519 179 418 160 465 167 l 519 561 b 507 578 519 568 515 574 "},"Ĥ":{"ha":953,"x_min":0,"x_max":0,"o":"m 489 1263 b 567 1225 524 1263 532 1260 l 707 1089 b 688 1054 725 1071 721 1054 l 625 1054 b 557 1079 593 1054 571 1063 l 476 1158 l 393 1079 b 326 1054 371 1057 364 1054 l 269 1054 b 249 1089 236 1054 231 1071 l 390 1225 b 472 1263 424 1258 432 1263 m 808 986 b 857 939 843 986 857 974 l 857 47 b 808 0 857 13 843 0 l 729 0 b 682 47 694 0 682 13 l 682 418 l 271 418 l 271 47 b 224 0 271 13 258 0 l 144 0 b 96 47 110 0 96 13 l 96 939 b 144 986 96 974 110 986 l 224 986 b 271 939 258 986 271 974 l 271 581 l 682 581 l 682 939 b 729 986 682 974 694 986 "},"ĥ":{"ha":771,"x_min":0,"x_max":0,"o":"m 178 1294 b 251 1260 211 1294 219 1293 l 386 1128 b 367 1094 404 1111 400 1094 l 307 1094 b 242 1118 278 1094 256 1103 l 165 1194 l 85 1118 b 21 1094 64 1097 56 1094 l -33 1094 b -54 1128 -67 1094 -71 1111 l 82 1260 b 161 1294 114 1292 121 1294 m 203 1028 b 246 985 235 1028 246 1017 l 246 721 b 411 740 258 728 335 740 b 700 461 604 740 700 647 l 700 43 b 657 0 700 11 689 0 l 582 0 b 539 43 550 0 539 11 l 539 457 b 388 593 539 547 489 593 b 246 572 318 593 271 586 l 246 43 b 203 0 246 11 235 0 l 126 0 b 85 43 94 0 85 11 l 85 985 b 126 1028 85 1017 94 1028 "},"Ħ":{"ha":969,"x_min":0,"x_max":0,"o":"m 931 844 b 958 815 951 844 958 838 l 958 775 b 931 744 958 751 953 744 l 865 744 l 865 47 b 818 0 865 13 853 0 l 738 0 b 690 47 703 0 690 13 l 690 418 l 279 418 l 279 47 b 232 0 279 13 267 0 l 153 0 b 106 47 118 0 106 13 l 106 744 l 42 744 b 14 775 19 744 14 751 l 14 815 b 42 844 14 835 24 844 l 106 844 l 106 939 b 153 986 106 974 118 986 l 232 986 b 279 939 267 986 279 974 l 279 844 l 690 844 l 690 939 b 738 986 690 974 703 986 l 818 986 b 865 939 853 986 865 974 l 865 844 m 279 744 l 279 581 l 690 581 l 690 744 "},"ħ":{"ha":771,"x_min":0,"x_max":0,"o":"m 242 721 b 408 740 265 733 321 740 b 697 461 603 740 697 640 l 697 43 b 654 0 697 11 686 0 l 578 0 b 536 43 546 0 536 11 l 536 457 b 385 593 536 547 486 593 b 242 572 317 593 269 586 l 242 43 b 200 0 242 11 232 0 l 124 0 b 81 43 92 0 81 11 l 81 831 l 35 831 b 7 861 13 831 7 838 l 7 896 b 35 926 7 917 17 926 l 81 926 l 81 985 b 124 1028 81 1017 92 1028 l 200 1028 b 242 985 232 1028 242 1017 l 242 926 l 429 926 b 457 896 451 926 457 919 l 457 861 b 429 831 457 838 451 831 l 242 831 "},"Ĩ":{"ha":367,"x_min":0,"x_max":0,"o":"m 364 1243 b 390 1217 382 1243 390 1235 b 274 1063 390 1106 356 1063 b 172 1103 242 1063 207 1076 b 94 1142 138 1129 111 1142 b 61 1089 72 1142 61 1124 b 36 1063 61 1071 53 1063 l -10 1063 b -36 1089 -28 1063 -36 1071 b 79 1243 -36 1200 1 1243 b 185 1204 114 1243 150 1231 b 263 1164 219 1178 246 1164 b 294 1217 283 1164 294 1182 b 319 1243 294 1235 303 1243 m 96 939 b 144 986 96 974 110 986 l 224 986 b 271 939 258 986 271 974 l 271 47 b 224 0 271 13 258 0 l 144 0 b 96 47 110 0 96 13 "},"ĩ":{"ha":321,"x_min":0,"x_max":0,"o":"m 307 1014 b 329 988 322 1014 329 1006 b 231 832 329 872 297 832 b 154 868 204 832 179 844 b 96 904 129 892 110 904 b 65 860 75 904 65 889 b 44 832 65 842 58 832 l 1 832 b -19 860 -12 832 -19 842 b 78 1014 -19 972 13 1014 b 217 938 146 1014 178 938 b 246 988 236 938 246 954 b 267 1014 246 1006 253 1014 m 199 719 b 240 678 231 719 240 710 l 240 43 b 199 0 240 11 231 0 l 122 0 b 79 43 90 0 79 11 l 79 678 b 122 719 79 710 90 719 "},"Ī":{"ha":367,"x_min":0,"x_max":0,"o":"m 344 1208 b 385 1168 376 1208 385 1200 l 385 1133 b 344 1093 385 1101 376 1093 l 24 1093 b -17 1133 -8 1093 -17 1101 l -17 1168 b 24 1208 -17 1200 -6 1208 m 96 939 b 144 986 96 974 110 986 l 224 986 b 271 939 258 986 271 974 l 271 47 b 224 0 271 13 258 0 l 144 0 b 96 47 110 0 96 13 "},"ī":{"ha":321,"x_min":0,"x_max":0,"o":"m 260 957 b 285 919 281 957 285 951 l 285 885 b 260 846 285 853 281 846 l 60 846 b 35 885 39 846 35 856 l 35 919 b 60 957 35 949 42 957 m 199 719 b 240 678 231 719 240 710 l 240 43 b 199 0 240 11 231 0 l 122 0 b 79 43 90 0 79 11 l 79 678 b 122 719 79 710 90 719 "},"Ĭ":{"ha":367,"x_min":0,"x_max":0,"o":"m 411 1199 b 194 1056 379 1108 300 1056 b -18 1199 90 1056 11 1108 b 0 1238 -25 1217 -19 1231 l 56 1258 b 99 1244 76 1265 92 1261 b 194 1172 114 1196 146 1172 b 293 1244 243 1172 276 1196 b 329 1260 300 1261 313 1267 l 392 1238 b 411 1199 414 1228 418 1219 m 107 939 b 156 986 107 974 121 986 l 235 986 b 282 939 269 986 282 974 l 282 47 b 235 0 282 13 269 0 l 156 0 b 107 47 121 0 107 13 "},"ĭ":{"ha":321,"x_min":0,"x_max":0,"o":"m 349 992 b 367 953 369 982 374 975 b 169 811 336 858 271 811 b -25 953 69 811 4 858 b -6 992 -32 972 -25 985 l 49 1014 b 92 999 69 1021 85 1015 b 169 931 104 953 131 931 b 249 999 210 931 236 953 b 285 1014 256 1015 268 1021 m 208 719 b 250 678 240 719 250 710 l 250 43 b 208 0 250 11 240 0 l 132 0 b 89 43 100 0 89 11 l 89 678 b 132 719 89 710 100 719 "},"Į":{"ha":367,"x_min":0,"x_max":0,"o":"m 326 -261 b 325 -290 332 -274 332 -283 b 193 -340 290 -324 247 -340 b 69 -257 119 -340 79 -312 b 174 0 53 -179 88 -93 b 121 47 133 0 121 14 l 121 939 b 169 986 121 974 135 986 l 249 986 b 296 939 283 986 296 974 l 296 47 b 283 6 296 31 292 17 b 207 -193 218 -74 197 -154 b 243 -222 213 -212 225 -222 b 281 -208 258 -222 271 -218 b 307 -217 293 -200 303 -203 "},"į":{"ha":321,"x_min":0,"x_max":0,"o":"m 174 808 b 89 893 111 808 89 828 l 89 906 b 174 989 89 968 108 989 l 183 989 b 268 906 249 989 268 968 l 268 893 b 183 808 268 828 249 808 m 301 -261 b 300 -290 307 -274 307 -283 b 179 -340 268 -324 228 -340 b 56 -253 106 -340 64 -311 b 138 0 43 -174 71 -89 b 99 43 108 0 99 11 l 99 678 b 140 719 99 710 108 719 l 217 719 b 260 678 249 719 260 710 l 260 43 b 251 10 260 28 257 17 b 194 -192 203 -67 185 -135 b 229 -222 197 -212 208 -222 b 258 -210 242 -222 251 -218 b 285 -217 271 -203 279 -204 "},"İ":{"ha":367,"x_min":0,"x_max":0,"o":"m 188 1233 b 263 1158 244 1233 263 1215 l 263 1147 b 188 1074 263 1090 244 1074 l 181 1074 b 106 1147 124 1074 106 1090 l 106 1158 b 181 1233 106 1215 124 1233 m 96 939 b 144 986 96 974 110 986 l 224 986 b 271 939 258 986 271 974 l 271 47 b 224 0 271 13 258 0 l 144 0 b 96 47 110 0 96 13 "},"ı":{"ha":321,"x_min":0,"x_max":0,"o":"m 199 719 b 242 678 231 719 242 710 l 242 43 b 199 0 242 11 231 0 l 122 0 b 81 43 90 0 81 11 l 81 678 b 122 719 81 710 90 719 "},"Ĳ":{"ha":1172,"x_min":0,"x_max":0,"o":"m 96 939 b 144 986 96 974 110 986 l 224 986 b 271 939 258 986 271 974 l 271 47 b 224 0 271 13 258 0 l 144 0 b 96 47 110 0 96 13 m 1036 986 b 1082 940 1071 986 1082 974 l 1082 325 b 728 -21 1082 108 957 -21 b 392 211 554 -21 442 57 b 421 272 382 240 392 261 l 497 299 b 558 269 531 311 543 304 b 728 142 588 182 638 142 b 908 324 849 142 908 203 l 908 940 b 954 986 908 974 919 986 "},"ĳ":{"ha":657,"x_min":0,"x_max":0,"o":"m 165 989 b 250 906 231 989 250 968 l 250 893 b 165 808 250 828 231 808 l 156 808 b 71 893 93 808 71 828 l 71 906 b 156 989 71 968 90 989 m 500 989 b 585 906 565 989 585 968 l 585 893 b 500 808 585 828 563 808 l 490 808 b 406 893 425 808 406 828 l 406 906 b 490 989 406 968 425 989 m 199 719 b 242 678 231 719 242 710 l 242 43 b 199 0 242 11 231 0 l 122 0 b 81 43 90 0 81 11 l 81 678 b 122 719 81 710 90 719 m 532 719 b 576 678 565 719 576 710 l 576 -10 b 258 -319 576 -217 471 -319 b 215 -275 225 -319 215 -308 l 215 -214 b 258 -169 215 -181 225 -169 b 415 -6 371 -169 415 -112 l 415 678 b 458 719 415 710 425 719 "},"Ĵ":{"ha":801,"x_min":0,"x_max":0,"o":"m 656 1263 b 732 1225 689 1263 699 1260 l 874 1089 b 853 1054 892 1071 886 1054 l 790 1054 b 722 1079 760 1054 738 1063 l 642 1158 l 558 1079 b 493 1054 538 1057 531 1054 l 435 1054 b 415 1089 401 1054 397 1071 l 556 1225 b 639 1263 590 1260 596 1263 m 683 986 b 729 940 717 986 729 974 l 729 325 b 375 -21 729 108 604 -21 b 39 211 201 -21 89 57 b 68 272 28 240 38 261 l 144 299 b 204 269 176 311 189 304 b 375 142 233 182 282 142 b 554 324 494 142 554 203 l 554 940 b 601 986 554 974 567 986 "},"ĵ":{"ha":324,"x_min":0,"x_max":0,"o":"m 174 1011 b 249 975 207 1011 217 1008 l 381 842 b 360 808 401 819 394 808 l 300 808 b 233 831 263 808 250 810 l 161 908 l 86 831 b 22 808 65 810 57 808 l -35 808 b -54 842 -68 808 -75 819 l 76 975 b 157 1011 110 1008 118 1011 m 199 719 b 242 678 232 719 242 710 l 242 -10 b -75 -319 242 -217 136 -319 b -119 -275 -108 -319 -119 -308 l -119 -214 b -75 -169 -119 -181 -108 -169 b 81 -6 36 -169 81 -112 l 81 678 b 125 719 81 710 92 719 "},"Ķ":{"ha":871,"x_min":0,"x_max":0,"o":"m 846 47 b 822 0 863 15 854 0 l 742 0 b 647 42 681 0 664 7 l 507 324 b 446 401 488 361 467 388 b 342 421 424 414 389 421 l 271 421 l 271 47 b 224 0 271 13 258 0 l 144 0 b 96 47 110 0 96 13 l 96 939 b 144 986 96 974 110 986 l 224 986 b 271 939 258 986 271 974 l 271 579 l 326 579 l 344 579 l 624 947 b 718 986 647 981 663 986 l 807 986 b 829 940 839 986 847 964 l 519 544 b 669 386 579 518 629 465 m 474 -317 b 425 -357 464 -346 453 -357 l 372 -357 b 346 -326 349 -357 342 -350 l 374 -129 b 425 -85 375 -94 390 -85 l 497 -85 b 539 -129 535 -85 549 -100 "},"ķ":{"ha":726,"x_min":0,"x_max":0,"o":"m 693 51 b 667 0 714 14 707 0 l 596 0 b 522 39 547 0 538 6 l 436 224 b 325 292 415 269 379 292 l 242 292 l 242 44 b 197 0 242 11 232 0 l 126 0 b 81 44 92 0 81 11 l 81 983 b 126 1028 81 1017 92 1028 l 197 1028 b 242 983 232 1028 242 1017 l 242 442 l 304 442 l 314 442 l 503 688 b 586 719 524 717 535 719 l 654 719 b 682 669 699 719 708 703 l 472 410 b 572 294 511 390 544 351 m 418 -279 b 365 -319 408 -311 397 -319 l 324 -319 b 293 -286 296 -319 289 -312 l 317 -119 b 372 -69 321 -81 335 -69 l 433 -69 b 469 -119 471 -69 482 -86 "},"ĸ":{"ha":700,"x_min":0,"x_max":0,"o":"m 668 51 b 642 0 694 17 686 0 l 571 0 b 482 35 521 0 503 6 l 315 268 l 242 182 l 242 44 b 196 0 242 11 231 0 l 125 0 b 81 44 90 0 81 11 l 81 676 b 125 719 81 710 90 719 l 196 719 b 242 676 231 719 242 710 l 242 407 l 479 688 b 563 719 501 717 513 719 l 631 719 b 658 669 678 719 688 703 l 421 392 "},"Ĺ":{"ha":733,"x_min":0,"x_max":0,"o":"m 256 1256 b 335 1253 290 1275 317 1274 l 371 1208 b 364 1161 392 1185 392 1172 l 122 1060 b 69 1061 96 1050 78 1050 l 50 1088 b 51 1132 33 1108 33 1122 m 249 986 b 296 939 283 986 296 974 l 296 163 l 694 163 b 742 115 729 163 742 150 l 742 47 b 694 0 742 13 729 0 l 169 0 b 121 47 135 0 121 13 l 121 939 b 169 986 121 974 135 986 "},"ĺ":{"ha":331,"x_min":0,"x_max":0,"o":"m 193 1254 b 264 1249 222 1272 246 1269 l 304 1197 b 299 1150 325 1174 326 1158 l 92 1071 b 38 1074 64 1061 46 1061 l 14 1106 b 17 1151 -4 1129 -6 1140 m 244 43 b 201 0 244 11 233 0 l 126 0 b 83 43 94 0 83 11 l 83 985 b 126 1028 83 1017 94 1028 l 201 1028 b 244 985 233 1028 244 1017 "},"Ļ":{"ha":733,"x_min":0,"x_max":0,"o":"m 224 986 b 271 939 258 986 271 974 l 271 163 l 669 163 b 717 115 704 163 717 150 l 717 47 b 669 0 717 13 704 0 l 144 0 b 96 47 110 0 96 13 l 96 939 b 144 986 96 974 110 986 m 419 -317 b 371 -357 413 -343 396 -357 l 319 -357 b 292 -326 296 -357 288 -350 l 319 -129 b 371 -85 324 -94 336 -85 l 444 -85 b 485 -129 482 -85 496 -100 "},"ļ":{"ha":331,"x_min":0,"x_max":0,"o":"m 247 43 b 204 0 247 11 236 0 l 129 0 b 86 43 96 0 86 11 l 86 985 b 129 1028 86 1017 96 1028 l 204 1028 b 247 985 236 1028 247 1017 m 185 -267 b 132 -306 175 -299 164 -306 l 90 -306 b 60 -274 63 -306 58 -300 l 83 -104 b 140 -54 89 -65 101 -54 l 200 -54 b 238 -104 236 -54 249 -71 "},"Ľ":{"ha":735,"x_min":0,"x_max":0,"o":"m 224 986 b 271 939 258 986 271 974 l 271 163 l 669 163 b 717 115 704 163 717 150 l 717 47 b 669 0 717 13 704 0 l 144 0 b 96 47 110 0 96 13 l 96 939 b 144 986 96 974 110 986 m 549 707 b 501 668 539 678 528 668 l 463 668 b 436 697 439 668 435 674 l 469 942 b 519 986 471 976 485 986 l 586 986 b 624 942 622 986 635 971 "},"ľ":{"ha":340,"x_min":0,"x_max":0,"o":"m 246 43 b 203 0 246 11 235 0 l 128 0 b 85 43 94 0 85 11 l 85 985 b 128 1028 85 1017 94 1028 l 203 1028 b 246 985 235 1028 246 1017 m 442 782 b 394 744 432 753 422 744 l 357 744 b 329 774 333 744 328 750 l 357 983 b 407 1028 363 1018 372 1028 l 474 1028 b 513 983 511 1028 524 1013 "},"Ŀ":{"ha":735,"x_min":0,"x_max":0,"o":"m 224 986 b 271 939 258 986 271 974 l 271 163 l 669 163 b 717 115 704 163 717 150 l 717 47 b 669 0 717 13 704 0 l 144 0 b 96 47 110 0 96 13 l 96 939 b 144 986 96 974 110 986 m 517 626 b 606 538 585 626 606 604 l 606 525 b 517 436 606 457 585 436 l 507 436 b 418 525 440 436 418 457 l 418 538 b 507 626 418 604 440 626 "},"ŀ":{"ha":535,"x_min":0,"x_max":0,"o":"m 246 43 b 203 0 246 11 235 0 l 128 0 b 85 43 94 0 85 11 l 85 985 b 128 1028 85 1017 94 1028 l 203 1028 b 246 985 235 1028 246 1017 m 440 618 b 529 529 508 618 529 596 l 529 517 b 440 428 529 449 508 428 l 431 428 b 342 517 363 428 342 449 l 342 529 b 431 618 342 596 363 618 "},"Ł":{"ha":781,"x_min":0,"x_max":0,"o":"m 729 163 b 776 115 764 163 776 150 l 776 47 b 729 0 776 13 764 0 l 204 0 b 157 47 169 0 157 13 l 157 360 l 81 325 b 35 340 60 315 44 319 l 10 390 b 24 431 0 408 4 422 l 157 492 l 157 939 b 204 986 157 974 169 986 l 283 986 b 331 939 318 986 331 974 l 331 571 l 543 669 b 590 654 564 679 581 674 l 615 603 b 600 563 625 582 619 569 l 331 439 l 331 163 "},"ł":{"ha":463,"x_min":0,"x_max":0,"o":"m 464 608 b 453 567 474 590 471 576 l 324 496 l 324 43 b 281 0 324 11 313 0 l 206 0 b 163 43 174 0 163 11 l 163 408 l 103 375 b 56 386 82 365 65 368 l 28 433 b 40 475 18 451 22 465 l 163 543 l 163 985 b 206 1028 163 1017 174 1028 l 281 1028 b 324 985 313 1028 324 1017 l 324 629 l 390 667 b 438 656 410 676 425 674 "},"Ń":{"ha":967,"x_min":0,"x_max":0,"o":"m 532 1256 b 610 1253 567 1274 592 1274 l 646 1208 b 640 1161 667 1185 667 1172 l 399 1060 b 344 1061 372 1050 354 1050 l 325 1088 b 328 1132 308 1108 310 1122 m 822 986 b 869 939 857 986 869 974 l 869 47 b 822 0 869 13 857 0 l 743 0 b 697 24 722 0 707 8 l 357 526 b 243 760 299 611 240 764 l 235 760 b 265 483 235 764 265 600 l 265 47 b 218 0 265 13 253 0 l 144 0 b 96 47 110 0 96 13 l 96 939 b 144 986 96 974 110 986 l 224 986 b 269 964 244 986 260 979 l 607 464 b 724 228 671 371 725 226 l 732 228 b 701 508 732 226 701 383 l 701 939 b 749 986 701 974 714 986 "},"ń":{"ha":768,"x_min":0,"x_max":0,"o":"m 433 1013 b 513 1010 468 1031 494 1031 l 547 965 b 542 918 568 942 568 929 l 300 817 b 246 819 274 807 256 807 l 226 844 b 229 889 210 865 211 879 m 132 693 b 406 740 211 725 301 740 b 694 461 600 740 694 640 l 694 43 b 651 0 694 11 683 0 l 575 0 b 533 43 543 0 533 11 l 533 457 b 382 593 533 547 483 593 b 249 575 338 593 293 588 b 239 561 242 572 239 568 l 239 43 b 197 0 239 11 229 0 l 121 0 b 78 43 89 0 78 11 l 78 614 b 132 693 78 658 88 675 "},"Ņ":{"ha":967,"x_min":0,"x_max":0,"o":"m 822 986 b 869 939 857 986 869 974 l 869 47 b 822 0 869 13 857 0 l 743 0 b 697 24 722 0 707 8 l 357 526 b 243 760 299 611 240 764 l 235 760 b 265 483 235 764 265 600 l 265 47 b 218 0 265 13 253 0 l 144 0 b 96 47 110 0 96 13 l 96 939 b 144 986 96 974 110 986 l 224 986 b 269 964 244 986 260 979 l 607 464 b 724 228 671 371 725 226 l 732 228 b 701 508 732 226 701 383 l 701 939 b 749 986 701 974 714 986 m 515 -317 b 465 -357 506 -346 493 -357 l 414 -357 b 386 -326 390 -357 382 -350 l 414 -129 b 465 -85 418 -94 431 -85 l 539 -85 b 579 -129 576 -85 590 -100 "},"ņ":{"ha":768,"x_min":0,"x_max":0,"o":"m 132 693 b 406 740 211 725 301 740 b 694 461 600 740 694 640 l 694 43 b 651 0 694 11 683 0 l 575 0 b 533 43 543 0 533 11 l 533 457 b 382 593 533 547 483 593 b 249 575 338 593 293 588 b 239 561 242 572 239 568 l 239 43 b 197 0 239 11 229 0 l 121 0 b 78 43 89 0 78 11 l 78 614 b 132 693 78 658 88 675 m 418 -265 b 364 -304 407 -297 396 -304 l 322 -304 b 293 -272 294 -304 289 -299 l 315 -104 b 372 -54 321 -65 333 -54 l 432 -54 b 469 -104 468 -54 481 -71 "},"Ň":{"ha":967,"x_min":0,"x_max":0,"o":"m 690 1260 b 711 1225 724 1260 729 1243 l 569 1090 b 493 1053 536 1056 526 1053 l 476 1053 b 393 1090 433 1053 426 1056 l 253 1225 b 272 1260 235 1243 239 1260 l 331 1260 b 396 1236 368 1260 375 1258 l 481 1157 l 560 1236 b 628 1260 578 1257 590 1260 m 822 986 b 869 939 857 986 869 974 l 869 47 b 822 0 869 13 857 0 l 743 0 b 697 24 722 0 707 8 l 357 526 b 243 760 299 611 240 764 l 235 760 b 265 483 235 764 265 600 l 265 47 b 218 0 265 13 253 0 l 144 0 b 96 47 110 0 96 13 l 96 939 b 144 986 96 974 110 986 l 224 986 b 269 964 244 986 260 979 l 607 464 b 724 228 671 371 725 226 l 732 228 b 701 508 732 226 701 383 l 701 939 b 749 986 701 974 714 986 "},"ň":{"ha":768,"x_min":0,"x_max":0,"o":"m 575 993 b 593 961 607 993 613 982 l 464 835 b 394 801 435 803 426 801 l 379 801 b 303 835 340 801 335 803 l 174 961 b 192 993 157 978 163 993 l 246 993 b 306 971 279 993 288 992 l 382 897 l 456 971 b 518 993 469 986 490 993 m 132 693 b 406 740 211 725 301 740 b 694 461 600 740 694 640 l 694 43 b 651 0 694 11 683 0 l 575 0 b 533 43 543 0 533 11 l 533 457 b 382 593 533 547 483 593 b 249 575 338 593 293 588 b 239 561 242 572 239 568 l 239 43 b 197 0 239 11 229 0 l 121 0 b 78 43 89 0 78 11 l 78 614 b 132 693 78 658 88 675 "},"ŉ":{"ha":768,"x_min":0,"x_max":0,"o":"m 164 778 b 114 749 147 754 142 749 l 75 749 b 54 778 51 749 47 756 l 131 990 b 181 1028 142 1019 149 1028 l 258 1028 b 286 983 296 1028 304 1013 m 136 693 b 410 740 215 725 306 740 b 699 461 604 740 699 640 l 699 43 b 656 0 699 11 688 0 l 579 0 b 538 43 547 0 538 11 l 538 457 b 386 593 538 547 488 593 b 253 575 342 593 297 588 b 243 561 246 572 243 568 l 243 43 b 201 0 243 11 233 0 l 125 0 b 82 43 93 0 82 11 l 82 614 b 136 693 82 658 92 675 "},"Ŋ":{"ha":967,"x_min":0,"x_max":0,"o":"m 822 986 b 869 939 857 986 869 974 l 869 -11 b 546 -319 869 -207 761 -319 b 501 -275 513 -319 501 -308 l 501 -214 b 546 -169 501 -181 513 -169 b 701 -7 650 -169 701 -115 l 701 15 l 357 526 b 243 760 299 611 240 764 l 235 760 b 265 489 235 764 265 606 l 265 47 b 218 0 265 13 253 0 l 144 0 b 96 47 110 0 96 13 l 96 939 b 144 986 96 974 110 986 l 224 986 b 269 964 244 986 260 979 l 607 464 b 724 228 671 371 725 226 l 732 228 b 701 508 732 226 701 383 l 701 939 b 749 986 701 974 714 986 "},"ŋ":{"ha":768,"x_min":0,"x_max":0,"o":"m 132 693 b 406 740 211 725 301 740 b 694 461 600 740 694 640 l 694 -24 b 382 -319 694 -212 589 -319 b 340 -278 350 -319 340 -310 l 340 -218 b 382 -176 340 -186 350 -176 b 533 -18 483 -176 533 -124 l 533 457 b 382 593 533 547 483 593 b 249 575 338 593 293 588 b 239 561 242 572 239 568 l 239 43 b 197 0 239 11 229 0 l 121 0 b 78 43 89 0 78 11 l 78 614 b 132 693 78 658 88 675 "},"Ō":{"ha":929,"x_min":0,"x_max":0,"o":"m 626 1222 b 667 1182 658 1222 667 1214 l 667 1147 b 626 1107 667 1115 658 1107 l 304 1107 b 264 1147 272 1107 264 1115 l 264 1182 b 304 1222 264 1214 275 1222 m 68 644 b 465 1007 68 871 211 1007 b 861 644 717 1007 861 871 l 861 342 b 465 -21 861 115 717 -21 b 68 342 211 -21 68 115 m 688 646 b 465 844 688 774 608 844 b 243 646 322 844 243 775 l 243 340 b 465 142 243 211 322 142 b 688 340 608 142 688 213 "},"ō":{"ha":754,"x_min":0,"x_max":0,"o":"m 525 956 b 561 917 554 956 561 949 l 561 883 b 525 844 561 851 554 844 l 229 844 b 192 883 200 844 192 854 l 192 917 b 229 956 192 946 201 956 m 57 463 b 376 740 57 636 172 740 b 697 463 582 740 697 636 l 697 257 b 376 -21 697 83 582 -21 b 57 257 172 -21 57 83 m 536 463 b 376 594 536 547 478 594 b 218 463 275 594 218 547 l 218 257 b 376 125 218 174 275 125 b 536 257 478 125 536 174 "},"Ŏ":{"ha":929,"x_min":0,"x_max":0,"o":"m 681 1213 b 465 1069 649 1122 571 1069 b 251 1213 361 1069 281 1122 b 271 1251 244 1231 251 1244 l 325 1272 b 368 1258 346 1279 361 1275 b 465 1186 383 1210 417 1186 b 563 1258 514 1186 547 1210 b 599 1274 569 1275 582 1281 l 663 1251 b 681 1213 685 1242 688 1233 m 68 644 b 465 1007 68 871 211 1007 b 861 644 717 1007 861 871 l 861 342 b 465 -21 861 115 717 -21 b 68 342 211 -21 68 115 m 688 646 b 465 844 688 774 608 844 b 243 646 322 844 243 775 l 243 340 b 465 142 243 211 322 142 b 688 340 608 142 688 213 "},"ŏ":{"ha":754,"x_min":0,"x_max":0,"o":"m 593 953 b 376 811 561 863 482 811 b 163 953 272 811 192 863 b 182 993 157 972 164 986 l 238 1014 b 281 1000 258 1021 274 1015 b 376 926 296 951 328 926 b 475 1000 425 926 457 951 b 511 1015 482 1015 494 1019 l 574 993 b 593 953 592 985 599 971 m 57 463 b 376 740 57 636 172 740 b 697 463 582 740 697 636 l 697 257 b 376 -21 697 83 582 -21 b 57 257 172 -21 57 83 m 536 463 b 376 594 536 547 478 594 b 218 463 275 594 218 547 l 218 257 b 376 125 218 174 275 125 b 536 257 478 125 536 174 "},"Ő":{"ha":929,"x_min":0,"x_max":0,"o":"m 357 1254 b 429 1282 376 1281 400 1290 l 478 1265 b 490 1218 508 1256 513 1240 l 349 1090 b 299 1072 329 1074 313 1068 l 275 1081 b 261 1122 251 1088 247 1101 m 592 1254 b 665 1282 613 1281 636 1290 l 717 1265 b 729 1218 750 1254 754 1239 l 575 1085 b 525 1067 556 1068 539 1063 l 501 1074 b 488 1117 476 1081 472 1096 m 68 644 b 465 1007 68 871 211 1007 b 861 644 717 1007 861 871 l 861 342 b 465 -21 861 115 717 -21 b 68 342 211 -21 68 115 m 688 646 b 465 844 688 774 608 844 b 243 646 322 844 243 775 l 243 340 b 465 142 243 211 322 142 b 688 340 608 142 688 213 "},"ő":{"ha":754,"x_min":0,"x_max":0,"o":"m 276 965 b 344 990 294 990 317 999 l 389 975 b 400 932 415 965 419 951 l 269 815 b 224 799 251 800 236 794 l 201 806 b 189 844 179 813 175 825 m 494 964 b 561 990 513 989 535 997 l 608 975 b 621 932 639 964 643 950 l 478 810 b 432 793 460 794 444 789 l 410 800 b 397 840 386 807 382 821 m 57 463 b 376 740 57 636 172 740 b 697 463 582 740 697 636 l 697 257 b 376 -21 697 83 582 -21 b 57 257 172 -21 57 83 m 536 463 b 376 594 536 547 478 594 b 218 463 275 594 218 547 l 218 257 b 376 125 218 174 275 125 b 536 257 478 125 536 174 "},"Œ":{"ha":1193,"x_min":0,"x_max":0,"o":"m 1100 163 b 1147 115 1135 163 1147 150 l 1147 47 b 1100 0 1147 13 1135 0 l 621 0 b 465 -21 575 -14 524 -21 b 68 342 211 -21 68 115 l 68 644 b 465 1007 68 871 211 1007 b 621 986 525 1007 576 1000 l 1085 986 b 1132 939 1119 986 1132 974 l 1132 871 b 1085 824 1132 836 1119 824 l 747 824 l 747 581 l 1018 581 b 1065 533 1053 581 1065 568 l 1065 465 b 1018 418 1065 431 1053 418 l 747 418 l 747 163 m 243 340 b 465 142 243 211 322 142 b 574 158 507 142 543 147 l 574 828 b 465 844 542 839 506 844 b 243 646 322 844 243 775 "},"œ":{"ha":1151,"x_min":0,"x_max":0,"o":"m 582 660 b 801 740 631 714 704 740 b 1104 454 1003 740 1104 625 l 1104 368 b 1042 308 1104 328 1083 308 l 660 308 l 660 257 b 801 118 660 164 707 118 b 944 192 865 118 913 143 b 1014 208 967 221 981 225 l 1064 182 b 1079 113 1094 165 1100 142 b 800 -21 1026 24 933 -21 b 581 60 701 -21 629 6 b 358 -21 532 6 457 -21 b 58 256 165 -21 58 83 l 58 463 b 358 740 58 636 165 740 b 582 660 458 740 533 714 m 943 463 b 801 604 943 557 896 604 b 660 463 707 604 660 557 l 660 432 l 943 432 m 499 463 b 358 594 499 550 451 594 b 219 463 268 594 219 547 l 219 257 b 358 125 219 174 269 125 b 499 257 451 125 499 172 "},"Ŕ":{"ha":904,"x_min":0,"x_max":0,"o":"m 497 1256 b 576 1253 532 1275 558 1274 l 613 1208 b 606 1161 633 1185 633 1172 l 364 1060 b 311 1061 338 1050 319 1050 l 290 1088 b 293 1132 274 1108 275 1122 m 528 986 b 840 681 722 986 840 871 b 657 400 840 538 774 439 b 701 340 674 386 689 367 l 854 47 b 831 0 871 15 863 0 l 750 0 b 656 42 689 0 672 7 l 539 278 b 374 375 501 356 468 375 l 271 375 l 271 47 b 224 0 271 13 258 0 l 144 0 b 96 47 110 0 96 13 l 96 939 b 144 986 96 974 110 986 m 619 575 b 657 681 644 599 657 635 b 619 788 657 726 644 763 b 511 824 594 811 558 824 l 271 824 l 271 538 l 511 538 b 619 575 557 538 593 550 "},"ŕ":{"ha":489,"x_min":0,"x_max":0,"o":"m 336 1011 b 415 1010 371 1032 397 1031 l 450 965 b 444 918 471 942 472 926 l 203 817 b 149 818 176 806 158 806 l 129 844 b 132 889 113 865 114 879 m 390 740 l 435 740 b 478 697 467 740 478 731 l 478 636 b 435 593 478 604 467 593 l 385 593 b 253 576 333 593 289 588 b 239 560 243 575 239 569 l 239 43 b 197 0 239 11 229 0 l 121 0 b 78 43 89 0 78 11 l 78 619 b 132 699 78 664 88 681 b 390 740 200 724 286 738 "},"Ŗ":{"ha":904,"x_min":0,"x_max":0,"o":"m 528 986 b 840 681 722 986 840 871 b 657 400 840 538 774 439 b 701 340 674 386 689 367 l 854 47 b 831 0 871 15 863 0 l 750 0 b 656 42 689 0 672 7 l 539 278 b 374 375 501 356 468 375 l 271 375 l 271 47 b 224 0 271 13 258 0 l 144 0 b 96 47 110 0 96 13 l 96 939 b 144 986 96 974 110 986 m 619 575 b 657 681 644 599 657 635 b 619 788 657 726 644 763 b 511 824 594 811 558 824 l 271 824 l 271 538 l 511 538 b 619 575 557 538 593 550 m 493 -317 b 444 -357 483 -346 472 -357 l 392 -357 b 364 -326 368 -357 363 -350 l 393 -129 b 444 -85 394 -94 410 -85 l 517 -85 b 557 -129 554 -85 568 -100 "},"ŗ":{"ha":489,"x_min":0,"x_max":0,"o":"m 393 740 l 438 740 b 481 697 469 740 481 731 l 481 636 b 438 593 481 604 469 593 l 388 593 b 256 576 336 593 292 588 b 242 560 246 575 242 569 l 242 43 b 200 0 242 11 232 0 l 124 0 b 81 43 92 0 81 11 l 81 619 b 135 699 81 664 90 681 b 393 740 203 724 289 738 m 183 -274 b 129 -312 174 -306 163 -312 l 88 -312 b 58 -281 60 -312 54 -307 l 81 -106 b 136 -56 85 -67 97 -56 l 197 -56 b 235 -106 236 -56 244 -71 "},"Ř":{"ha":904,"x_min":0,"x_max":0,"o":"m 657 1260 b 676 1225 690 1260 694 1243 l 536 1090 b 460 1053 503 1056 493 1053 l 442 1053 b 360 1090 399 1053 392 1056 l 219 1225 b 239 1260 199 1243 204 1260 l 297 1260 b 363 1236 335 1260 340 1258 l 446 1157 l 526 1236 b 594 1260 544 1257 557 1260 m 528 986 b 840 681 722 986 840 871 b 657 400 840 538 774 439 b 701 340 674 386 689 367 l 854 47 b 831 0 871 15 863 0 l 750 0 b 656 42 689 0 672 7 l 539 278 b 374 375 501 356 468 375 l 271 375 l 271 47 b 224 0 271 13 258 0 l 144 0 b 96 47 110 0 96 13 l 96 939 b 144 986 96 974 110 986 m 619 575 b 657 681 644 599 657 635 b 619 788 657 726 644 763 b 511 824 594 811 558 824 l 271 824 l 271 538 l 511 538 b 619 575 557 538 593 550 "},"ř":{"ha":489,"x_min":0,"x_max":0,"o":"m 482 993 b 500 961 514 993 519 982 l 371 835 b 301 800 342 803 333 800 l 285 800 b 210 835 247 800 239 803 l 81 961 b 99 993 64 978 69 993 l 153 993 b 213 971 186 993 194 992 l 289 897 l 363 971 b 425 993 375 986 396 993 m 394 740 l 439 740 b 482 697 471 740 482 731 l 482 636 b 439 593 482 604 471 593 l 389 593 b 257 576 338 593 293 588 b 243 560 247 575 243 569 l 243 43 b 201 0 243 11 233 0 l 125 0 b 82 43 93 0 82 11 l 82 619 b 136 699 82 664 92 681 b 394 740 204 724 290 738 "},"Ś":{"ha":879,"x_min":0,"x_max":0,"o":"m 497 1268 b 575 1267 532 1289 557 1288 l 611 1222 b 606 1175 631 1199 629 1183 l 364 1072 b 310 1075 338 1063 319 1063 l 290 1101 b 293 1146 274 1122 275 1136 m 67 703 b 447 1007 67 885 204 1007 b 813 797 640 1007 744 940 b 786 733 826 768 818 747 l 710 700 b 650 724 678 688 667 692 b 447 840 611 801 553 840 b 246 713 313 840 246 797 b 393 594 238 639 319 606 b 588 565 436 586 536 575 b 763 488 643 554 719 526 b 839 290 806 449 839 379 b 443 -21 839 101 693 -21 b 61 211 233 -21 121 56 b 90 272 49 246 57 261 l 167 300 b 226 271 199 311 211 304 b 443 142 263 185 335 142 b 664 286 590 142 664 190 b 556 399 664 347 611 385 b 444 415 528 406 490 411 b 296 438 382 422 356 425 b 163 494 236 450 207 465 b 67 703 100 535 71 600 "},"ś":{"ha":700,"x_min":0,"x_max":0,"o":"m 414 1013 b 493 1010 449 1032 475 1031 l 529 965 b 522 918 550 942 550 929 l 281 817 b 226 819 254 807 236 807 l 207 844 b 210 889 190 865 192 879 m 69 517 b 356 740 69 654 168 740 b 653 592 504 740 604 690 b 631 529 668 564 660 543 l 568 504 b 510 524 536 492 528 494 b 360 596 483 572 433 596 b 229 521 272 596 229 571 b 392 435 229 460 271 446 b 675 211 581 417 675 367 b 375 -21 675 71 568 -21 b 65 147 213 -21 108 35 b 93 206 54 176 64 196 l 156 225 b 213 199 183 236 200 231 b 369 122 233 147 286 122 b 517 204 468 122 517 150 b 350 293 517 265 474 281 b 193 326 285 300 247 306 b 128 364 167 336 144 349 b 69 517 94 393 69 446 "},"Ŝ":{"ha":879,"x_min":0,"x_max":0,"o":"m 463 1276 b 540 1239 497 1276 506 1274 l 681 1103 b 660 1068 699 1085 693 1068 l 599 1068 b 529 1092 567 1068 544 1076 l 450 1172 l 367 1092 b 300 1068 344 1069 338 1068 l 243 1068 b 222 1103 210 1068 204 1085 l 364 1239 b 446 1276 397 1272 406 1276 m 67 703 b 447 1007 67 885 204 1007 b 813 797 640 1007 744 940 b 786 733 826 768 818 747 l 710 700 b 650 724 678 688 667 692 b 447 840 611 801 553 840 b 246 713 313 840 246 797 b 393 594 238 639 319 606 b 588 565 436 586 536 575 b 763 488 643 554 719 526 b 839 290 806 449 839 379 b 443 -21 839 101 693 -21 b 61 211 233 -21 121 56 b 90 272 49 246 57 261 l 167 300 b 226 271 199 311 211 304 b 443 142 263 185 335 142 b 664 286 590 142 664 190 b 556 399 664 347 611 385 b 444 415 528 406 490 411 b 296 438 382 422 356 425 b 163 494 236 450 207 465 b 67 703 100 535 71 600 "},"ŝ":{"ha":700,"x_min":0,"x_max":0,"o":"m 379 1011 b 456 975 413 1011 422 1008 l 593 842 b 572 808 614 819 607 808 l 513 808 b 446 831 475 808 463 810 l 367 908 l 285 831 b 221 808 264 810 256 808 l 164 808 b 144 842 131 808 124 819 l 282 975 b 363 1011 315 1008 324 1011 m 69 517 b 356 740 69 654 168 740 b 653 592 504 740 604 690 b 631 529 668 564 660 543 l 568 504 b 510 524 536 492 528 494 b 360 596 483 572 433 596 b 229 521 272 596 229 571 b 392 435 229 460 271 446 b 675 211 581 417 675 367 b 375 -21 675 71 568 -21 b 65 147 213 -21 108 35 b 93 206 54 176 64 196 l 156 225 b 213 199 183 236 200 231 b 369 122 233 147 286 122 b 517 204 468 122 517 150 b 350 293 517 265 474 281 b 193 326 285 300 247 306 b 128 364 167 336 144 349 b 69 517 94 393 69 446 "},"Ş":{"ha":878,"x_min":0,"x_max":0,"o":"m 392 594 b 586 565 435 586 535 575 b 679 538 614 560 644 550 b 838 290 774 500 832 429 b 510 -17 838 119 719 4 l 486 -81 b 504 -79 490 -81 499 -79 b 619 -206 576 -79 626 -133 b 433 -342 610 -301 533 -342 b 333 -322 392 -342 358 -335 b 310 -285 318 -315 310 -303 l 308 -242 b 331 -225 308 -224 315 -218 b 413 -247 358 -240 386 -247 b 481 -197 458 -247 481 -231 b 422 -158 481 -171 461 -158 b 388 -160 407 -158 394 -158 b 368 -126 365 -160 358 -149 l 414 -21 b 60 211 221 -14 115 63 b 89 272 47 246 56 261 l 165 300 b 225 271 199 311 210 304 b 442 142 261 185 333 142 b 663 286 589 142 663 190 b 554 399 663 347 610 385 b 443 415 526 406 489 411 b 296 438 381 422 356 425 b 163 494 236 450 207 465 b 67 703 101 533 67 601 b 446 1007 67 885 203 1007 b 811 797 639 1007 743 940 b 785 733 825 768 817 747 l 708 700 b 649 724 676 688 665 692 b 446 840 610 801 551 840 b 244 713 311 840 244 797 b 392 594 236 639 318 606 "},"ş":{"ha":700,"x_min":0,"x_max":0,"o":"m 69 517 b 356 740 69 654 168 740 b 653 592 504 740 604 690 b 631 529 668 564 660 543 l 568 504 b 510 524 536 492 528 494 b 360 596 483 572 433 596 b 229 521 272 596 229 571 b 392 435 229 460 271 446 b 675 211 581 417 675 367 b 426 -18 675 85 588 -1 l 399 -89 b 415 -87 403 -87 408 -87 b 529 -208 488 -87 536 -140 b 349 -339 519 -301 447 -339 b 249 -321 307 -339 274 -333 b 226 -283 233 -314 226 -301 l 225 -243 b 246 -228 225 -225 232 -221 b 328 -249 272 -242 299 -249 b 394 -200 372 -249 394 -232 b 336 -162 394 -175 375 -162 b 301 -164 321 -162 308 -162 b 285 -131 281 -164 275 -153 l 333 -19 b 65 147 193 -10 104 46 b 93 206 54 176 64 196 l 156 225 b 213 199 183 236 200 231 b 369 122 233 147 286 122 b 517 204 468 122 517 150 b 350 293 517 265 474 281 b 193 326 285 300 247 306 b 128 364 167 336 144 349 b 69 517 94 393 69 446 "},"Š":{"ha":879,"x_min":0,"x_max":0,"o":"m 656 1274 b 676 1239 689 1274 694 1257 l 535 1103 b 458 1067 501 1069 493 1067 l 442 1067 b 358 1103 399 1067 392 1069 l 218 1239 b 238 1274 200 1257 204 1274 l 296 1274 b 361 1250 333 1274 340 1272 l 446 1171 l 525 1250 b 593 1274 540 1265 563 1274 m 67 703 b 447 1007 67 885 204 1007 b 813 797 640 1007 744 940 b 786 733 826 768 818 747 l 710 700 b 650 724 678 688 667 692 b 447 840 611 801 553 840 b 246 713 313 840 246 797 b 393 594 238 639 319 606 b 588 565 436 586 536 575 b 763 488 643 554 719 526 b 839 290 806 449 839 379 b 443 -21 839 101 693 -21 b 61 211 233 -21 121 56 b 90 272 49 246 57 261 l 167 300 b 226 271 199 311 211 304 b 443 142 263 185 335 142 b 664 286 590 142 664 190 b 556 399 664 347 611 385 b 444 415 528 406 490 411 b 296 438 382 422 356 425 b 163 494 236 450 207 465 b 67 703 100 535 71 600 "},"š":{"ha":700,"x_min":0,"x_max":0,"o":"m 553 988 b 572 956 585 988 589 972 l 444 833 b 375 800 415 801 407 800 l 360 800 b 285 833 322 800 314 801 l 157 957 b 175 988 140 972 146 988 l 228 988 b 288 965 261 988 269 986 l 364 894 l 436 965 b 497 988 449 981 469 988 m 69 517 b 356 740 69 654 168 740 b 653 592 504 740 604 690 b 631 529 668 564 660 543 l 568 504 b 510 524 536 492 528 494 b 360 596 483 572 433 596 b 229 521 272 596 229 571 b 392 435 229 460 271 446 b 675 211 581 417 675 367 b 375 -21 675 71 568 -21 b 65 147 213 -21 108 35 b 93 206 54 176 64 196 l 156 225 b 213 199 183 236 200 231 b 369 122 233 147 286 122 b 517 204 468 122 517 150 b 350 293 517 265 474 281 b 193 326 285 300 247 306 b 128 364 167 336 144 349 b 69 517 94 393 69 446 "},"Ť":{"ha":786,"x_min":0,"x_max":0,"o":"m 600 1260 b 619 1225 633 1260 638 1243 l 479 1090 b 401 1053 446 1056 436 1053 l 385 1053 b 303 1090 342 1053 335 1056 l 161 1225 b 182 1260 143 1243 149 1260 l 240 1260 b 306 1236 275 1260 283 1258 l 389 1157 l 469 1236 b 538 1260 486 1257 499 1260 m 719 986 b 767 939 754 986 767 974 l 767 871 b 719 824 767 836 754 824 l 481 824 l 481 47 b 433 0 481 13 468 0 l 353 0 b 306 47 318 0 306 13 l 306 824 l 67 824 b 19 871 32 824 19 836 l 19 939 b 67 986 19 974 32 986 "},"ť":{"ha":540,"x_min":0,"x_max":0,"o":"m 500 810 b 451 771 489 781 479 771 l 414 771 b 388 800 390 771 386 776 l 407 983 b 457 1028 408 1017 422 1028 l 522 1028 b 561 983 561 1028 571 1015 m 268 886 b 311 844 300 886 311 876 l 311 719 l 469 719 b 513 678 501 719 513 710 l 513 614 b 469 571 513 582 501 571 l 311 571 l 311 292 b 344 163 311 226 322 183 b 468 132 365 142 407 132 b 513 89 501 132 513 122 l 513 25 b 468 -19 513 -8 501 -18 b 222 42 351 -24 269 -3 b 150 286 174 86 150 168 l 150 571 l 54 571 b 13 614 22 571 13 582 l 13 678 b 54 719 13 710 22 719 l 150 719 l 150 844 b 193 886 150 876 161 886 "},"Ŧ":{"ha":810,"x_min":0,"x_max":0,"o":"m 732 986 b 779 939 767 986 779 974 l 779 871 b 732 824 779 836 767 824 l 492 824 l 492 517 l 657 517 b 685 486 679 517 685 508 l 685 422 b 657 392 685 399 679 392 l 492 392 l 492 47 b 444 0 492 13 479 0 l 365 0 b 318 47 331 0 318 13 l 318 392 l 153 392 b 125 422 131 392 125 399 l 125 486 b 153 517 125 507 135 517 l 318 517 l 318 824 l 79 824 b 32 871 44 824 32 836 l 32 939 b 79 986 32 974 44 986 "},"ŧ":{"ha":544,"x_min":0,"x_max":0,"o":"m 272 888 b 315 844 304 888 315 878 l 315 721 l 474 721 b 517 678 506 721 517 711 l 517 614 b 474 572 517 582 506 572 l 315 572 l 315 426 l 439 426 b 467 397 461 426 467 419 l 467 344 b 439 315 467 321 461 315 l 315 315 l 315 289 b 349 164 315 225 326 183 b 472 133 369 143 411 133 b 515 90 506 133 515 122 l 515 25 b 472 -18 515 -7 506 -17 b 226 43 356 -22 274 -1 b 154 288 178 88 154 169 l 154 315 l 68 315 b 40 344 46 315 40 321 l 40 397 b 68 426 40 417 50 426 l 154 426 l 154 572 l 58 572 b 15 614 26 572 15 582 l 15 678 b 58 721 15 711 26 721 l 154 721 l 154 844 b 196 888 154 878 164 888 "},"Ũ":{"ha":956,"x_min":0,"x_max":0,"o":"m 658 1243 b 685 1217 676 1243 685 1235 b 567 1063 685 1106 650 1063 b 467 1103 535 1063 501 1076 b 388 1142 432 1129 406 1142 b 356 1089 367 1142 356 1124 b 329 1063 356 1071 347 1063 l 285 1063 b 258 1089 267 1063 258 1071 b 372 1243 258 1200 296 1243 b 479 1204 407 1243 443 1231 b 556 1164 514 1178 540 1164 b 589 1217 578 1164 589 1182 b 614 1243 589 1235 597 1243 m 264 338 b 478 142 264 211 338 142 b 692 338 618 142 692 211 l 692 939 b 739 986 692 974 704 986 l 818 986 b 865 939 853 986 865 974 l 865 339 b 478 -21 865 117 728 -21 b 89 339 228 -21 89 117 l 89 939 b 136 986 89 974 101 986 l 217 986 b 264 939 251 986 264 974 "},"ũ":{"ha":768,"x_min":0,"x_max":0,"o":"m 563 1006 b 589 979 581 1006 589 997 b 472 824 589 867 554 824 b 371 864 440 824 406 838 b 293 903 336 890 310 903 b 260 850 271 903 260 885 b 235 824 260 832 251 824 l 189 824 b 163 850 171 824 163 832 b 278 1006 163 961 200 1006 b 383 967 313 1006 349 993 b 460 926 418 940 444 926 b 493 979 482 926 493 944 b 518 1006 493 997 501 1006 m 647 719 b 690 678 679 719 690 710 l 690 106 b 636 28 690 61 681 46 b 364 -21 554 -4 464 -21 b 74 258 169 -21 74 79 l 74 678 b 117 719 74 710 85 719 l 193 719 b 235 678 225 719 235 710 l 235 264 b 386 126 235 172 285 126 b 514 143 435 126 476 132 b 529 167 524 147 529 154 l 529 678 b 572 719 529 710 540 719 "},"Ū":{"ha":956,"x_min":0,"x_max":0,"o":"m 639 1208 b 679 1168 671 1208 679 1200 l 679 1133 b 639 1093 679 1101 671 1093 l 317 1093 b 276 1133 285 1093 276 1101 l 276 1168 b 317 1208 276 1200 288 1208 m 264 338 b 478 142 264 211 338 142 b 692 338 618 142 692 211 l 692 939 b 739 986 692 974 704 986 l 818 986 b 865 939 853 986 865 974 l 865 339 b 478 -21 865 117 728 -21 b 89 339 228 -21 89 117 l 89 939 b 136 986 89 974 101 986 l 217 986 b 264 939 251 986 264 974 "},"ū":{"ha":768,"x_min":0,"x_max":0,"o":"m 543 965 b 583 925 575 965 583 957 l 583 890 b 543 850 583 858 575 850 l 221 850 b 181 890 189 850 181 858 l 181 925 b 221 965 181 957 192 965 m 647 719 b 690 678 679 719 690 710 l 690 106 b 636 28 690 61 681 46 b 364 -21 554 -4 464 -21 b 74 258 169 -21 74 79 l 74 678 b 117 719 74 710 85 719 l 193 719 b 235 678 225 719 235 710 l 235 264 b 386 126 235 172 285 126 b 514 143 435 126 476 132 b 529 167 524 147 529 154 l 529 678 b 572 719 529 710 540 719 "},"Ŭ":{"ha":956,"x_min":0,"x_max":0,"o":"m 693 1199 b 478 1056 661 1108 583 1056 b 264 1199 374 1056 293 1108 b 283 1238 257 1217 264 1231 l 338 1258 b 381 1244 358 1265 374 1261 b 478 1172 396 1196 429 1172 b 575 1244 526 1172 560 1196 b 611 1260 582 1261 594 1267 l 675 1238 b 693 1199 697 1228 700 1219 m 264 338 b 478 142 264 211 338 142 b 692 338 618 142 692 211 l 692 939 b 739 986 692 974 704 986 l 818 986 b 865 939 853 986 865 974 l 865 339 b 478 -21 865 117 728 -21 b 89 339 228 -21 89 117 l 89 939 b 136 986 89 974 101 986 l 217 986 b 264 939 251 986 264 974 "},"ŭ":{"ha":768,"x_min":0,"x_max":0,"o":"m 599 953 b 382 811 567 863 488 811 b 168 953 278 811 197 863 b 188 993 163 972 169 986 l 243 1014 b 286 1000 264 1021 279 1015 b 382 926 301 951 333 926 b 481 1000 431 926 463 951 b 517 1015 488 1015 500 1019 l 579 993 b 599 953 597 985 604 971 m 647 719 b 690 678 679 719 690 710 l 690 106 b 636 28 690 61 681 46 b 364 -21 554 -4 464 -21 b 74 258 169 -21 74 79 l 74 678 b 117 719 74 710 85 719 l 193 719 b 235 678 225 719 235 710 l 235 264 b 386 126 235 172 285 126 b 514 143 435 126 476 132 b 529 167 524 147 529 154 l 529 678 b 572 719 529 710 540 719 "},"Ů":{"ha":956,"x_min":0,"x_max":0,"o":"m 376 1072 b 333 1178 347 1099 333 1135 b 376 1285 333 1221 347 1257 b 486 1326 404 1313 440 1326 b 635 1178 574 1326 635 1265 b 486 1032 635 1093 574 1032 b 376 1072 440 1032 404 1046 m 536 1129 b 486 1247 575 1167 549 1253 b 414 1178 443 1247 414 1218 b 486 1110 414 1138 443 1110 b 536 1129 507 1110 524 1117 m 264 338 b 478 142 264 211 338 142 b 692 338 618 142 692 211 l 692 939 b 739 986 692 974 704 986 l 818 986 b 865 939 853 986 865 974 l 865 339 b 478 -21 865 117 728 -21 b 89 339 228 -21 89 117 l 89 939 b 136 986 89 974 101 986 l 217 986 b 264 939 251 986 264 974 "},"ů":{"ha":768,"x_min":0,"x_max":0,"o":"m 232 900 b 383 1049 232 988 294 1049 b 532 900 471 1049 532 988 b 383 754 532 815 471 754 b 232 900 294 754 232 815 m 451 900 b 383 969 451 940 424 969 b 313 900 340 969 313 940 b 383 833 313 861 343 833 b 451 900 424 833 451 861 m 647 719 b 690 678 679 719 690 710 l 690 106 b 636 28 690 61 681 46 b 364 -21 554 -4 464 -21 b 74 258 169 -21 74 79 l 74 678 b 117 719 74 710 85 719 l 193 719 b 235 678 225 719 235 710 l 235 264 b 386 126 235 172 285 126 b 514 143 435 126 476 132 b 529 167 524 147 529 154 l 529 678 b 572 719 529 710 540 719 "},"Ű":{"ha":956,"x_min":0,"x_max":0,"o":"m 369 1240 b 442 1268 389 1267 413 1276 l 490 1251 b 503 1204 521 1242 525 1226 l 361 1076 b 311 1058 342 1060 325 1054 l 288 1067 b 274 1108 264 1074 260 1088 m 604 1240 b 678 1268 625 1267 649 1276 l 729 1251 b 742 1204 763 1240 767 1225 l 588 1071 b 538 1053 568 1054 551 1049 l 514 1060 b 500 1103 488 1067 483 1082 m 264 338 b 478 142 264 211 338 142 b 692 338 618 142 692 211 l 692 939 b 739 986 692 974 704 986 l 818 986 b 865 939 853 986 865 974 l 865 339 b 478 -21 865 117 728 -21 b 89 339 228 -21 89 117 l 89 939 b 136 986 89 974 101 986 l 217 986 b 264 939 251 986 264 974 "},"ű":{"ha":768,"x_min":0,"x_max":0,"o":"m 274 986 b 346 1014 292 1013 317 1022 l 394 999 b 408 950 424 989 428 972 l 267 822 b 217 806 246 806 229 800 l 193 813 b 178 856 169 819 165 833 m 510 986 b 582 1014 531 1013 554 1022 l 635 997 b 647 950 667 986 671 971 l 492 818 b 442 800 469 797 464 793 l 418 807 b 404 850 394 814 389 829 m 647 719 b 690 678 679 719 690 710 l 690 106 b 636 28 690 61 681 46 b 364 -21 554 -4 464 -21 b 74 258 169 -21 74 79 l 74 678 b 117 719 74 710 85 719 l 193 719 b 235 678 225 719 235 710 l 235 264 b 386 126 235 172 285 126 b 514 143 435 126 476 132 b 529 167 524 147 529 154 l 529 678 b 572 719 529 710 540 719 "},"Ų":{"ha":956,"x_min":0,"x_max":0,"o":"m 818 986 b 865 939 853 986 865 974 l 865 339 b 750 63 865 215 826 124 b 593 -193 633 -53 582 -154 b 629 -222 599 -212 611 -222 b 667 -208 644 -222 657 -218 b 693 -217 679 -200 689 -203 l 713 -261 b 711 -290 718 -274 718 -283 b 579 -340 676 -324 632 -340 b 456 -257 506 -340 465 -312 b 564 -12 443 -189 482 -97 b 478 -21 539 -18 510 -21 b 89 339 228 -21 89 117 l 89 939 b 136 986 89 974 101 986 l 217 986 b 264 939 251 986 264 974 l 264 338 b 478 142 264 211 338 142 b 692 338 618 142 692 211 l 692 939 b 739 986 692 974 704 986 "},"ų":{"ha":768,"x_min":0,"x_max":0,"o":"m 647 719 b 690 678 679 719 690 710 l 690 106 b 675 51 690 81 685 63 b 568 -193 596 -49 558 -154 b 606 -222 574 -212 586 -222 b 642 -208 619 -222 632 -218 b 668 -217 654 -200 664 -203 l 688 -261 b 686 -290 693 -274 693 -283 b 554 -340 651 -324 607 -340 b 431 -257 481 -340 440 -312 b 535 -3 415 -189 457 -86 b 364 -21 485 -15 428 -21 b 74 258 169 -21 74 79 l 74 678 b 117 719 74 710 85 719 l 193 719 b 235 678 225 719 235 710 l 235 264 b 386 126 235 172 285 126 b 514 143 435 126 476 132 b 529 167 524 147 529 154 l 529 678 b 572 719 529 710 540 719 "},"Ŵ":{"ha":1251,"x_min":0,"x_max":0,"o":"m 653 1263 b 729 1225 688 1263 696 1260 l 871 1089 b 850 1054 889 1071 883 1054 l 788 1054 b 719 1079 757 1054 735 1063 l 640 1158 l 557 1079 b 490 1054 535 1057 528 1054 l 433 1054 b 413 1089 400 1054 394 1071 l 554 1225 b 636 1263 588 1258 596 1263 m 1197 986 b 1228 940 1229 986 1238 972 l 999 39 b 940 0 992 7 975 0 l 864 0 b 806 38 831 0 811 13 l 660 589 b 638 746 646 643 639 694 l 628 746 b 604 590 626 697 619 644 l 457 39 b 399 0 450 7 433 0 l 324 0 b 264 38 289 0 271 8 l 36 940 b 67 986 26 972 33 986 l 164 986 b 226 944 204 986 219 978 l 340 426 b 363 240 343 414 350 353 l 371 240 b 399 426 374 304 383 367 l 539 940 b 601 982 549 974 564 982 l 676 982 b 739 940 715 982 732 974 l 876 426 b 906 240 893 363 903 300 l 914 240 b 939 425 918 300 926 363 l 1050 944 b 1113 986 1057 978 1072 986 "},"ŵ":{"ha":1021,"x_min":0,"x_max":0,"o":"m 533 1011 b 608 974 567 1011 575 1008 l 746 842 b 726 807 764 824 760 807 l 665 807 b 599 831 635 807 613 815 l 521 908 l 439 831 b 374 807 418 808 411 807 l 318 807 b 297 842 285 807 278 818 l 436 974 b 517 1011 469 1008 476 1011 m 961 719 b 997 669 1001 719 1008 710 l 811 38 b 753 -1 804 11 785 -1 l 706 -1 b 646 38 674 -1 654 11 l 544 393 b 522 514 533 432 526 482 l 519 536 l 513 536 l 510 514 b 486 393 506 482 497 432 l 385 38 b 326 -1 378 11 358 -1 l 281 -1 b 222 38 249 -1 229 11 l 38 669 b 72 719 25 710 32 719 l 126 719 b 203 676 181 719 196 711 l 282 365 b 306 196 293 313 306 196 l 313 196 b 342 367 313 204 325 301 l 433 671 b 504 715 444 710 454 715 l 536 715 b 607 672 586 715 596 710 l 700 367 b 729 196 719 296 729 204 l 738 196 l 740 222 b 761 367 742 260 750 321 l 838 676 b 915 719 844 711 861 719 "},"Ŷ":{"ha":893,"x_min":0,"x_max":0,"o":"m 469 1263 b 546 1225 503 1263 513 1260 l 686 1089 b 667 1054 704 1071 700 1054 l 604 1054 b 536 1079 574 1054 551 1063 l 456 1158 l 372 1079 b 307 1054 350 1057 344 1054 l 249 1054 b 228 1089 215 1054 210 1071 l 369 1225 b 451 1263 403 1258 411 1263 m 854 986 b 878 939 888 986 894 965 l 539 389 l 539 47 b 492 0 539 13 526 0 l 413 0 b 365 47 378 0 365 13 l 365 392 l 25 939 b 50 986 8 965 17 986 l 147 986 b 239 944 207 986 218 983 l 454 569 l 671 944 b 764 986 692 983 704 986 "},"ŷ":{"ha":771,"x_min":0,"x_max":0,"o":"m 401 1011 b 476 974 435 1011 444 1008 l 614 842 b 594 807 632 824 628 807 l 533 807 b 467 831 504 807 482 815 l 389 908 l 307 831 b 243 807 286 810 278 807 l 186 807 b 167 842 153 807 149 824 l 304 974 b 385 1011 338 1007 346 1011 m 654 719 b 697 678 686 719 697 710 l 697 -24 b 392 -326 697 -214 601 -326 b 103 -193 254 -326 157 -282 b 121 -124 83 -162 89 -139 l 174 -94 b 243 -111 207 -78 222 -82 b 389 -182 272 -158 321 -182 b 536 -32 488 -182 536 -132 l 536 33 b 371 14 479 21 424 14 b 81 293 176 14 81 114 l 81 678 b 124 719 81 710 92 719 l 200 719 b 242 678 232 719 242 710 l 242 299 b 393 161 242 207 292 161 b 536 181 439 161 486 168 l 536 678 b 579 719 536 710 547 719 "},"Ÿ":{"ha":893,"x_min":0,"x_max":0,"o":"m 321 1233 b 394 1161 376 1233 394 1215 l 394 1147 b 321 1075 394 1093 376 1075 l 313 1075 b 240 1147 257 1075 240 1093 l 240 1161 b 313 1233 240 1215 257 1233 m 600 1233 b 672 1161 656 1233 672 1215 l 672 1147 b 600 1075 672 1093 656 1075 l 590 1075 b 517 1147 535 1075 517 1093 l 517 1161 b 590 1233 517 1215 535 1233 m 854 986 b 878 939 888 986 894 965 l 539 389 l 539 47 b 492 0 539 13 526 0 l 413 0 b 365 47 378 0 365 13 l 365 392 l 25 939 b 50 986 8 965 17 986 l 147 986 b 239 944 207 986 218 983 l 454 569 l 671 944 b 764 986 692 983 704 986 "},"Ź":{"ha":817,"x_min":0,"x_max":0,"o":"m 464 1256 b 542 1253 499 1274 524 1274 l 578 1208 b 572 1161 599 1185 599 1172 l 331 1060 b 276 1061 304 1050 286 1050 l 257 1088 b 260 1132 240 1108 242 1122 m 714 986 b 761 939 749 986 761 974 l 761 872 b 746 822 761 851 756 835 l 265 163 l 722 163 b 769 115 760 163 769 150 l 769 47 b 722 0 769 13 757 0 l 94 0 b 47 47 60 0 47 13 l 47 115 b 64 164 47 133 53 149 l 543 824 l 101 824 b 54 871 67 824 54 836 l 54 939 b 101 986 54 974 67 986 "},"ź":{"ha":654,"x_min":0,"x_max":0,"o":"m 375 1011 b 453 1010 408 1032 435 1032 l 489 965 b 482 918 508 942 506 926 l 240 817 b 188 818 214 806 196 806 l 168 844 b 169 889 151 865 151 879 m 571 146 b 613 103 603 146 613 135 l 613 43 b 571 0 613 11 603 0 l 85 0 b 42 43 53 0 42 11 l 42 103 b 57 146 42 121 47 135 l 397 574 l 92 574 b 49 617 60 574 49 585 l 49 678 b 92 719 49 710 60 719 l 564 719 b 606 678 596 719 606 710 l 606 617 b 590 571 606 599 600 583 l 247 146 "},"Ż":{"ha":817,"x_min":0,"x_max":0,"o":"m 421 1233 b 496 1158 478 1233 496 1215 l 496 1147 b 421 1074 496 1090 478 1074 l 413 1074 b 338 1147 356 1074 338 1090 l 338 1158 b 413 1233 338 1215 356 1233 m 714 986 b 761 939 749 986 761 974 l 761 872 b 746 822 761 851 756 835 l 265 163 l 722 163 b 769 115 760 163 769 150 l 769 47 b 722 0 769 13 757 0 l 94 0 b 47 47 60 0 47 13 l 47 115 b 64 164 47 133 53 149 l 543 824 l 101 824 b 54 871 67 824 54 836 l 54 939 b 101 986 54 974 67 986 "},"ż":{"ha":654,"x_min":0,"x_max":0,"o":"m 332 988 b 406 913 389 988 406 969 l 406 903 b 332 828 406 846 389 828 l 324 828 b 249 903 267 828 249 843 l 249 913 b 324 988 249 969 267 988 m 571 146 b 613 103 603 146 613 135 l 613 43 b 571 0 613 11 603 0 l 85 0 b 42 43 53 0 42 11 l 42 103 b 57 146 42 121 47 135 l 397 574 l 92 574 b 49 617 60 574 49 585 l 49 678 b 92 719 49 710 60 719 l 564 719 b 606 678 596 719 606 710 l 606 617 b 590 571 606 599 600 583 l 247 146 "},"Ž":{"ha":817,"x_min":0,"x_max":0,"o":"m 622 1260 b 643 1225 656 1260 661 1243 l 501 1090 b 425 1053 468 1056 458 1053 l 408 1053 b 325 1090 365 1053 358 1056 l 185 1225 b 204 1260 167 1243 171 1260 l 263 1260 b 328 1236 300 1260 307 1258 l 413 1157 l 492 1236 b 560 1260 510 1257 522 1260 m 714 986 b 761 939 749 986 761 974 l 761 872 b 746 822 761 851 756 835 l 265 163 l 722 163 b 769 115 760 163 769 150 l 769 47 b 722 0 769 13 757 0 l 94 0 b 47 47 60 0 47 13 l 47 115 b 64 164 47 133 53 149 l 543 824 l 101 824 b 54 871 67 824 54 836 l 54 939 b 101 986 54 974 67 986 "},"ž":{"ha":654,"x_min":0,"x_max":0,"o":"m 513 988 b 531 956 542 988 547 972 l 404 832 b 335 799 375 803 367 799 l 319 799 b 244 832 282 799 274 800 l 118 956 b 136 988 101 972 107 988 l 189 988 b 247 965 221 988 229 986 l 322 893 l 394 965 b 457 988 408 981 429 988 m 571 146 b 613 103 603 146 613 135 l 613 43 b 571 0 613 11 603 0 l 85 0 b 42 43 53 0 42 11 l 42 103 b 57 146 42 121 47 135 l 397 574 l 92 574 b 49 617 60 574 49 585 l 49 678 b 92 719 49 710 60 719 l 564 719 b 606 678 596 719 606 710 l 606 617 b 590 571 606 599 600 583 l 247 146 "},"ſ":{"ha":408,"x_min":0,"x_max":0,"o":"m 139 735 b 457 1028 139 931 244 1028 b 500 983 490 1028 500 1017 l 500 922 b 457 878 500 889 490 878 b 300 721 344 878 300 828 l 300 43 b 256 0 300 11 289 0 l 182 0 b 139 43 149 0 139 11 l 139 571 l 60 571 b 17 614 28 571 17 582 l 17 678 b 60 719 17 710 28 719 l 139 719 "},"ƒ":{"ha":640,"x_min":0,"x_max":0,"o":"m 254 725 b 575 1028 275 924 365 1028 b 618 983 608 1028 618 1017 l 618 922 b 575 878 618 889 608 878 b 415 721 465 878 426 825 l 400 571 l 543 571 b 586 528 575 571 586 560 l 586 464 b 543 421 586 432 575 421 l 383 421 l 340 -3 b 19 -306 319 -201 226 -306 b -25 -261 -14 -306 -25 -294 l -25 -200 b 19 -156 -25 -167 -14 -156 b 178 3 126 -156 167 -103 l 222 421 l 86 421 b 44 464 54 421 44 432 l 44 528 b 86 571 44 560 54 571 l 238 571 "},"Ǻ":{"ha":913,"x_min":0,"x_max":0,"o":"m 528 1338 b 601 1336 560 1353 585 1351 l 635 1301 b 629 1267 656 1283 653 1274 l 401 1193 b 351 1194 378 1185 361 1185 l 333 1214 b 346 1253 318 1229 322 1242 m 317 1022 b 475 1175 317 1111 382 1175 b 631 1022 565 1175 631 1111 b 575 919 631 976 613 942 l 915 46 b 883 0 926 15 915 0 l 813 0 b 725 42 753 0 736 8 l 660 224 l 279 224 l 213 42 b 126 0 201 8 186 0 l 63 0 b 32 46 31 0 19 15 l 374 919 b 317 1022 336 943 317 976 m 543 1028 b 475 1094 543 1068 515 1094 b 404 1028 432 1094 404 1068 b 475 964 404 990 435 964 b 543 1028 515 964 543 990 m 518 631 b 475 825 488 714 475 826 l 464 825 b 424 632 464 826 451 717 l 328 365 l 611 365 "},"ǻ":{"ha":721,"x_min":0,"x_max":0,"o":"m 401 1250 b 475 1249 435 1264 460 1264 l 508 1215 b 503 1181 529 1197 529 1188 l 276 1106 b 226 1107 253 1097 236 1097 l 208 1125 b 211 1160 192 1144 190 1149 m 250 826 b 207 932 221 853 207 889 b 250 1039 207 975 221 1011 b 360 1081 278 1067 314 1081 b 508 932 447 1081 508 1019 b 360 786 508 847 447 786 b 250 826 314 786 278 800 m 410 883 b 360 1001 449 921 422 1007 b 288 932 317 1001 288 972 b 360 864 288 892 317 864 b 410 883 381 864 397 871 m 68 596 b 356 740 118 692 214 740 b 653 454 554 740 653 644 l 653 94 b 603 15 653 46 642 32 b 353 -21 547 -8 464 -21 b 110 35 235 -21 154 -3 b 43 204 65 71 43 128 b 358 428 43 369 132 428 b 492 421 368 428 413 425 l 492 460 b 353 597 492 550 453 597 b 207 531 285 597 236 575 b 147 510 186 501 179 499 l 92 533 b 68 596 61 547 53 568 m 492 289 b 340 296 394 293 344 296 b 207 206 240 296 207 267 b 338 113 207 143 236 113 b 476 124 397 113 443 117 b 492 143 486 128 492 133 "},"Ǽ":{"ha":1192,"x_min":0,"x_max":0,"o":"m 918 1256 b 997 1253 953 1274 979 1274 l 1032 1208 b 1026 1161 1053 1185 1053 1172 l 785 1060 b 731 1061 758 1050 740 1050 l 711 1088 b 714 1132 694 1108 696 1122 m 1117 163 b 1164 115 1151 163 1164 150 l 1164 47 b 1117 0 1164 13 1151 0 l 647 0 b 600 47 613 0 600 13 l 600 207 l 308 207 l 208 42 b 121 0 190 10 176 0 l 47 0 b 15 46 15 0 4 15 l 582 947 b 640 986 603 979 611 986 l 1101 986 b 1149 939 1136 986 1149 974 l 1149 871 b 1101 824 1149 836 1136 824 l 768 824 l 768 581 l 1035 581 b 1082 533 1069 581 1082 568 l 1082 465 b 1035 418 1082 431 1069 418 l 768 418 l 768 163 m 600 693 l 393 350 l 600 350 "},"ǽ":{"ha":1110,"x_min":0,"x_max":0,"o":"m 590 1014 b 668 1011 625 1033 651 1032 l 704 968 b 699 919 724 944 722 929 l 457 818 b 403 821 429 808 411 808 l 383 846 b 386 892 365 869 364 879 m 68 596 b 339 740 119 692 210 740 b 544 664 432 740 500 715 b 760 740 593 715 665 740 b 1063 454 964 740 1063 625 l 1063 368 b 1001 308 1063 328 1042 308 l 619 308 l 619 257 b 760 118 619 164 667 118 b 903 192 824 118 871 143 b 974 208 925 221 940 225 l 1022 182 b 1039 113 1053 167 1058 143 b 758 -21 985 24 890 -21 b 569 32 682 -21 618 -3 b 336 -21 507 -3 429 -21 b 107 33 225 -21 149 -3 b 44 203 65 69 44 126 b 342 428 44 369 125 428 b 457 421 376 428 443 421 l 457 478 b 335 597 457 556 425 597 b 207 531 279 597 236 575 b 149 511 186 501 181 499 l 93 535 b 68 596 61 547 53 567 m 901 463 b 760 604 901 557 854 604 b 619 463 667 604 619 557 l 619 432 l 901 432 m 457 289 b 324 296 440 289 358 296 b 207 204 233 296 207 267 b 321 113 207 142 231 113 b 460 143 422 113 457 139 b 457 211 458 158 457 181 "},"Ǿ":{"ha":929,"x_min":0,"x_max":0,"o":"m 524 1269 b 603 1267 558 1288 585 1288 l 638 1222 b 632 1175 658 1199 658 1186 l 390 1074 b 336 1075 364 1064 346 1064 l 317 1101 b 319 1146 300 1122 301 1136 m 879 1046 b 888 1031 889 1046 892 1040 l 793 885 b 871 644 844 822 871 743 l 871 342 b 475 -21 871 118 729 -17 b 247 28 386 -22 310 -6 l 204 -40 b 172 -54 197 -50 186 -54 l 82 -54 b 74 -39 69 -54 67 -49 l 160 96 b 78 342 106 158 78 240 l 78 644 b 475 1007 78 871 221 1007 b 707 953 565 1007 643 989 l 757 1032 b 786 1046 764 1042 774 1046 m 615 810 b 475 844 578 833 531 844 b 253 646 332 844 253 775 l 253 340 b 269 267 253 311 258 288 m 339 172 b 475 142 374 151 419 142 b 697 340 618 142 697 213 l 697 646 b 683 711 697 669 693 690 "},"ǿ":{"ha":754,"x_min":0,"x_max":0,"o":"m 424 1011 b 503 1010 458 1032 485 1031 l 538 965 b 532 918 558 942 560 926 l 290 817 b 236 818 264 806 246 806 l 217 844 b 219 889 200 865 201 879 m 668 767 b 675 751 678 767 681 761 l 619 663 b 697 463 671 615 697 549 l 697 257 b 376 -21 697 83 582 -21 b 207 13 311 -21 254 -10 l 178 -35 b 147 -49 171 -44 160 -49 l 85 -49 b 78 -33 74 -49 71 -43 l 136 58 b 57 257 83 107 57 172 l 57 463 b 376 740 57 636 172 740 b 547 708 443 740 500 729 l 576 753 b 604 767 583 763 592 767 m 465 578 b 376 594 440 589 411 594 b 218 463 275 594 218 547 l 218 257 b 233 211 218 239 224 224 m 289 143 b 376 125 315 131 344 125 b 536 257 478 125 536 174 l 536 463 b 522 510 536 481 532 496 "},"Ș":{"ha":879,"x_min":0,"x_max":0,"o":"m 67 703 b 447 1007 67 885 204 1007 b 813 797 640 1007 744 940 b 786 733 826 768 818 747 l 710 700 b 650 724 678 688 667 692 b 447 840 611 801 553 840 b 246 713 313 840 246 797 b 393 594 238 639 319 606 b 588 565 436 586 536 575 b 763 488 643 554 719 526 b 839 290 806 449 839 379 b 443 -21 839 101 693 -21 b 61 211 233 -21 121 56 b 90 272 49 246 57 261 l 167 300 b 226 271 199 311 211 304 b 443 142 263 185 335 142 b 664 286 590 142 664 190 b 556 399 664 347 611 385 b 444 415 528 406 490 411 b 296 438 382 422 356 425 b 163 494 236 450 207 465 b 67 703 100 535 71 600 m 479 -319 b 431 -358 469 -349 458 -358 l 379 -358 b 351 -329 353 -358 347 -351 l 379 -132 b 431 -86 383 -97 396 -86 l 504 -86 b 544 -132 542 -86 554 -101 "},"ș":{"ha":700,"x_min":0,"x_max":0,"o":"m 69 517 b 356 740 69 654 168 740 b 653 592 504 740 604 690 b 631 529 668 564 660 543 l 568 504 b 510 524 536 492 528 494 b 360 596 483 572 433 596 b 229 521 272 596 229 571 b 392 435 229 460 271 446 b 675 211 581 417 675 367 b 375 -21 675 71 568 -21 b 65 147 213 -21 108 35 b 93 206 54 176 64 196 l 156 225 b 213 199 183 236 200 231 b 369 122 233 147 286 122 b 517 204 468 122 517 150 b 350 293 517 265 474 281 b 193 326 285 300 247 306 b 128 364 167 336 144 349 b 69 517 94 393 69 446 m 404 -269 b 350 -310 393 -301 382 -310 l 308 -310 b 279 -276 281 -310 275 -303 l 303 -111 b 358 -61 307 -72 321 -61 l 418 -61 b 456 -111 456 -61 468 -78 "},"Ț":{"ha":786,"x_min":0,"x_max":0,"o":"m 719 986 b 767 939 754 986 767 974 l 767 871 b 719 824 767 836 754 824 l 481 824 l 481 47 b 433 0 481 13 468 0 l 353 0 b 306 47 318 0 306 13 l 306 824 l 67 824 b 19 871 32 824 19 836 l 19 939 b 67 986 19 974 32 986 m 414 -317 b 364 -357 404 -346 392 -357 l 313 -357 b 285 -326 289 -357 281 -350 l 313 -129 b 364 -85 317 -94 329 -85 l 438 -85 b 478 -129 475 -85 489 -100 "},"ț":{"ha":540,"x_min":0,"x_max":0,"o":"m 268 886 b 311 844 300 886 311 876 l 311 719 l 469 719 b 513 678 501 719 513 710 l 513 614 b 469 571 513 582 501 571 l 311 571 l 311 292 b 344 163 311 226 322 183 b 468 132 365 142 407 132 b 513 89 501 132 513 122 l 513 25 b 468 -19 513 -8 501 -18 b 222 42 351 -24 269 -3 b 150 286 174 86 150 168 l 150 571 l 54 571 b 13 614 22 571 13 582 l 13 678 b 54 719 13 710 22 719 l 150 719 l 150 844 b 193 886 150 876 161 886 m 338 -317 b 289 -357 331 -343 314 -357 l 238 -357 b 210 -326 211 -357 206 -350 l 238 -129 b 289 -85 242 -94 254 -85 l 363 -85 b 403 -129 400 -85 413 -100 "},"ȷ":{"ha":324,"x_min":0,"x_max":0,"o":"m 199 719 b 242 678 232 719 242 710 l 242 -10 b -75 -319 242 -217 136 -319 b -119 -275 -108 -319 -119 -308 l -119 -214 b -75 -169 -119 -181 -108 -169 b 81 -6 36 -169 81 -112 l 81 678 b 125 719 81 710 92 719 "},"ˆ":{"ha":547,"x_min":0,"x_max":0,"o":"m 286 1019 b 363 982 319 1019 329 1017 l 504 846 b 483 811 522 829 517 811 l 421 811 b 353 836 390 811 368 819 l 272 915 l 189 836 b 124 811 168 814 161 811 l 65 811 b 46 846 32 811 25 829 l 186 982 b 269 1019 221 1017 226 1019 "},"ˇ":{"ha":461,"x_min":0,"x_max":0,"o":"m 440 1017 b 461 982 474 1017 479 1000 l 321 847 b 243 810 286 813 278 810 l 226 810 b 144 847 183 810 176 813 l 3 982 b 22 1017 -15 1000 -11 1017 l 81 1017 b 147 993 118 1017 125 1015 l 231 914 l 310 993 b 379 1017 328 1014 340 1017 "},"˘":{"ha":399,"x_min":0,"x_max":0,"o":"m 418 956 b 201 813 386 865 307 813 b -12 956 97 813 17 865 b 7 994 -19 974 -12 988 l 61 1017 b 104 1001 82 1024 97 1018 b 201 929 119 953 153 929 b 299 1001 250 929 283 953 b 335 1018 306 1017 317 1022 l 399 994 b 418 956 417 986 424 974 "},"˙":{"ha":300,"x_min":0,"x_max":0,"o":"m 154 989 b 229 915 211 989 229 972 l 229 904 b 154 829 229 847 211 829 l 146 829 b 71 904 89 829 71 847 l 71 915 b 146 989 71 972 89 989 "},"˚":{"ha":333,"x_min":0,"x_max":0,"o":"m 60 814 b 17 919 31 840 17 876 b 60 1026 17 963 31 999 b 169 1068 88 1054 124 1068 b 318 919 257 1068 318 1007 b 169 774 318 835 257 774 b 60 814 124 774 88 788 m 219 871 b 169 988 258 910 232 994 b 169 851 75 996 75 843 b 219 871 190 851 207 858 "},"˛":{"ha":350,"x_min":0,"x_max":0,"o":"m 282 0 b 192 -193 214 -85 182 -158 b 229 -222 197 -212 210 -222 b 265 -208 243 -222 256 -218 b 292 -217 278 -200 288 -203 l 311 -261 b 310 -290 318 -274 317 -283 b 178 -340 275 -324 231 -340 b 54 -257 107 -340 65 -312 b 178 0 39 -185 83 -89 "},"˜":{"ha":424,"x_min":0,"x_max":0,"o":"m 399 1007 b 425 981 417 1007 425 999 b 308 826 425 869 390 826 b 207 867 276 826 242 840 b 129 906 172 893 146 906 b 96 853 107 906 96 888 b 71 826 96 835 88 826 l 25 826 b -1 853 7 826 -1 835 b 114 1007 -1 964 36 1007 b 219 968 149 1007 185 994 b 296 928 254 942 281 928 b 329 981 318 928 329 946 b 354 1007 329 999 338 1007 "},"˝":{"ha":549,"x_min":0,"x_max":0,"o":"m 189 988 b 261 1017 208 1015 232 1025 l 310 1000 b 324 953 339 990 343 974 l 182 825 b 131 807 161 808 144 803 l 108 814 b 93 857 85 821 81 836 m 425 988 b 497 1017 446 1015 469 1025 l 549 1000 b 563 953 582 988 586 972 l 407 819 b 357 801 388 803 371 797 l 333 810 b 319 853 307 817 303 832 "},"̦":{"ha":0,"x_min":0,"x_max":0,"o":"m 215 -317 b 167 -357 206 -346 194 -357 l 114 -357 b 86 -326 90 -357 82 -350 l 115 -129 b 165 -85 117 -94 131 -85 l 239 -85 b 279 -129 276 -85 290 -100 "},"π":{"ha":893,"x_min":0,"x_max":0,"o":"m 832 719 b 875 678 864 719 875 710 l 875 615 b 832 572 875 583 864 572 l 789 572 l 789 208 b 814 89 789 164 797 124 b 790 26 828 58 819 38 l 728 1 b 668 24 696 -14 681 -8 b 628 215 642 78 628 142 l 628 572 l 358 572 l 358 43 b 315 0 358 11 347 0 l 239 0 b 197 43 207 0 197 11 l 197 572 b 110 547 172 571 143 563 b 54 565 82 535 64 542 l 29 626 b 50 682 17 651 24 669 b 250 719 104 707 171 719 "},"Ё":{"ha":804,"x_min":0,"x_max":0,"o":"m 289 1224 b 363 1151 344 1224 363 1206 l 363 1138 b 289 1065 363 1083 344 1065 l 279 1065 b 207 1138 224 1065 207 1083 l 207 1151 b 279 1224 207 1206 224 1224 m 567 1224 b 640 1151 622 1224 640 1206 l 640 1138 b 567 1065 640 1083 622 1065 l 558 1065 b 485 1138 503 1065 485 1083 l 485 1151 b 558 1224 485 1206 503 1224 m 696 986 b 744 939 731 986 744 974 l 744 871 b 696 824 744 836 731 824 l 271 824 l 271 581 l 631 581 b 678 533 665 581 678 568 l 678 465 b 631 418 678 431 665 418 l 271 418 l 271 163 l 711 163 b 758 115 746 163 758 150 l 758 47 b 711 0 758 13 746 0 l 144 0 b 96 47 110 0 96 13 l 96 939 b 144 986 96 974 110 986 "},"А":{"ha":914,"x_min":0,"x_max":0,"o":"m 915 46 b 883 0 926 15 915 0 l 811 0 b 725 42 754 0 736 8 l 661 221 l 278 221 l 213 42 b 126 0 201 8 183 0 l 63 0 b 31 46 31 0 19 15 l 378 949 b 436 988 390 981 403 988 l 510 988 b 568 950 543 988 557 979 m 507 657 b 475 803 490 707 479 771 l 474 826 l 464 826 b 433 658 464 774 454 718 l 326 364 l 613 364 "},"Б":{"ha":881,"x_min":0,"x_max":0,"o":"m 725 986 b 772 939 760 986 772 974 l 772 871 b 725 824 772 836 760 824 l 271 824 l 271 603 l 535 603 b 842 301 722 603 842 489 b 535 0 842 114 722 0 l 143 0 b 96 44 110 0 96 11 l 96 939 b 144 986 96 974 110 986 m 621 200 b 658 301 646 225 658 258 b 621 403 658 344 646 378 b 517 440 596 428 561 440 l 271 440 l 271 163 l 517 163 b 621 200 561 163 596 175 "},"В":{"ha":903,"x_min":0,"x_max":0,"o":"m 529 986 b 814 726 708 986 814 893 b 708 517 814 628 779 558 l 708 511 b 850 271 803 478 850 397 b 538 0 850 100 725 0 l 144 0 b 96 47 110 0 96 13 l 96 939 b 144 986 96 974 110 986 m 508 579 b 636 701 593 579 636 619 b 508 824 636 783 593 824 l 271 824 l 271 579 m 665 290 b 533 421 665 378 621 421 l 271 421 l 271 163 l 533 163 b 665 290 621 163 665 206 "},"Г":{"ha":721,"x_min":0,"x_max":0,"o":"m 654 986 b 701 939 689 986 701 974 l 701 871 b 654 824 701 836 689 824 l 271 824 l 271 47 b 224 0 271 13 258 0 l 144 0 b 96 47 110 0 96 13 l 96 939 b 144 986 96 974 110 986 "},"Д":{"ha":1026,"x_min":0,"x_max":0,"o":"m 833 986 b 882 939 868 986 882 974 l 882 163 l 954 163 b 1001 115 989 163 1001 150 l 1001 -165 b 954 -212 1001 -200 989 -212 l 878 -212 b 831 -165 843 -212 831 -200 l 831 0 l 196 0 l 196 -165 b 149 -212 196 -200 183 -212 l 74 -212 b 26 -165 39 -212 26 -200 l 26 115 b 74 163 26 150 39 163 l 106 163 b 192 286 140 186 164 215 b 233 651 218 357 233 481 l 233 939 b 281 986 233 974 246 986 m 401 824 l 401 653 b 308 163 401 424 371 260 l 707 163 l 707 824 "},"Е":{"ha":804,"x_min":0,"x_max":0,"o":"m 696 986 b 744 939 731 986 744 974 l 744 871 b 696 824 744 836 731 824 l 271 824 l 271 581 l 631 581 b 678 533 665 581 678 568 l 678 465 b 631 418 678 431 665 418 l 271 418 l 271 163 l 711 163 b 758 115 746 163 758 150 l 758 47 b 711 0 758 13 746 0 l 144 0 b 96 47 110 0 96 13 l 96 939 b 144 986 96 974 110 986 "},"Ж":{"ha":1307,"x_min":0,"x_max":0,"o":"m 1247 986 b 1271 940 1281 986 1289 964 l 993 526 b 1111 386 1038 499 1076 451 l 1286 47 b 1263 0 1303 21 1296 0 l 1182 0 b 1088 42 1122 0 1104 8 l 949 324 b 782 421 910 400 876 421 l 746 421 l 746 47 b 699 0 746 13 733 0 l 619 0 b 572 47 585 0 572 13 l 572 421 l 536 421 b 369 324 442 421 408 400 l 231 42 b 136 0 214 8 196 0 l 56 0 b 32 47 22 0 15 21 l 208 386 b 325 526 240 451 279 497 l 47 940 b 71 986 31 964 39 986 l 160 986 b 254 947 217 986 232 981 l 489 578 b 536 579 501 579 517 579 l 572 579 l 572 939 b 619 986 572 974 585 986 l 699 986 b 746 939 733 986 746 974 l 746 579 l 782 579 b 829 578 803 579 819 579 l 1064 947 b 1160 986 1086 981 1100 986 "},"З":{"ha":882,"x_min":0,"x_max":0,"o":"m 813 724 b 701 514 813 625 775 554 b 843 275 796 474 843 393 b 478 -21 843 88 722 -21 b 64 213 257 -21 118 57 b 93 274 53 242 63 263 l 169 300 b 229 271 203 311 217 304 b 478 142 261 182 329 142 b 660 283 599 142 660 189 b 524 422 660 371 613 422 l 329 422 b 282 469 294 422 282 435 l 282 532 b 329 579 282 567 294 579 l 503 579 b 635 710 588 579 635 628 b 467 844 635 800 579 844 b 238 717 332 844 269 806 b 178 688 225 683 211 676 l 101 714 b 72 775 71 725 61 746 b 478 1007 126 929 263 1007 b 813 724 694 1007 813 903 "},"И":{"ha":972,"x_min":0,"x_max":0,"o":"m 828 986 b 875 939 863 986 875 974 l 875 47 b 828 0 875 13 863 0 l 749 0 b 701 47 714 0 701 13 l 701 454 b 708 617 701 525 704 579 b 735 772 713 654 721 706 l 729 772 b 590 508 697 692 651 604 l 272 24 b 225 0 263 8 247 0 l 144 0 b 96 47 110 0 96 13 l 96 939 b 144 986 96 974 110 986 l 224 986 b 271 939 258 986 271 974 l 271 536 b 265 372 271 465 269 411 b 238 214 261 333 251 281 l 243 214 b 388 489 278 301 325 393 l 700 964 b 746 986 710 979 725 986 "},"Й":{"ha":972,"x_min":0,"x_max":0,"o":"m 732 1203 b 490 1056 694 1110 608 1056 b 251 1203 372 1056 285 1110 b 272 1244 244 1224 251 1238 l 333 1267 b 382 1251 357 1274 374 1268 b 490 1176 400 1201 436 1176 b 599 1251 544 1176 581 1201 b 639 1268 607 1267 621 1272 l 710 1244 b 732 1203 733 1235 739 1226 m 828 986 b 875 939 863 986 875 974 l 875 47 b 828 0 875 13 863 0 l 749 0 b 701 47 714 0 701 13 l 701 454 b 708 617 701 525 704 579 b 735 772 713 654 721 706 l 729 772 b 590 508 697 692 651 604 l 272 24 b 225 0 263 8 247 0 l 144 0 b 96 47 110 0 96 13 l 96 939 b 144 986 96 974 110 986 l 224 986 b 271 939 258 986 271 974 l 271 536 b 265 372 271 465 269 411 b 238 214 261 333 251 281 l 243 214 b 388 489 278 301 325 393 l 700 964 b 746 986 710 979 725 986 "},"К":{"ha":871,"x_min":0,"x_max":0,"o":"m 846 47 b 822 0 863 15 854 0 l 742 0 b 647 42 681 0 664 7 l 507 324 b 446 401 488 361 467 388 b 342 421 424 414 389 421 l 271 421 l 271 47 b 224 0 271 13 258 0 l 144 0 b 96 47 110 0 96 13 l 96 939 b 144 986 96 974 110 986 l 224 986 b 271 939 258 986 271 974 l 271 579 l 326 579 l 344 579 l 624 947 b 718 986 647 981 663 986 l 807 986 b 829 940 839 986 847 964 l 519 544 b 669 386 579 518 629 465 "},"Л":{"ha":938,"x_min":0,"x_max":0,"o":"m 815 986 b 863 939 850 986 863 974 l 863 47 b 815 0 863 13 850 0 l 735 0 b 688 47 700 0 688 13 l 688 824 l 393 824 l 393 643 b 340 218 393 453 369 306 b 281 104 325 175 306 136 b 131 -12 231 39 193 19 b 68 10 99 -28 81 -22 l 32 79 b 54 143 18 108 25 129 b 144 218 93 161 110 171 b 186 301 163 242 176 269 b 222 643 206 367 222 488 l 222 939 b 271 986 222 974 236 986 "},"М":{"ha":1126,"x_min":0,"x_max":0,"o":"m 982 986 b 1029 939 1017 986 1029 974 l 1029 47 b 982 0 1029 13 1017 0 l 911 0 b 864 47 876 0 864 13 l 864 471 b 897 747 864 554 875 646 l 888 747 b 774 493 861 667 822 582 l 638 253 b 583 219 624 231 606 219 l 539 219 b 485 253 510 219 500 225 l 346 494 b 239 747 303 567 268 651 l 229 747 b 258 469 249 653 258 560 l 258 47 b 211 0 258 13 246 0 l 144 0 b 96 47 110 0 96 13 l 96 939 b 144 986 96 974 110 986 l 206 986 b 272 950 244 986 257 979 l 561 433 l 850 949 b 914 986 867 981 876 986 "},"Н":{"ha":953,"x_min":0,"x_max":0,"o":"m 808 986 b 857 939 843 986 857 974 l 857 47 b 808 0 857 13 843 0 l 729 0 b 682 47 694 0 682 13 l 682 418 l 271 418 l 271 47 b 224 0 271 13 258 0 l 144 0 b 96 47 110 0 96 13 l 96 939 b 144 986 96 974 110 986 l 224 986 b 271 939 258 986 271 974 l 271 581 l 682 581 l 682 939 b 729 986 682 974 694 986 "},"О":{"ha":929,"x_min":0,"x_max":0,"o":"m 68 644 b 465 1007 68 871 211 1007 b 861 644 717 1007 861 871 l 861 342 b 465 -21 861 115 717 -21 b 68 342 211 -21 68 115 m 688 646 b 465 844 688 774 608 844 b 243 646 322 844 243 775 l 243 340 b 465 142 243 211 322 142 b 688 340 608 142 688 213 "},"П":{"ha":946,"x_min":0,"x_max":0,"o":"m 801 986 b 849 939 836 986 849 974 l 849 47 b 801 0 849 13 836 0 l 722 0 b 675 47 688 0 675 13 l 675 824 l 271 824 l 271 47 b 224 0 271 13 258 0 l 144 0 b 96 47 110 0 96 13 l 96 939 b 144 986 96 974 110 986 "},"Р":{"ha":878,"x_min":0,"x_max":0,"o":"m 513 986 b 840 664 714 986 840 864 b 513 343 840 464 714 343 l 271 343 l 271 47 b 224 0 271 13 258 0 l 144 0 b 96 47 110 0 96 13 l 96 939 b 144 986 96 974 110 986 m 496 506 b 657 664 597 506 657 564 b 496 824 657 764 597 824 l 271 824 l 271 506 "},"С":{"ha":889,"x_min":0,"x_max":0,"o":"m 68 646 b 465 1007 68 869 211 1007 b 843 775 663 1007 789 929 b 814 714 854 746 844 725 l 738 688 b 678 717 704 676 690 683 b 465 844 647 801 576 844 b 243 647 322 844 243 775 l 243 340 b 465 142 243 213 322 142 b 678 271 575 142 646 185 b 739 300 693 306 706 313 l 814 274 b 844 213 844 263 854 242 b 465 -21 790 57 664 -21 b 68 342 211 -21 68 115 "},"Т":{"ha":786,"x_min":0,"x_max":0,"o":"m 719 986 b 767 939 754 986 767 974 l 767 871 b 719 824 767 836 754 824 l 481 824 l 481 47 b 433 0 481 13 468 0 l 353 0 b 306 47 318 0 306 13 l 306 824 l 67 824 b 19 871 32 824 19 836 l 19 939 b 67 986 19 974 32 986 "},"У":{"ha":851,"x_min":0,"x_max":0,"o":"m 838 986 b 861 939 867 986 874 971 l 447 42 b 369 0 432 7 419 0 l 275 0 b 251 47 243 0 236 15 l 372 289 l 36 939 b 60 986 19 971 28 986 l 142 986 b 233 944 204 986 207 988 l 463 483 l 672 944 b 757 986 689 983 697 986 "},"Ф":{"ha":1161,"x_min":0,"x_max":0,"o":"m 619 1021 b 668 974 654 1021 668 1008 l 668 903 l 740 903 b 1115 550 983 903 1115 772 l 1115 443 b 740 90 1115 221 983 90 l 668 90 l 668 19 b 619 -28 668 -15 654 -28 l 540 -28 b 493 19 506 -28 493 -15 l 493 90 l 421 90 b 46 443 178 90 46 221 l 46 550 b 421 903 46 772 178 903 l 493 903 l 493 974 b 540 1021 493 1008 506 1021 m 421 746 b 221 557 288 746 221 683 l 221 436 b 421 247 221 310 288 247 l 493 247 l 493 746 m 940 557 b 740 746 940 683 874 746 l 668 746 l 668 247 l 740 247 b 940 436 874 247 940 310 "},"Х":{"ha":886,"x_min":0,"x_max":0,"o":"m 867 49 b 844 0 888 25 878 0 l 747 0 b 654 42 690 0 676 4 l 442 368 l 238 42 b 146 0 211 4 201 0 l 56 0 b 32 49 21 0 14 22 l 338 503 l 43 942 b 67 986 25 964 33 986 l 160 986 b 251 947 215 986 225 981 l 450 640 l 649 947 b 736 986 675 981 685 986 l 832 986 b 854 942 864 986 872 964 l 557 504 "},"Ц":{"ha":986,"x_min":0,"x_max":0,"o":"m 913 163 b 960 115 947 163 960 150 l 960 -165 b 913 -212 960 -200 947 -212 l 839 -212 b 792 -165 804 -212 792 -200 l 792 0 l 144 0 b 96 47 110 0 96 13 l 96 939 b 144 986 96 974 110 986 l 224 986 b 271 939 258 986 271 974 l 271 163 l 668 163 l 668 939 b 715 986 668 974 681 986 l 794 986 b 843 939 829 986 843 974 l 843 163 "},"Ч":{"ha":892,"x_min":0,"x_max":0,"o":"m 747 986 b 794 939 782 986 794 974 l 794 47 b 747 0 794 13 782 0 l 668 0 b 621 47 633 0 621 13 l 621 378 b 413 360 567 365 497 360 b 50 700 161 360 50 476 l 50 939 b 99 986 50 974 64 986 l 178 986 b 225 939 213 986 225 974 l 225 700 b 421 521 225 581 290 521 b 621 543 492 521 558 528 l 621 939 b 668 986 621 974 633 986 "},"Ш":{"ha":1288,"x_min":0,"x_max":0,"o":"m 1143 986 b 1190 939 1178 986 1190 974 l 1190 47 b 1143 0 1190 13 1178 0 l 144 0 b 96 47 110 0 96 13 l 96 939 b 144 986 96 974 110 986 l 224 986 b 271 939 258 986 271 974 l 271 163 l 557 163 l 557 939 b 604 986 557 974 569 986 l 683 986 b 731 939 718 986 731 974 l 731 163 l 1017 163 l 1017 939 b 1064 986 1017 974 1029 986 "},"Щ":{"ha":1336,"x_min":0,"x_max":0,"o":"m 1261 163 b 1308 115 1296 163 1308 150 l 1308 -165 b 1261 -212 1308 -200 1296 -212 l 1188 -212 b 1140 -165 1153 -212 1140 -200 l 1140 0 l 144 0 b 96 47 110 0 96 13 l 96 939 b 144 986 96 974 110 986 l 224 986 b 271 939 258 986 271 974 l 271 163 l 557 163 l 557 939 b 604 986 557 974 569 986 l 683 986 b 731 939 718 986 731 974 l 731 163 l 1017 163 l 1017 939 b 1064 986 1017 974 1029 986 l 1143 986 b 1190 939 1178 986 1190 974 l 1190 163 "},"Ъ":{"ha":1033,"x_min":0,"x_max":0,"o":"m 668 643 b 994 322 869 643 994 522 b 668 0 994 122 869 0 l 299 0 b 251 47 264 0 251 13 l 251 824 l 68 824 b 21 871 33 824 21 836 l 21 939 b 68 986 21 974 33 986 l 379 986 b 426 939 414 986 426 974 l 426 643 m 651 163 b 813 322 753 163 813 222 b 651 481 813 422 753 481 l 426 481 l 426 163 "},"Ы":{"ha":1257,"x_min":0,"x_max":0,"o":"m 144 0 b 96 47 110 0 96 13 l 96 939 b 144 986 96 974 110 986 l 224 986 b 271 939 258 986 271 974 l 271 643 l 513 643 b 840 322 714 643 840 522 b 513 0 840 122 714 0 m 988 939 b 1035 986 988 974 1000 986 l 1114 986 b 1161 939 1149 986 1161 974 l 1161 47 b 1114 0 1161 13 1149 0 l 1035 0 b 988 47 1000 0 988 13 m 271 481 l 271 163 l 496 163 b 657 322 597 163 657 222 b 496 481 657 422 597 481 "},"Ь":{"ha":878,"x_min":0,"x_max":0,"o":"m 144 0 b 96 47 110 0 96 13 l 96 939 b 144 986 96 974 110 986 l 224 986 b 271 939 258 986 271 974 l 271 643 l 513 643 b 840 322 714 643 840 522 b 513 0 840 122 714 0 m 271 481 l 271 163 l 496 163 b 657 322 597 163 657 222 b 496 481 657 422 597 481 "},"Э":{"ha":894,"x_min":0,"x_max":0,"o":"m 68 775 b 447 1007 122 929 249 1007 b 843 646 699 1007 843 869 l 843 340 b 447 -21 843 117 699 -21 b 68 213 249 -21 122 57 b 97 274 57 242 67 263 l 174 300 b 233 271 203 311 222 301 b 447 142 264 185 335 142 b 669 339 590 142 669 211 l 669 418 l 332 418 b 285 465 297 418 285 431 l 285 533 b 332 581 285 568 297 581 l 669 581 l 669 647 b 447 844 669 775 590 844 b 235 717 336 844 265 801 b 174 688 222 683 208 676 l 99 714 b 68 775 68 725 58 746 "},"Ю":{"ha":1304,"x_min":0,"x_max":0,"o":"m 463 646 b 849 1007 463 872 603 1007 b 1236 646 1094 1007 1236 869 l 1236 340 b 849 -21 1236 117 1094 -21 b 463 340 603 -21 463 114 l 463 418 l 271 418 l 271 47 b 224 0 271 13 258 0 l 144 0 b 96 47 110 0 96 13 l 96 939 b 144 986 96 974 110 986 l 224 986 b 271 939 258 986 271 974 l 271 581 l 463 581 m 1061 646 b 849 844 1061 775 986 844 b 636 646 711 844 636 775 l 636 340 b 849 142 636 211 711 142 b 1061 340 986 142 1061 211 "},"Я":{"ha":901,"x_min":0,"x_max":0,"o":"m 85 681 b 396 986 85 871 201 986 l 781 986 b 828 939 815 986 828 974 l 828 47 b 781 0 828 13 815 0 l 700 0 b 653 47 665 0 653 13 l 653 375 l 546 375 b 381 278 450 375 415 356 l 275 42 b 181 0 260 7 242 0 l 100 0 b 76 47 69 0 61 15 l 218 340 b 261 401 231 367 246 388 b 85 681 143 443 85 536 m 413 824 b 267 681 318 824 267 774 b 413 538 267 588 319 538 l 653 538 l 653 824 "},"а":{"ha":721,"x_min":0,"x_max":0,"o":"m 68 596 b 356 740 118 692 214 740 b 653 454 554 740 653 644 l 653 94 b 603 15 653 46 642 32 b 353 -21 547 -8 464 -21 b 110 35 235 -21 154 -3 b 43 204 65 71 43 128 b 358 428 43 369 132 428 b 492 421 368 428 413 425 l 492 460 b 353 597 492 550 453 597 b 207 531 285 597 236 575 b 147 510 186 501 179 499 l 92 533 b 68 596 61 547 53 568 m 492 289 b 340 296 394 293 344 296 b 207 206 240 296 207 267 b 338 113 207 143 236 113 b 476 124 397 113 443 117 b 492 143 486 128 492 133 "},"б":{"ha":771,"x_min":0,"x_max":0,"o":"m 500 1014 b 597 1029 543 1014 575 1019 b 658 1001 626 1044 646 1035 l 678 947 b 651 886 688 914 681 903 b 503 864 622 871 572 864 l 457 864 b 272 815 367 864 304 847 b 224 638 240 782 224 722 l 224 615 b 429 701 261 672 331 701 b 715 418 607 701 715 594 l 715 261 b 394 -21 715 83 601 -21 b 74 261 188 -21 74 83 l 74 593 b 160 914 74 740 103 847 b 456 1014 217 981 315 1014 m 553 418 b 394 556 553 510 500 556 b 236 432 294 556 240 504 l 236 263 b 394 125 236 174 290 125 b 553 263 499 125 553 174 "},"в":{"ha":743,"x_min":0,"x_max":0,"o":"m 668 521 b 601 375 668 456 646 407 b 696 204 664 339 696 282 b 475 0 696 81 610 0 l 124 0 b 81 43 90 0 81 11 l 81 676 b 124 719 81 710 90 719 l 456 719 b 668 521 590 719 668 642 m 429 433 b 507 508 478 433 507 464 b 428 583 507 554 478 583 l 242 583 l 242 433 m 443 136 b 528 221 494 136 528 169 b 442 301 528 271 496 301 l 242 301 l 242 136 "},"г":{"ha":596,"x_min":0,"x_max":0,"o":"m 535 719 b 578 678 567 719 578 710 l 578 614 b 535 571 578 582 567 571 l 242 571 l 242 43 b 199 0 242 11 231 0 l 122 0 b 81 43 90 0 81 11 l 81 678 b 122 719 81 710 90 719 "},"д":{"ha":860,"x_min":0,"x_max":0,"o":"m 794 150 b 838 106 826 150 838 139 l 838 -150 b 794 -193 838 -182 826 -193 l 725 -193 b 681 -150 693 -193 681 -182 l 681 0 l 186 0 l 186 -150 b 143 -193 186 -182 175 -193 l 72 -193 b 31 -150 40 -193 31 -182 l 31 106 b 72 150 31 139 40 150 l 103 150 b 189 475 160 194 189 303 l 189 678 b 231 719 189 710 199 719 l 688 719 b 731 678 719 719 731 710 l 731 150 m 344 464 b 288 150 344 322 325 218 l 569 150 l 569 571 l 344 571 "},"е":{"ha":746,"x_min":0,"x_max":0,"o":"m 56 440 b 378 740 56 635 168 740 b 699 453 589 740 699 621 l 699 368 b 636 308 699 328 678 308 l 217 308 l 217 257 b 375 118 217 167 274 118 b 539 192 453 118 507 143 b 610 208 561 224 576 226 l 658 182 b 675 113 690 167 696 144 b 375 -21 621 24 521 -21 b 56 276 158 -21 56 94 m 538 463 b 378 604 538 553 483 604 b 217 463 274 604 217 553 l 217 432 l 538 432 "},"ж":{"ha":1043,"x_min":0,"x_max":0,"o":"m 569 719 b 615 676 604 719 615 710 l 615 442 l 657 442 l 674 442 l 831 688 b 914 719 849 717 863 719 l 982 719 b 1010 669 1022 719 1032 703 l 819 397 b 901 294 849 379 875 344 l 1022 51 b 994 0 1040 14 1035 0 l 925 0 b 850 39 876 0 865 6 l 764 224 b 654 292 744 269 708 292 l 615 292 l 615 44 b 569 0 615 11 604 0 l 499 0 b 454 44 464 0 454 11 l 454 292 l 414 292 b 304 224 361 292 325 269 l 218 39 b 144 0 203 6 193 0 l 74 0 b 46 51 33 0 28 14 l 168 294 b 249 397 192 343 219 376 l 58 669 b 86 719 36 703 46 719 l 154 719 b 238 688 206 719 219 717 l 396 442 l 413 442 l 454 442 l 454 676 b 499 719 454 710 464 719 "},"з":{"ha":717,"x_min":0,"x_max":0,"o":"m 69 560 b 381 740 103 656 213 740 b 669 522 574 740 669 668 b 588 375 669 446 642 397 l 588 368 b 686 199 653 340 686 283 b 385 -21 686 53 586 -21 b 58 163 211 -21 103 57 b 89 225 46 194 56 215 l 150 243 b 211 215 185 254 199 249 b 386 121 238 153 296 121 b 521 215 476 121 521 153 b 431 297 521 267 490 297 l 297 297 b 254 340 265 297 254 308 l 254 386 b 297 429 254 419 265 429 l 419 429 b 507 506 474 429 507 457 b 381 599 507 568 465 599 b 222 507 296 599 243 556 b 161 478 210 474 194 467 l 99 497 b 69 560 68 507 58 528 "},"и":{"ha":781,"x_min":0,"x_max":0,"o":"m 199 719 b 242 678 231 719 242 710 l 242 413 b 213 210 242 347 232 279 l 217 210 b 294 350 235 254 261 301 l 540 699 b 582 719 550 713 564 719 l 658 719 b 700 678 690 719 700 710 l 700 43 b 658 0 700 11 690 0 l 582 0 b 539 43 550 0 539 11 l 539 304 b 569 508 539 369 549 438 l 565 508 b 485 368 550 472 524 425 l 242 22 b 199 0 231 7 217 0 l 122 0 b 81 43 90 0 81 11 l 81 678 b 122 719 81 710 90 719 "},"й":{"ha":781,"x_min":0,"x_max":0,"o":"m 614 956 b 399 813 582 865 504 813 b 185 956 294 813 214 865 b 204 994 178 974 185 988 l 258 1017 b 301 1001 279 1024 294 1018 b 399 929 317 953 350 929 b 496 1001 447 929 481 953 b 532 1018 503 1017 514 1022 l 596 994 b 614 956 618 985 621 976 m 199 719 b 242 678 231 719 242 710 l 242 413 b 213 210 242 347 232 279 l 217 210 b 294 350 235 254 261 301 l 540 699 b 582 719 550 713 564 719 l 658 719 b 700 678 690 719 700 710 l 700 43 b 658 0 700 11 690 0 l 582 0 b 539 43 550 0 539 11 l 539 304 b 569 508 539 369 549 438 l 565 508 b 485 368 550 472 524 425 l 242 22 b 199 0 231 7 217 0 l 122 0 b 81 43 90 0 81 11 l 81 678 b 122 719 81 710 90 719 "},"к":{"ha":728,"x_min":0,"x_max":0,"o":"m 697 51 b 669 0 715 14 710 0 l 600 0 b 525 39 551 0 542 6 l 439 224 b 329 292 417 274 386 292 l 242 292 l 242 44 b 196 0 242 11 231 0 l 125 0 b 81 44 90 0 81 11 l 81 676 b 125 719 81 710 90 719 l 196 719 b 242 676 231 719 242 710 l 242 442 l 306 442 l 318 442 l 506 688 b 589 719 526 717 538 719 l 657 719 b 685 669 701 719 711 703 l 476 410 b 576 294 514 392 547 353 "},"л":{"ha":754,"x_min":0,"x_max":0,"o":"m 647 719 b 690 678 679 719 690 710 l 690 43 b 647 0 690 11 679 0 l 572 0 b 529 43 540 0 529 11 l 529 571 l 318 571 l 318 461 b 251 108 318 294 296 175 b 113 -15 207 40 172 13 b 60 7 89 -25 72 -18 l 24 79 b 40 129 13 100 18 117 b 119 204 75 147 92 158 b 161 471 147 249 161 339 l 161 678 b 204 719 161 710 172 719 "},"м":{"ha":892,"x_min":0,"x_max":0,"o":"m 765 719 b 813 674 804 719 813 708 l 813 43 b 769 0 813 10 801 0 l 704 0 b 661 43 669 0 661 8 l 661 294 b 690 500 661 346 671 414 l 685 500 b 614 346 664 442 640 390 l 517 176 b 464 144 500 150 492 144 l 425 144 b 372 178 397 144 388 150 l 275 344 b 206 501 249 389 226 442 l 200 501 b 228 290 218 408 228 339 l 228 43 b 186 0 228 10 218 0 l 124 0 b 81 43 89 0 81 8 l 81 674 b 128 719 81 708 89 719 l 183 719 b 244 685 218 719 229 713 l 446 324 l 644 683 b 704 719 661 713 671 719 "},"н":{"ha":774,"x_min":0,"x_max":0,"o":"m 651 719 b 693 678 683 719 693 710 l 693 43 b 651 0 693 11 683 0 l 575 0 b 532 43 543 0 532 11 l 532 292 l 242 292 l 242 43 b 199 0 242 11 231 0 l 122 0 b 81 43 90 0 81 11 l 81 678 b 122 719 81 710 90 719 l 199 719 b 242 678 231 719 242 710 l 242 442 l 532 442 l 532 678 b 575 719 532 710 543 719 "},"о":{"ha":754,"x_min":0,"x_max":0,"o":"m 57 463 b 376 740 57 636 172 740 b 697 463 582 740 697 636 l 697 257 b 376 -21 697 83 582 -21 b 57 257 172 -21 57 83 m 536 463 b 376 594 536 547 478 594 b 218 463 275 594 218 547 l 218 257 b 376 125 218 174 275 125 b 536 257 478 125 536 174 "},"п":{"ha":768,"x_min":0,"x_max":0,"o":"m 644 719 b 688 678 678 719 688 710 l 688 43 b 644 0 688 11 678 0 l 569 0 b 526 43 538 0 526 11 l 526 571 l 242 571 l 242 43 b 199 0 242 11 231 0 l 122 0 b 81 43 90 0 81 11 l 81 678 b 122 719 81 710 90 719 "},"р":{"ha":753,"x_min":0,"x_max":0,"o":"m 132 700 b 401 740 206 726 294 740 b 694 460 597 740 694 642 l 694 269 b 385 -21 694 76 592 -21 b 239 4 351 -21 303 -12 l 239 -262 b 197 -306 239 -294 229 -306 l 121 -306 b 78 -262 89 -306 78 -294 l 78 621 b 132 700 78 665 88 682 m 533 456 b 378 593 533 547 482 593 b 253 578 331 593 289 588 b 239 560 243 574 239 568 l 239 147 b 374 126 293 133 338 126 b 533 275 481 126 533 176 "},"с":{"ha":718,"x_min":0,"x_max":0,"o":"m 57 456 b 376 740 57 638 164 740 b 674 558 533 740 636 668 b 643 496 685 524 676 508 l 582 476 b 521 506 549 464 533 472 b 369 599 497 568 446 599 b 218 463 268 599 218 553 l 218 257 b 369 121 218 169 271 121 b 521 217 446 121 497 153 b 582 244 533 250 549 256 l 644 226 b 674 164 676 214 686 193 b 364 -21 625 40 522 -21 b 57 264 158 -21 57 82 "},"т":{"ha":646,"x_min":0,"x_max":0,"o":"m 585 719 b 628 678 617 719 628 710 l 628 614 b 585 571 628 582 617 571 l 404 571 l 404 43 b 361 0 404 11 393 0 l 286 0 b 243 43 254 0 243 11 l 243 571 l 61 571 b 18 614 29 571 18 582 l 18 678 b 61 719 18 710 29 719 "},"у":{"ha":771,"x_min":0,"x_max":0,"o":"m 654 719 b 697 678 686 719 697 710 l 697 -24 b 392 -326 697 -214 601 -326 b 103 -193 254 -326 157 -282 b 121 -124 83 -162 89 -139 l 174 -94 b 243 -111 207 -78 222 -82 b 389 -182 272 -158 321 -182 b 536 -32 488 -182 536 -132 l 536 33 b 371 14 479 21 424 14 b 81 293 176 14 81 114 l 81 678 b 124 719 81 710 92 719 l 200 719 b 242 678 232 719 242 710 l 242 299 b 393 161 242 207 292 161 b 536 181 439 161 486 168 l 536 678 b 579 719 536 710 547 719 "},"ф":{"ha":1029,"x_min":0,"x_max":0,"o":"m 596 736 b 668 740 619 739 644 740 b 974 435 872 740 974 639 l 974 285 b 668 -21 974 81 867 -21 b 596 -15 642 -21 617 -19 l 596 -262 b 553 -306 596 -294 585 -306 l 476 -306 b 435 -262 444 -306 435 -294 l 435 -15 b 361 -21 414 -19 389 -21 b 56 285 163 -21 56 81 l 56 433 b 361 740 56 638 163 740 b 435 736 388 740 411 739 l 435 983 b 476 1026 435 1015 444 1026 l 553 1026 b 596 983 585 1026 596 1015 m 217 289 b 372 126 217 181 268 126 b 439 131 394 126 417 128 l 439 590 b 372 593 410 592 388 593 b 217 428 268 593 217 538 m 813 431 b 657 593 813 539 761 593 b 590 590 642 593 619 592 l 590 131 b 657 126 613 128 635 126 b 813 289 761 126 813 181 "},"х":{"ha":706,"x_min":0,"x_max":0,"o":"m 646 719 b 675 669 688 719 697 703 l 467 371 l 689 50 b 658 0 713 17 703 0 l 592 0 b 514 36 546 0 535 4 l 364 254 l 221 36 b 143 0 200 4 189 0 l 78 0 b 46 50 28 0 19 17 l 268 369 l 56 669 b 89 719 32 703 43 719 l 151 719 b 231 683 200 719 213 713 l 368 488 l 503 683 b 578 719 524 715 532 719 "},"ц":{"ha":810,"x_min":0,"x_max":0,"o":"m 746 150 b 788 106 778 150 788 139 l 788 -150 b 746 -193 788 -182 778 -193 l 675 -193 b 632 -150 643 -193 632 -182 l 632 0 l 122 0 b 81 43 90 0 81 11 l 81 678 b 122 719 81 710 90 719 l 199 719 b 242 678 231 719 242 710 l 242 150 l 521 150 l 521 678 b 563 719 521 710 531 719 l 639 719 b 682 678 671 719 682 710 l 682 150 "},"ч":{"ha":719,"x_min":0,"x_max":0,"o":"m 40 678 b 83 719 40 710 51 719 l 158 719 b 201 678 190 719 201 710 l 201 519 b 347 388 201 432 250 388 b 478 407 408 388 451 394 l 478 678 b 521 719 478 710 489 719 l 596 719 b 639 678 628 719 639 710 l 639 43 b 596 0 639 11 628 0 l 521 0 b 478 43 489 0 478 11 l 478 256 b 325 240 457 246 407 240 b 40 515 135 240 40 332 "},"ш":{"ha":1071,"x_min":0,"x_max":0,"o":"m 947 719 b 990 678 979 719 990 710 l 990 43 b 947 0 990 11 979 0 l 122 0 b 81 43 90 0 81 11 l 81 678 b 122 719 81 710 90 719 l 199 719 b 242 678 231 719 242 710 l 242 150 l 454 150 l 454 678 b 497 719 454 710 465 719 l 574 719 b 615 678 606 719 615 710 l 615 150 l 829 150 l 829 678 b 872 719 829 710 840 719 "},"щ":{"ha":1119,"x_min":0,"x_max":0,"o":"m 1054 150 b 1096 106 1086 150 1096 139 l 1096 -150 b 1054 -193 1096 -182 1086 -193 l 983 -193 b 940 -150 951 -193 940 -182 l 940 0 l 122 0 b 81 43 90 0 81 11 l 81 678 b 122 719 81 710 90 719 l 199 719 b 242 678 231 719 242 710 l 242 150 l 454 150 l 454 678 b 497 719 454 710 465 719 l 574 719 b 615 678 606 719 615 710 l 615 150 l 829 150 l 829 678 b 872 719 829 710 840 719 l 947 719 b 990 678 979 719 990 710 l 990 150 "},"ъ":{"ha":850,"x_min":0,"x_max":0,"o":"m 553 514 b 815 258 715 514 815 418 b 553 0 815 97 715 0 l 250 0 b 208 43 218 0 208 11 l 208 571 l 63 571 b 19 614 31 571 19 582 l 19 678 b 63 719 19 710 31 719 l 326 719 b 369 678 358 719 369 710 l 369 514 m 533 144 b 647 258 604 144 647 190 b 533 368 647 325 604 368 l 369 368 l 369 144 "},"ы":{"ha":996,"x_min":0,"x_max":0,"o":"m 425 514 b 688 258 588 514 688 418 b 425 0 688 97 588 0 l 122 0 b 81 43 90 0 81 11 l 81 678 b 122 719 81 710 90 719 l 199 719 b 242 678 231 719 242 710 l 242 514 m 872 719 b 915 678 904 719 915 710 l 915 43 b 872 0 915 11 904 0 l 797 0 b 754 43 765 0 754 11 l 754 678 b 797 719 754 710 765 719 m 406 144 b 519 258 476 144 519 190 b 406 368 519 325 476 368 l 242 368 l 242 144 "},"ь":{"ha":722,"x_min":0,"x_max":0,"o":"m 425 514 b 688 258 588 514 688 418 b 425 0 688 97 588 0 l 122 0 b 81 43 90 0 81 11 l 81 678 b 122 719 81 710 90 719 l 199 719 b 242 678 231 719 242 710 l 242 514 m 406 144 b 519 258 476 144 519 190 b 406 368 519 325 476 368 l 242 368 l 242 144 "},"э":{"ha":713,"x_min":0,"x_max":0,"o":"m 60 558 b 356 740 97 669 199 740 b 672 456 567 740 672 638 l 672 265 b 367 -21 672 83 572 -21 b 60 165 210 -21 108 42 b 89 226 47 194 57 215 l 151 246 b 213 218 181 256 201 247 b 361 122 236 154 285 122 b 510 258 460 122 510 168 l 510 293 l 303 294 b 260 336 271 294 260 304 l 260 393 b 303 435 260 425 271 435 l 510 435 l 510 463 b 361 599 510 553 460 599 b 213 506 286 599 236 568 b 151 476 200 472 185 464 l 90 496 b 60 558 57 508 49 524 "},"ю":{"ha":1050,"x_min":0,"x_max":0,"o":"m 368 464 b 679 740 368 638 479 740 b 992 463 881 740 992 636 l 992 256 b 679 -21 992 82 881 -21 b 368 256 479 -21 368 82 l 368 290 l 242 290 l 242 43 b 199 0 242 11 231 0 l 122 0 b 81 43 90 0 81 11 l 81 678 b 122 719 81 710 90 719 l 199 719 b 242 678 231 719 242 710 l 242 440 l 368 440 m 829 464 b 679 594 829 551 779 594 b 531 464 583 594 531 549 l 531 257 b 679 125 531 174 585 125 b 829 257 778 125 829 174 "},"я":{"ha":736,"x_min":0,"x_max":0,"o":"m 618 719 b 661 676 650 719 661 710 l 661 43 b 618 0 661 11 650 0 l 543 0 b 500 43 511 0 500 11 l 500 232 l 358 232 l 242 38 b 164 0 224 4 213 0 l 96 0 b 64 51 46 0 40 17 l 196 254 b 57 476 103 292 57 365 b 306 719 57 626 151 719 m 326 575 b 225 476 265 575 225 533 b 326 378 225 417 265 378 l 500 378 l 500 575 "},"ё":{"ha":746,"x_min":0,"x_max":0,"o":"m 243 985 b 317 913 299 985 317 967 l 317 900 b 243 828 317 846 299 828 l 233 828 b 161 900 178 828 161 846 l 161 913 b 233 985 161 967 178 985 m 521 985 b 593 913 576 985 593 967 l 593 900 b 521 828 593 846 576 828 l 513 828 b 439 900 456 828 439 844 l 439 913 b 513 985 439 967 456 985 m 56 440 b 378 740 56 635 168 740 b 699 453 589 740 699 621 l 699 368 b 636 308 699 328 678 308 l 217 308 l 217 257 b 375 118 217 167 274 118 b 539 192 453 118 507 143 b 610 208 561 224 576 226 l 658 182 b 675 113 690 167 696 144 b 375 -21 621 24 521 -21 b 56 276 158 -21 56 94 m 538 463 b 378 604 538 553 483 604 b 217 463 274 604 217 553 l 217 432 l 538 432 "},"Ẁ":{"ha":1251,"x_min":0,"x_max":0,"o":"m 519 1250 b 599 1253 538 1271 564 1272 l 803 1132 b 806 1086 825 1119 824 1110 l 786 1061 b 732 1058 776 1049 758 1049 l 490 1158 b 483 1207 463 1169 463 1183 m 1197 986 b 1228 940 1229 986 1238 972 l 999 39 b 940 0 992 7 975 0 l 864 0 b 806 38 831 0 811 13 l 660 589 b 638 746 646 643 639 694 l 628 746 b 604 590 626 697 619 644 l 457 39 b 399 0 450 7 433 0 l 324 0 b 264 38 289 0 271 8 l 36 940 b 67 986 26 972 33 986 l 164 986 b 226 944 204 986 219 978 l 340 426 b 363 240 343 414 350 353 l 371 240 b 399 426 374 304 383 367 l 539 940 b 601 982 549 974 564 982 l 676 982 b 739 940 715 982 732 974 l 876 426 b 906 240 893 363 903 300 l 914 240 b 939 425 918 300 926 363 l 1050 944 b 1113 986 1057 978 1072 986 "},"ẁ":{"ha":1021,"x_min":0,"x_max":0,"o":"m 400 1010 b 479 1011 418 1031 444 1032 l 683 889 b 686 844 701 879 703 865 l 667 818 b 613 817 657 806 639 806 l 371 918 b 365 965 343 926 344 942 m 961 719 b 997 669 1001 719 1008 710 l 811 38 b 753 -1 804 11 785 -1 l 706 -1 b 646 38 674 -1 654 11 l 544 393 b 522 514 533 432 526 482 l 519 536 l 513 536 l 510 514 b 486 393 506 482 497 432 l 385 38 b 326 -1 378 11 358 -1 l 281 -1 b 222 38 249 -1 229 11 l 38 669 b 72 719 25 710 32 719 l 126 719 b 203 676 181 719 196 711 l 282 365 b 306 196 293 313 306 196 l 313 196 b 342 367 313 204 325 301 l 433 671 b 504 715 444 710 454 715 l 536 715 b 607 672 586 715 596 710 l 700 367 b 729 196 719 296 729 204 l 738 196 l 740 222 b 761 367 742 260 750 321 l 838 676 b 915 719 844 711 861 719 "},"Ẃ":{"ha":1251,"x_min":0,"x_max":0,"o":"m 688 1256 b 765 1253 722 1275 747 1274 l 801 1208 b 794 1161 824 1183 822 1172 l 554 1060 b 500 1061 525 1050 507 1050 l 481 1088 b 483 1132 464 1108 465 1122 m 1197 986 b 1228 940 1229 986 1238 972 l 999 39 b 940 0 992 7 975 0 l 864 0 b 806 38 831 0 811 13 l 660 589 b 638 746 646 643 639 694 l 628 746 b 604 590 626 697 619 644 l 457 39 b 399 0 450 7 433 0 l 324 0 b 264 38 289 0 271 8 l 36 940 b 67 986 26 972 33 986 l 164 986 b 226 944 204 986 219 978 l 340 426 b 363 240 343 414 350 353 l 371 240 b 399 426 374 304 383 367 l 539 940 b 601 982 549 974 564 982 l 676 982 b 739 940 715 982 732 974 l 876 426 b 906 240 893 363 903 300 l 914 240 b 939 425 918 300 926 363 l 1050 944 b 1113 986 1057 978 1072 986 "}}}
